<ttFont>
    <TTGlyph name="A" xMin="-41" yMin="0" xMax="1954" yMax="1374">
      <contour>
        <pt x="444" y="1374" on="1"/>
        <pt x="1030" y="1374" on="1"/>
        <pt x="1690" y="113" on="1"/>
        <pt x="1954" y="113" on="1"/>
        <pt x="1954" y="0" on="1"/>
        <pt x="1255" y="0" on="1"/>
        <pt x="1255" y="113" on="1"/>
        <pt x="1552" y="113" on="1"/>
        <pt x="1370" y="467" on="1"/>
        <pt x="543" y="467" on="1"/>
        <pt x="358" y="113" on="1"/>
        <pt x="657" y="113" on="1"/>
        <pt x="657" y="0" on="1"/>
        <pt x="-41" y="0" on="1"/>
        <pt x="-41" y="113" on="1"/>
        <pt x="223" y="113" on="1"/>
        <pt x="823" y="1262" on="1"/>
        <pt x="444" y="1262" on="1"/>
      </contour>
      <contour>
        <pt x="956" y="1253" on="1"/>
        <pt x="604" y="580" on="1"/>
        <pt x="1309" y="580" on="1"/>
      </contour>
    </TTGlyph>
    <TTGlyph name="AE" xMin="-41" yMin="0" xMax="2357" yMax="1374">
      <contour>
        <pt x="506" y="1374" on="1"/>
        <pt x="2343" y="1374" on="1"/>
        <pt x="2343" y="963" on="1"/>
        <pt x="2230" y="963" on="1"/>
        <pt x="2230" y="1257" on="1"/>
        <pt x="1280" y="1257" on="1"/>
        <pt x="1280" y="784" on="1"/>
        <pt x="2003" y="784" on="1"/>
        <pt x="2003" y="668" on="1"/>
        <pt x="1280" y="668" on="1"/>
        <pt x="1280" y="117" on="1"/>
        <pt x="2245" y="117" on="1"/>
        <pt x="2245" y="432" on="1"/>
        <pt x="2357" y="432" on="1"/>
        <pt x="2357" y="0" on="1"/>
        <pt x="868" y="0" on="1"/>
        <pt x="868" y="113" on="1"/>
        <pt x="1155" y="113" on="1"/>
        <pt x="1155" y="467" on="1"/>
        <pt x="545" y="467" on="1"/>
        <pt x="344" y="113" on="1"/>
        <pt x="616" y="113" on="1"/>
        <pt x="616" y="0" on="1"/>
        <pt x="-41" y="0" on="1"/>
        <pt x="-41" y="113" on="1"/>
        <pt x="207" y="113" on="1"/>
        <pt x="858" y="1262" on="1"/>
        <pt x="506" y="1262" on="1"/>
      </contour>
      <contour>
        <pt x="610" y="580" on="1"/>
        <pt x="1155" y="580" on="1"/>
        <pt x="1155" y="1253" on="1"/>
        <pt x="993" y="1253" on="1"/>
      </contour>
    </TTGlyph>
    <TTGlyph name="AEacute" xMin="-41" yMin="0" xMax="2357" yMax="1798">
      <component glyphName="AE" x="0" y="0" flags="0x204"/>
      <component glyphName="acute" x="936" y="403" flags="0x4"/>
    </TTGlyph>
    <TTGlyph name="Aacute" xMin="-41" yMin="0" xMax="1954" yMax="1798">
      <component glyphName="A" x="0" y="0" flags="0x204"/>
      <component glyphName="acute" x="352" y="403" flags="0x4"/>
    </TTGlyph>
    <TTGlyph name="Abreve" xMin="-41" yMin="0" xMax="1954" yMax="1753">
      <component glyphName="A" x="0" y="0" flags="0x204"/>
      <component glyphName="breve" x="352" y="403" flags="0x4"/>
    </TTGlyph>
    <TTGlyph name="Acircumflex" xMin="-41" yMin="0" xMax="1954" yMax="1800">
      <component glyphName="A" x="0" y="0" flags="0x204"/>
      <component glyphName="circumflex" x="352" y="403" flags="0x4"/>
    </TTGlyph>
    <TTGlyph name="Adieresis" xMin="-41" yMin="0" xMax="1954" yMax="1697">
      <component glyphName="A" x="0" y="0" flags="0x204"/>
      <component glyphName="dieresis" x="352" y="403" flags="0x4"/>
    </TTGlyph>
    <TTGlyph name="Agrave" xMin="-41" yMin="0" xMax="1954" yMax="1798">
      <component glyphName="A" x="0" y="0" flags="0x204"/>
      <component glyphName="grave" x="352" y="403" flags="0x4"/>
    </TTGlyph>
    <TTGlyph name="Amacron" xMin="-41" yMin="0" xMax="1954" yMax="1646">
      <component glyphName="A" x="0" y="0" flags="0x204"/>
      <component glyphName="macron" x="352" y="403" flags="0x4"/>
    </TTGlyph>
    <TTGlyph name="Aogonek" xMin="-41" yMin="-356" xMax="1954" yMax="1374">
      <contour>
        <pt x="444" y="1374" on="1"/>
        <pt x="1030" y="1374" on="1"/>
        <pt x="1690" y="113" on="1"/>
        <pt x="1954" y="113" on="1"/>
        <pt x="1954" y="0" on="1"/>
        <pt x="1788" y="0" on="1"/>
        <pt x="1759" y="-19" on="0"/>
        <pt x="1703" y="-63" on="0"/>
        <pt x="1659" y="-110" on="0"/>
        <pt x="1632" y="-158" on="0"/>
        <pt x="1632" y="-182" on="1"/>
        <pt x="1632" y="-224" on="0"/>
        <pt x="1700" y="-262" on="0"/>
        <pt x="1763" y="-262" on="1"/>
        <pt x="1805" y="-262" on="0"/>
        <pt x="1889" y="-241" on="0"/>
        <pt x="1917" y="-227" on="1"/>
        <pt x="1954" y="-317" on="1"/>
        <pt x="1937" y="-326" on="0"/>
        <pt x="1891" y="-340" on="0"/>
        <pt x="1837" y="-350" on="0"/>
        <pt x="1779" y="-356" on="0"/>
        <pt x="1751" y="-356" on="1"/>
        <pt x="1640" y="-356" on="0"/>
        <pt x="1518" y="-285" on="0"/>
        <pt x="1518" y="-205" on="1"/>
        <pt x="1518" y="-146" on="0"/>
        <pt x="1595" y="-46" on="0"/>
        <pt x="1673" y="0" on="1"/>
        <pt x="1255" y="0" on="1"/>
        <pt x="1255" y="113" on="1"/>
        <pt x="1552" y="113" on="1"/>
        <pt x="1370" y="467" on="1"/>
        <pt x="543" y="467" on="1"/>
        <pt x="358" y="113" on="1"/>
        <pt x="657" y="113" on="1"/>
        <pt x="657" y="0" on="1"/>
        <pt x="-41" y="0" on="1"/>
        <pt x="-41" y="113" on="1"/>
        <pt x="223" y="113" on="1"/>
        <pt x="823" y="1262" on="1"/>
        <pt x="444" y="1262" on="1"/>
      </contour>
      <contour>
        <pt x="956" y="1253" on="1"/>
        <pt x="604" y="580" on="1"/>
        <pt x="1309" y="580" on="1"/>
      </contour>
    </TTGlyph>
    <TTGlyph name="Aring" xMin="-41" yMin="0" xMax="1954" yMax="1853">
      <component glyphName="A" x="0" y="0" flags="0x204"/>
      <component glyphName="ring" x="352" y="403" flags="0x4"/>
    </TTGlyph>
    <TTGlyph name="Atilde" xMin="-41" yMin="0" xMax="1954" yMax="1738">
      <component glyphName="A" x="0" y="0" flags="0x204"/>
      <component glyphName="tilde" x="354" y="403" flags="0x4"/>
    </TTGlyph>
    <TTGlyph name="B" xMin="82" yMin="0" xMax="1731" yMax="1374">
      <contour>
        <pt x="82" y="1374" on="1"/>
        <pt x="1143" y="1374" on="1"/>
        <pt x="1202" y="1374" on="0"/>
        <pt x="1320" y="1364" on="0"/>
        <pt x="1429" y="1337" on="0"/>
        <pt x="1522" y="1289" on="0"/>
        <pt x="1591" y="1211" on="0"/>
        <pt x="1630" y="1101" on="0"/>
        <pt x="1630" y="1026" on="1"/>
        <pt x="1630" y="959" on="0"/>
        <pt x="1597" y="861" on="0"/>
        <pt x="1530" y="791" on="0"/>
        <pt x="1426" y="746" on="0"/>
        <pt x="1356" y="733" on="1"/>
        <pt x="1456" y="726" on="0"/>
        <pt x="1599" y="672" on="0"/>
        <pt x="1689" y="582" on="0"/>
        <pt x="1731" y="457" on="0"/>
        <pt x="1731" y="379" on="1"/>
        <pt x="1731" y="299" on="0"/>
        <pt x="1689" y="181" on="0"/>
        <pt x="1614" y="96" on="0"/>
        <pt x="1509" y="43" on="0"/>
        <pt x="1382" y="12" on="0"/>
        <pt x="1238" y="0" on="0"/>
        <pt x="1161" y="0" on="1"/>
        <pt x="82" y="0" on="1"/>
        <pt x="82" y="113" on="1"/>
        <pt x="369" y="113" on="1"/>
        <pt x="369" y="1262" on="1"/>
        <pt x="82" y="1262" on="1"/>
      </contour>
      <contour>
        <pt x="1599" y="381" on="1"/>
        <pt x="1599" y="459" on="0"/>
        <pt x="1545" y="569" on="0"/>
        <pt x="1433" y="639" on="0"/>
        <pt x="1258" y="672" on="0"/>
        <pt x="1137" y="672" on="1"/>
        <pt x="494" y="672" on="1"/>
        <pt x="494" y="113" on="1"/>
        <pt x="1153" y="113" on="1"/>
        <pt x="1278" y="113" on="0"/>
        <pt x="1449" y="142" on="0"/>
        <pt x="1554" y="207" on="0"/>
        <pt x="1599" y="309" on="0"/>
      </contour>
      <contour>
        <pt x="1513" y="1024" on="1"/>
        <pt x="1513" y="1053" on="0"/>
        <pt x="1505" y="1111" on="0"/>
        <pt x="1477" y="1164" on="0"/>
        <pt x="1424" y="1210" on="0"/>
        <pt x="1332" y="1243" on="0"/>
        <pt x="1197" y="1262" on="0"/>
        <pt x="1102" y="1262" on="1"/>
        <pt x="494" y="1262" on="1"/>
        <pt x="494" y="782" on="1"/>
        <pt x="1102" y="782" on="1"/>
        <pt x="1237" y="782" on="0"/>
        <pt x="1399" y="821" on="0"/>
        <pt x="1486" y="887" on="0"/>
        <pt x="1513" y="975" on="0"/>
      </contour>
    </TTGlyph>
    <TTGlyph name="C" xMin="135" yMin="-27" xMax="1737" yMax="1399">
      <contour>
        <pt x="1599" y="860" on="1"/>
        <pt x="1599" y="940" on="1"/>
        <pt x="1599" y="1026" on="0"/>
        <pt x="1501" y="1155" on="0"/>
        <pt x="1338" y="1242" on="0"/>
        <pt x="1126" y="1286" on="0"/>
        <pt x="1012" y="1286" on="1"/>
        <pt x="818" y="1286" on="0"/>
        <pt x="538" y="1201" on="0"/>
        <pt x="358" y="1044" on="0"/>
        <pt x="272" y="822" on="0"/>
        <pt x="272" y="686" on="1"/>
        <pt x="272" y="549" on="0"/>
        <pt x="364" y="328" on="0"/>
        <pt x="548" y="172" on="0"/>
        <pt x="823" y="88" on="0"/>
        <pt x="1006" y="88" on="1"/>
        <pt x="1109" y="88" on="0"/>
        <pt x="1297" y="125" on="0"/>
        <pt x="1452" y="197" on="0"/>
        <pt x="1568" y="304" on="0"/>
        <pt x="1599" y="375" on="1"/>
        <pt x="1737" y="375" on="1"/>
        <pt x="1701" y="287" on="0"/>
        <pt x="1574" y="140" on="0"/>
        <pt x="1388" y="33" on="0"/>
        <pt x="1142" y="-27" on="0"/>
        <pt x="987" y="-27" on="1"/>
        <pt x="806" y="-27" on="0"/>
        <pt x="494" y="63" on="0"/>
        <pt x="265" y="241" on="0"/>
        <pt x="135" y="509" on="0"/>
        <pt x="135" y="686" on="1"/>
        <pt x="135" y="863" on="0"/>
        <pt x="266" y="1131" on="0"/>
        <pt x="498" y="1309" on="0"/>
        <pt x="814" y="1399" on="0"/>
        <pt x="999" y="1399" on="1"/>
        <pt x="1120" y="1399" on="0"/>
        <pt x="1303" y="1369" on="0"/>
        <pt x="1444" y="1322" on="0"/>
        <pt x="1552" y="1263" on="0"/>
        <pt x="1599" y="1235" on="1"/>
        <pt x="1599" y="1374" on="1"/>
        <pt x="1712" y="1374" on="1"/>
        <pt x="1712" y="860" on="1"/>
      </contour>
    </TTGlyph>
    <TTGlyph name="Cacute" xMin="135" yMin="-27" xMax="1737" yMax="1798">
      <component glyphName="C" x="0" y="0" flags="0x204"/>
      <component glyphName="acute" x="459" y="403" flags="0x4"/>
    </TTGlyph>
    <TTGlyph name="Ccaron" xMin="135" yMin="-27" xMax="1737" yMax="1798">
      <component glyphName="C" x="0" y="0" flags="0x204"/>
      <component glyphName="caron" x="459" y="403" flags="0x4"/>
    </TTGlyph>
    <TTGlyph name="Ccedilla" xMin="135" yMin="-401" xMax="1737" yMax="1399">
      <contour>
        <pt x="1599" y="860" on="1"/>
        <pt x="1599" y="940" on="1"/>
        <pt x="1599" y="1026" on="0"/>
        <pt x="1501" y="1155" on="0"/>
        <pt x="1338" y="1242" on="0"/>
        <pt x="1126" y="1286" on="0"/>
        <pt x="1012" y="1286" on="1"/>
        <pt x="818" y="1286" on="0"/>
        <pt x="538" y="1201" on="0"/>
        <pt x="358" y="1044" on="0"/>
        <pt x="272" y="822" on="0"/>
        <pt x="272" y="686" on="1"/>
        <pt x="272" y="549" on="0"/>
        <pt x="364" y="328" on="0"/>
        <pt x="548" y="172" on="0"/>
        <pt x="823" y="88" on="0"/>
        <pt x="1006" y="88" on="1"/>
        <pt x="1109" y="88" on="0"/>
        <pt x="1297" y="125" on="0"/>
        <pt x="1452" y="197" on="0"/>
        <pt x="1568" y="304" on="0"/>
        <pt x="1599" y="375" on="1"/>
        <pt x="1737" y="375" on="1"/>
        <pt x="1701" y="289" on="0"/>
        <pt x="1576" y="144" on="0"/>
        <pt x="1395" y="37" on="0"/>
        <pt x="1156" y="-24" on="0"/>
        <pt x="1006" y="-27" on="1"/>
        <pt x="979" y="-98" on="1"/>
        <pt x="1023" y="-98" on="0"/>
        <pt x="1100" y="-112" on="0"/>
        <pt x="1157" y="-145" on="0"/>
        <pt x="1190" y="-200" on="0"/>
        <pt x="1190" y="-242" on="1"/>
        <pt x="1190" y="-287" on="0"/>
        <pt x="1153" y="-348" on="0"/>
        <pt x="1086" y="-385" on="0"/>
        <pt x="994" y="-401" on="0"/>
        <pt x="940" y="-401" on="1"/>
        <pt x="858" y="-401" on="0"/>
        <pt x="748" y="-369" on="0"/>
        <pt x="711" y="-352" on="1"/>
        <pt x="754" y="-266" on="1"/>
        <pt x="789" y="-288" on="0"/>
        <pt x="872" y="-311" on="0"/>
        <pt x="932" y="-311" on="1"/>
        <pt x="1016" y="-311" on="0"/>
        <pt x="1081" y="-273" on="0"/>
        <pt x="1081" y="-242" on="1"/>
        <pt x="1081" y="-223" on="0"/>
        <pt x="1061" y="-197" on="0"/>
        <pt x="1028" y="-182" on="0"/>
        <pt x="985" y="-176" on="0"/>
        <pt x="961" y="-176" on="1"/>
        <pt x="935" y="-176" on="0"/>
        <pt x="881" y="-179" on="0"/>
        <pt x="858" y="-182" on="1"/>
        <pt x="918" y="-25" on="1"/>
        <pt x="750" y="-16" on="0"/>
        <pt x="463" y="81" on="0"/>
        <pt x="253" y="259" on="0"/>
        <pt x="135" y="517" on="0"/>
        <pt x="135" y="686" on="1"/>
        <pt x="135" y="863" on="0"/>
        <pt x="266" y="1131" on="0"/>
        <pt x="498" y="1309" on="0"/>
        <pt x="814" y="1399" on="0"/>
        <pt x="999" y="1399" on="1"/>
        <pt x="1120" y="1399" on="0"/>
        <pt x="1303" y="1369" on="0"/>
        <pt x="1444" y="1322" on="0"/>
        <pt x="1552" y="1263" on="0"/>
        <pt x="1599" y="1235" on="1"/>
        <pt x="1599" y="1374" on="1"/>
        <pt x="1712" y="1374" on="1"/>
        <pt x="1712" y="860" on="1"/>
      </contour>
    </TTGlyph>
    <TTGlyph name="Ccircumflex" xMin="135" yMin="-27" xMax="1737" yMax="1800">
      <component glyphName="C" x="0" y="0" flags="0x204"/>
      <component glyphName="circumflex" x="459" y="403" flags="0x4"/>
    </TTGlyph>
    <TTGlyph name="Cdotaccent" xMin="135" yMin="-27" xMax="1737" yMax="1708">
      <component glyphName="C" x="0" y="0" flags="0x204"/>
      <component glyphName="dotaccent" x="459" y="403" flags="0x4"/>
    </TTGlyph>
    <TTGlyph name="D" xMin="82" yMin="0" xMax="1868" yMax="1374">
      <contour>
        <pt x="82" y="1374" on="1"/>
        <pt x="1075" y="1374" on="1"/>
        <pt x="1244" y="1374" on="0"/>
        <pt x="1534" y="1308" on="0"/>
        <pt x="1747" y="1149" on="0"/>
        <pt x="1868" y="885" on="0"/>
        <pt x="1868" y="688" on="1"/>
        <pt x="1868" y="556" on="0"/>
        <pt x="1813" y="351" on="0"/>
        <pt x="1713" y="199" on="0"/>
        <pt x="1570" y="93" on="0"/>
        <pt x="1395" y="29" on="0"/>
        <pt x="1190" y="0" on="0"/>
        <pt x="1077" y="0" on="1"/>
        <pt x="82" y="0" on="1"/>
        <pt x="82" y="113" on="1"/>
        <pt x="369" y="113" on="1"/>
        <pt x="369" y="1262" on="1"/>
        <pt x="82" y="1262" on="1"/>
      </contour>
      <contour>
        <pt x="1739" y="688" on="1"/>
        <pt x="1739" y="800" on="0"/>
        <pt x="1695" y="972" on="0"/>
        <pt x="1613" y="1099" on="0"/>
        <pt x="1495" y="1185" on="0"/>
        <pt x="1347" y="1238" on="0"/>
        <pt x="1173" y="1260" on="0"/>
        <pt x="1075" y="1260" on="1"/>
        <pt x="494" y="1260" on="1"/>
        <pt x="494" y="115" on="1"/>
        <pt x="1075" y="115" on="1"/>
        <pt x="1222" y="115" on="0"/>
        <pt x="1466" y="168" on="0"/>
        <pt x="1641" y="299" on="0"/>
        <pt x="1739" y="520" on="0"/>
      </contour>
    </TTGlyph>
    <TTGlyph name="Dcaron" xMin="82" yMin="0" xMax="1868" yMax="1798">
      <component glyphName="D" x="0" y="0" flags="0x204"/>
      <component glyphName="caron" x="381" y="403" flags="0x4"/>
    </TTGlyph>
    <TTGlyph name="Dcroat" xMin="82" yMin="0" xMax="1868" yMax="1374">
      <contour>
        <pt x="82" y="1374" on="1"/>
        <pt x="1075" y="1374" on="1"/>
        <pt x="1244" y="1374" on="0"/>
        <pt x="1534" y="1308" on="0"/>
        <pt x="1747" y="1149" on="0"/>
        <pt x="1868" y="885" on="0"/>
        <pt x="1868" y="688" on="1"/>
        <pt x="1868" y="556" on="0"/>
        <pt x="1813" y="351" on="0"/>
        <pt x="1713" y="199" on="0"/>
        <pt x="1570" y="93" on="0"/>
        <pt x="1395" y="29" on="0"/>
        <pt x="1190" y="0" on="0"/>
        <pt x="1077" y="0" on="1"/>
        <pt x="82" y="0" on="1"/>
        <pt x="82" y="113" on="1"/>
        <pt x="369" y="113" on="1"/>
        <pt x="369" y="643" on="1"/>
        <pt x="82" y="643" on="1"/>
        <pt x="82" y="752" on="1"/>
        <pt x="369" y="752" on="1"/>
        <pt x="369" y="1262" on="1"/>
        <pt x="82" y="1262" on="1"/>
      </contour>
      <contour>
        <pt x="494" y="643" on="1"/>
        <pt x="494" y="115" on="1"/>
        <pt x="1075" y="115" on="1"/>
        <pt x="1222" y="115" on="0"/>
        <pt x="1466" y="168" on="0"/>
        <pt x="1641" y="299" on="0"/>
        <pt x="1739" y="520" on="0"/>
        <pt x="1739" y="688" on="1"/>
        <pt x="1739" y="800" on="0"/>
        <pt x="1695" y="972" on="0"/>
        <pt x="1613" y="1099" on="0"/>
        <pt x="1495" y="1185" on="0"/>
        <pt x="1347" y="1238" on="0"/>
        <pt x="1173" y="1260" on="0"/>
        <pt x="1075" y="1260" on="1"/>
        <pt x="494" y="1260" on="1"/>
        <pt x="494" y="752" on="1"/>
        <pt x="983" y="752" on="1"/>
        <pt x="983" y="643" on="1"/>
      </contour>
    </TTGlyph>
    <TTGlyph name="E" xMin="82" yMin="0" xMax="1612" yMax="1374">
      <contour>
        <pt x="1485" y="963" on="1"/>
        <pt x="1485" y="1257" on="1"/>
        <pt x="494" y="1257" on="1"/>
        <pt x="494" y="784" on="1"/>
        <pt x="1257" y="784" on="1"/>
        <pt x="1257" y="668" on="1"/>
        <pt x="494" y="668" on="1"/>
        <pt x="494" y="117" on="1"/>
        <pt x="1499" y="117" on="1"/>
        <pt x="1499" y="432" on="1"/>
        <pt x="1612" y="432" on="1"/>
        <pt x="1612" y="0" on="1"/>
        <pt x="82" y="0" on="1"/>
        <pt x="82" y="113" on="1"/>
        <pt x="369" y="113" on="1"/>
        <pt x="369" y="1262" on="1"/>
        <pt x="82" y="1262" on="1"/>
        <pt x="82" y="1374" on="1"/>
        <pt x="1597" y="1374" on="1"/>
        <pt x="1597" y="963" on="1"/>
      </contour>
    </TTGlyph>
    <TTGlyph name="Eacute" xMin="82" yMin="0" xMax="1612" yMax="1798">
      <component glyphName="E" x="0" y="0" flags="0x204"/>
      <component glyphName="acute" x="389" y="403" flags="0x4"/>
    </TTGlyph>
    <TTGlyph name="Ebreve" xMin="82" yMin="0" xMax="1612" yMax="1753">
      <component glyphName="E" x="0" y="0" flags="0x204"/>
      <component glyphName="breve" x="389" y="403" flags="0x4"/>
    </TTGlyph>
    <TTGlyph name="Ecaron" xMin="82" yMin="0" xMax="1612" yMax="1798">
      <component glyphName="E" x="0" y="0" flags="0x204"/>
      <component glyphName="caron" x="389" y="403" flags="0x4"/>
    </TTGlyph>
    <TTGlyph name="Ecircumflex" xMin="82" yMin="0" xMax="1612" yMax="1800">
      <component glyphName="E" x="0" y="0" flags="0x204"/>
      <component glyphName="circumflex" x="389" y="403" flags="0x4"/>
    </TTGlyph>
    <TTGlyph name="Edieresis" xMin="82" yMin="0" xMax="1612" yMax="1697">
      <component glyphName="E" x="0" y="0" flags="0x204"/>
      <component glyphName="dieresis" x="389" y="403" flags="0x4"/>
    </TTGlyph>
    <TTGlyph name="Edotaccent" xMin="82" yMin="0" xMax="1612" yMax="1708">
      <component glyphName="E" x="0" y="0" flags="0x204"/>
      <component glyphName="dotaccent" x="389" y="403" flags="0x4"/>
    </TTGlyph>
    <TTGlyph name="Egrave" xMin="82" yMin="0" xMax="1612" yMax="1798">
      <component glyphName="E" x="0" y="0" flags="0x204"/>
      <component glyphName="grave" x="389" y="403" flags="0x4"/>
    </TTGlyph>
    <TTGlyph name="Emacron" xMin="82" yMin="0" xMax="1612" yMax="1646">
      <component glyphName="E" x="0" y="0" flags="0x204"/>
      <component glyphName="macron" x="389" y="403" flags="0x4"/>
    </TTGlyph>
    <TTGlyph name="Eng" xMin="82" yMin="-406" xMax="2109" yMax="1374">
      <contour>
        <pt x="1073" y="-215" on="1"/>
        <pt x="1091" y="-228" on="0"/>
        <pt x="1148" y="-255" on="0"/>
        <pt x="1215" y="-277" on="0"/>
        <pt x="1289" y="-291" on="0"/>
        <pt x="1325" y="-291" on="1"/>
        <pt x="1489" y="-291" on="0"/>
        <pt x="1674" y="-153" on="0"/>
        <pt x="1694" y="-6" on="1"/>
        <pt x="494" y="1210" on="1"/>
        <pt x="494" y="113" on="1"/>
        <pt x="780" y="113" on="1"/>
        <pt x="780" y="0" on="1"/>
        <pt x="82" y="0" on="1"/>
        <pt x="82" y="113" on="1"/>
        <pt x="369" y="113" on="1"/>
        <pt x="369" y="1262" on="1"/>
        <pt x="82" y="1262" on="1"/>
        <pt x="82" y="1374" on="1"/>
        <pt x="506" y="1374" on="1"/>
        <pt x="1698" y="160" on="1"/>
        <pt x="1698" y="1262" on="1"/>
        <pt x="1411" y="1262" on="1"/>
        <pt x="1411" y="1374" on="1"/>
        <pt x="2109" y="1374" on="1"/>
        <pt x="2109" y="1262" on="1"/>
        <pt x="1823" y="1262" on="1"/>
        <pt x="1823" y="72" on="1"/>
        <pt x="1823" y="-42" on="0"/>
        <pt x="1757" y="-220" on="0"/>
        <pt x="1630" y="-342" on="0"/>
        <pt x="1444" y="-406" on="0"/>
        <pt x="1323" y="-406" on="1"/>
        <pt x="1136" y="-406" on="0"/>
        <pt x="1008" y="-324" on="1"/>
      </contour>
    </TTGlyph>
    <TTGlyph name="Eogonek" xMin="82" yMin="-356" xMax="1632" yMax="1374">
      <contour>
        <pt x="1485" y="963" on="1"/>
        <pt x="1485" y="1257" on="1"/>
        <pt x="494" y="1257" on="1"/>
        <pt x="494" y="784" on="1"/>
        <pt x="1257" y="784" on="1"/>
        <pt x="1257" y="668" on="1"/>
        <pt x="494" y="668" on="1"/>
        <pt x="494" y="117" on="1"/>
        <pt x="1499" y="117" on="1"/>
        <pt x="1499" y="432" on="1"/>
        <pt x="1612" y="432" on="1"/>
        <pt x="1612" y="0" on="1"/>
        <pt x="1529" y="-12" on="0"/>
        <pt x="1414" y="-54" on="0"/>
        <pt x="1343" y="-104" on="0"/>
        <pt x="1311" y="-158" on="0"/>
        <pt x="1311" y="-182" on="1"/>
        <pt x="1311" y="-224" on="0"/>
        <pt x="1379" y="-262" on="0"/>
        <pt x="1442" y="-262" on="1"/>
        <pt x="1484" y="-262" on="0"/>
        <pt x="1568" y="-241" on="0"/>
        <pt x="1595" y="-227" on="1"/>
        <pt x="1632" y="-317" on="1"/>
        <pt x="1615" y="-326" on="0"/>
        <pt x="1569" y="-340" on="0"/>
        <pt x="1516" y="-350" on="0"/>
        <pt x="1458" y="-356" on="0"/>
        <pt x="1430" y="-356" on="1"/>
        <pt x="1318" y="-356" on="0"/>
        <pt x="1196" y="-285" on="0"/>
        <pt x="1196" y="-205" on="1"/>
        <pt x="1196" y="-136" on="0"/>
        <pt x="1289" y="-41" on="0"/>
        <pt x="1372" y="0" on="1"/>
        <pt x="82" y="0" on="1"/>
        <pt x="82" y="113" on="1"/>
        <pt x="369" y="113" on="1"/>
        <pt x="369" y="1262" on="1"/>
        <pt x="82" y="1262" on="1"/>
        <pt x="82" y="1374" on="1"/>
        <pt x="1597" y="1374" on="1"/>
        <pt x="1597" y="963" on="1"/>
      </contour>
    </TTGlyph>
    <TTGlyph name="Eth" xMin="82" yMin="0" xMax="1868" yMax="1374">
      <contour>
        <pt x="82" y="1374" on="1"/>
        <pt x="1075" y="1374" on="1"/>
        <pt x="1244" y="1374" on="0"/>
        <pt x="1534" y="1308" on="0"/>
        <pt x="1747" y="1149" on="0"/>
        <pt x="1868" y="885" on="0"/>
        <pt x="1868" y="688" on="1"/>
        <pt x="1868" y="556" on="0"/>
        <pt x="1813" y="351" on="0"/>
        <pt x="1713" y="199" on="0"/>
        <pt x="1570" y="93" on="0"/>
        <pt x="1395" y="29" on="0"/>
        <pt x="1190" y="0" on="0"/>
        <pt x="1077" y="0" on="1"/>
        <pt x="82" y="0" on="1"/>
        <pt x="82" y="113" on="1"/>
        <pt x="369" y="113" on="1"/>
        <pt x="369" y="643" on="1"/>
        <pt x="82" y="643" on="1"/>
        <pt x="82" y="752" on="1"/>
        <pt x="369" y="752" on="1"/>
        <pt x="369" y="1262" on="1"/>
        <pt x="82" y="1262" on="1"/>
      </contour>
      <contour>
        <pt x="494" y="643" on="1"/>
        <pt x="494" y="115" on="1"/>
        <pt x="1075" y="115" on="1"/>
        <pt x="1222" y="115" on="0"/>
        <pt x="1466" y="168" on="0"/>
        <pt x="1641" y="299" on="0"/>
        <pt x="1739" y="520" on="0"/>
        <pt x="1739" y="688" on="1"/>
        <pt x="1739" y="800" on="0"/>
        <pt x="1695" y="972" on="0"/>
        <pt x="1613" y="1099" on="0"/>
        <pt x="1495" y="1185" on="0"/>
        <pt x="1347" y="1238" on="0"/>
        <pt x="1173" y="1260" on="0"/>
        <pt x="1075" y="1260" on="1"/>
        <pt x="494" y="1260" on="1"/>
        <pt x="494" y="752" on="1"/>
        <pt x="983" y="752" on="1"/>
        <pt x="983" y="643" on="1"/>
      </contour>
    </TTGlyph>
    <TTGlyph name="Euro" xMin="37" yMin="-27" xMax="1559" yMax="1399">
      <contour>
        <pt x="367" y="764" on="1"/>
        <pt x="365" y="744" on="0"/>
        <pt x="365" y="706" on="0"/>
        <pt x="365" y="686" on="1"/>
        <pt x="365" y="668" on="0"/>
        <pt x="365" y="635" on="0"/>
        <pt x="367" y="618" on="1"/>
        <pt x="1104" y="618" on="1"/>
        <pt x="1073" y="518" on="1"/>
        <pt x="381" y="518" on="1"/>
        <pt x="402" y="417" on="0"/>
        <pt x="496" y="256" on="0"/>
        <pt x="640" y="143" on="0"/>
        <pt x="835" y="82" on="0"/>
        <pt x="956" y="82" on="1"/>
        <pt x="1038" y="82" on="0"/>
        <pt x="1190" y="120" on="0"/>
        <pt x="1316" y="195" on="0"/>
        <pt x="1409" y="304" on="0"/>
        <pt x="1434" y="375" on="1"/>
        <pt x="1559" y="375" on="1"/>
        <pt x="1529" y="287" on="0"/>
        <pt x="1425" y="140" on="0"/>
        <pt x="1274" y="33" on="0"/>
        <pt x="1072" y="-27" on="0"/>
        <pt x="944" y="-27" on="1"/>
        <pt x="813" y="-27" on="0"/>
        <pt x="582" y="41" on="0"/>
        <pt x="401" y="178" on="0"/>
        <pt x="278" y="382" on="0"/>
        <pt x="254" y="518" on="1"/>
        <pt x="37" y="518" on="1"/>
        <pt x="68" y="618" on="1"/>
        <pt x="242" y="618" on="1"/>
        <pt x="240" y="634" on="0"/>
        <pt x="240" y="669" on="0"/>
        <pt x="240" y="686" on="1"/>
        <pt x="240" y="706" on="0"/>
        <pt x="240" y="744" on="0"/>
        <pt x="242" y="764" on="1"/>
        <pt x="37" y="764" on="1"/>
        <pt x="68" y="864" on="1"/>
        <pt x="254" y="864" on="1"/>
        <pt x="279" y="997" on="0"/>
        <pt x="403" y="1198" on="0"/>
        <pt x="583" y="1332" on="0"/>
        <pt x="810" y="1399" on="0"/>
        <pt x="940" y="1399" on="1"/>
        <pt x="1038" y="1399" on="0"/>
        <pt x="1187" y="1369" on="0"/>
        <pt x="1302" y="1322" on="0"/>
        <pt x="1389" y="1263" on="0"/>
        <pt x="1427" y="1235" on="1"/>
        <pt x="1427" y="1374" on="1"/>
        <pt x="1536" y="1374" on="1"/>
        <pt x="1536" y="885" on="1"/>
        <pt x="1427" y="885" on="1"/>
        <pt x="1427" y="940" on="1"/>
        <pt x="1427" y="1026" on="0"/>
        <pt x="1350" y="1157" on="0"/>
        <pt x="1221" y="1245" on="0"/>
        <pt x="1053" y="1290" on="0"/>
        <pt x="963" y="1290" on="1"/>
        <pt x="835" y="1290" on="0"/>
        <pt x="637" y="1230" on="0"/>
        <pt x="493" y="1119" on="0"/>
        <pt x="402" y="961" on="0"/>
        <pt x="381" y="864" on="1"/>
        <pt x="1202" y="864" on="1"/>
        <pt x="1171" y="764" on="1"/>
      </contour>
    </TTGlyph>
    <TTGlyph name="F" xMin="82" yMin="0" xMax="1536" yMax="1374">
      <contour>
        <pt x="1423" y="963" on="1"/>
        <pt x="1423" y="1257" on="1"/>
        <pt x="494" y="1257" on="1"/>
        <pt x="494" y="764" on="1"/>
        <pt x="1264" y="764" on="1"/>
        <pt x="1264" y="647" on="1"/>
        <pt x="494" y="647" on="1"/>
        <pt x="494" y="113" on="1"/>
        <pt x="780" y="113" on="1"/>
        <pt x="780" y="0" on="1"/>
        <pt x="82" y="0" on="1"/>
        <pt x="82" y="113" on="1"/>
        <pt x="369" y="113" on="1"/>
        <pt x="369" y="1262" on="1"/>
        <pt x="82" y="1262" on="1"/>
        <pt x="82" y="1374" on="1"/>
        <pt x="1536" y="1374" on="1"/>
        <pt x="1536" y="963" on="1"/>
      </contour>
    </TTGlyph>
    <TTGlyph name="G" xMin="135" yMin="-27" xMax="1880" yMax="1399">
      <contour>
        <pt x="1571" y="0" on="1"/>
        <pt x="1571" y="61" on="1"/>
        <pt x="1444" y="10" on="0"/>
        <pt x="1180" y="-27" on="0"/>
        <pt x="1042" y="-27" on="1"/>
        <pt x="848" y="-27" on="0"/>
        <pt x="516" y="60" on="0"/>
        <pt x="273" y="237" on="0"/>
        <pt x="135" y="505" on="0"/>
        <pt x="135" y="686" on="1"/>
        <pt x="135" y="867" on="0"/>
        <pt x="273" y="1135" on="0"/>
        <pt x="512" y="1312" on="0"/>
        <pt x="830" y="1399" on="0"/>
        <pt x="1010" y="1399" on="1"/>
        <pt x="1110" y="1399" on="0"/>
        <pt x="1274" y="1377" on="0"/>
        <pt x="1410" y="1339" on="0"/>
        <pt x="1526" y="1291" on="0"/>
        <pt x="1579" y="1264" on="1"/>
        <pt x="1579" y="1395" on="1"/>
        <pt x="1692" y="1395" on="1"/>
        <pt x="1692" y="881" on="1"/>
        <pt x="1579" y="881" on="1"/>
        <pt x="1579" y="1034" on="1"/>
        <pt x="1579" y="1074" on="0"/>
        <pt x="1530" y="1142" on="0"/>
        <pt x="1447" y="1198" on="0"/>
        <pt x="1337" y="1242" on="0"/>
        <pt x="1214" y="1271" on="0"/>
        <pt x="1084" y="1286" on="0"/>
        <pt x="1024" y="1286" on="1"/>
        <pt x="824" y="1286" on="0"/>
        <pt x="537" y="1203" on="0"/>
        <pt x="352" y="1048" on="0"/>
        <pt x="264" y="826" on="0"/>
        <pt x="264" y="686" on="1"/>
        <pt x="264" y="555" on="0"/>
        <pt x="361" y="334" on="0"/>
        <pt x="558" y="174" on="0"/>
        <pt x="854" y="84" on="0"/>
        <pt x="1053" y="84" on="1"/>
        <pt x="1125" y="84" on="0"/>
        <pt x="1267" y="99" on="0"/>
        <pt x="1400" y="127" on="0"/>
        <pt x="1520" y="165" on="0"/>
        <pt x="1571" y="188" on="1"/>
        <pt x="1571" y="571" on="1"/>
        <pt x="1223" y="571" on="1"/>
        <pt x="1223" y="684" on="1"/>
        <pt x="1880" y="684" on="1"/>
        <pt x="1880" y="571" on="1"/>
        <pt x="1696" y="571" on="1"/>
        <pt x="1696" y="0" on="1"/>
      </contour>
    </TTGlyph>
    <TTGlyph name="Gbreve" xMin="135" yMin="-27" xMax="1880" yMax="1753">
      <component glyphName="G" x="0" y="0" flags="0x204"/>
      <component glyphName="breve" x="473" y="403" flags="0x4"/>
    </TTGlyph>
    <TTGlyph name="Gcircumflex" xMin="135" yMin="-27" xMax="1880" yMax="1800">
      <component glyphName="G" x="0" y="0" flags="0x204"/>
      <component glyphName="circumflex" x="473" y="403" flags="0x4"/>
    </TTGlyph>
    <TTGlyph name="Gcommaaccent" xMin="135" yMin="-435" xMax="1880" yMax="1399">
      <component glyphName="G" x="0" y="0" flags="0x204"/>
      <component glyphName="commaaccent" x="479" y="-19" flags="0x4"/>
    </TTGlyph>
    <TTGlyph name="Gdotaccent" xMin="135" yMin="-27" xMax="1880" yMax="1708">
      <component glyphName="G" x="0" y="0" flags="0x204"/>
      <component glyphName="dotaccent" x="473" y="403" flags="0x4"/>
    </TTGlyph>
    <TTGlyph name="H" xMin="82" yMin="0" xMax="2136" yMax="1374">
      <contour>
        <pt x="82" y="1374" on="1"/>
        <pt x="780" y="1374" on="1"/>
        <pt x="780" y="1262" on="1"/>
        <pt x="494" y="1262" on="1"/>
        <pt x="494" y="782" on="1"/>
        <pt x="1724" y="782" on="1"/>
        <pt x="1724" y="1262" on="1"/>
        <pt x="1438" y="1262" on="1"/>
        <pt x="1438" y="1374" on="1"/>
        <pt x="2136" y="1374" on="1"/>
        <pt x="2136" y="1262" on="1"/>
        <pt x="1849" y="1262" on="1"/>
        <pt x="1849" y="113" on="1"/>
        <pt x="2136" y="113" on="1"/>
        <pt x="2136" y="0" on="1"/>
        <pt x="1438" y="0" on="1"/>
        <pt x="1438" y="113" on="1"/>
        <pt x="1724" y="113" on="1"/>
        <pt x="1724" y="666" on="1"/>
        <pt x="494" y="666" on="1"/>
        <pt x="494" y="113" on="1"/>
        <pt x="780" y="113" on="1"/>
        <pt x="780" y="0" on="1"/>
        <pt x="82" y="0" on="1"/>
        <pt x="82" y="113" on="1"/>
        <pt x="369" y="113" on="1"/>
        <pt x="369" y="1262" on="1"/>
        <pt x="82" y="1262" on="1"/>
      </contour>
    </TTGlyph>
    <TTGlyph name="Hbar" xMin="82" yMin="0" xMax="2136" yMax="1374">
      <contour>
        <pt x="82" y="1374" on="1"/>
        <pt x="780" y="1374" on="1"/>
        <pt x="780" y="1262" on="1"/>
        <pt x="494" y="1262" on="1"/>
        <pt x="494" y="1075" on="1"/>
        <pt x="1724" y="1075" on="1"/>
        <pt x="1724" y="1262" on="1"/>
        <pt x="1438" y="1262" on="1"/>
        <pt x="1438" y="1374" on="1"/>
        <pt x="2136" y="1374" on="1"/>
        <pt x="2136" y="1262" on="1"/>
        <pt x="1849" y="1262" on="1"/>
        <pt x="1849" y="1075" on="1"/>
        <pt x="2075" y="1075" on="1"/>
        <pt x="2075" y="971" on="1"/>
        <pt x="1849" y="971" on="1"/>
        <pt x="1849" y="113" on="1"/>
        <pt x="2136" y="113" on="1"/>
        <pt x="2136" y="0" on="1"/>
        <pt x="1438" y="0" on="1"/>
        <pt x="1438" y="113" on="1"/>
        <pt x="1724" y="113" on="1"/>
        <pt x="1724" y="666" on="1"/>
        <pt x="494" y="666" on="1"/>
        <pt x="494" y="113" on="1"/>
        <pt x="780" y="113" on="1"/>
        <pt x="780" y="0" on="1"/>
        <pt x="82" y="0" on="1"/>
        <pt x="82" y="113" on="1"/>
        <pt x="369" y="113" on="1"/>
        <pt x="369" y="971" on="1"/>
        <pt x="143" y="971" on="1"/>
        <pt x="143" y="1075" on="1"/>
        <pt x="369" y="1075" on="1"/>
        <pt x="369" y="1262" on="1"/>
        <pt x="82" y="1262" on="1"/>
      </contour>
      <contour>
        <pt x="1724" y="782" on="1"/>
        <pt x="1724" y="971" on="1"/>
        <pt x="494" y="971" on="1"/>
        <pt x="494" y="782" on="1"/>
      </contour>
    </TTGlyph>
    <TTGlyph name="Hcircumflex" xMin="82" yMin="0" xMax="2136" yMax="1800">
      <component glyphName="H" x="0" y="0" flags="0x204"/>
      <component glyphName="circumflex" x="569" y="403" flags="0x4"/>
    </TTGlyph>
    <TTGlyph name="I" xMin="82" yMin="0" xMax="780" yMax="1374">
      <contour>
        <pt x="82" y="1374" on="1"/>
        <pt x="780" y="1374" on="1"/>
        <pt x="780" y="1262" on="1"/>
        <pt x="494" y="1262" on="1"/>
        <pt x="494" y="113" on="1"/>
        <pt x="780" y="113" on="1"/>
        <pt x="780" y="0" on="1"/>
        <pt x="82" y="0" on="1"/>
        <pt x="82" y="113" on="1"/>
        <pt x="369" y="113" on="1"/>
        <pt x="369" y="1262" on="1"/>
        <pt x="82" y="1262" on="1"/>
      </contour>
    </TTGlyph>
    <TTGlyph name="IJ" xMin="82" yMin="-16" xMax="2302" yMax="1374">
      <component glyphName="I" x="0" y="0" flags="0x4"/>
      <component glyphName="J" x="862" y="0" flags="0x4"/>
    </TTGlyph>
    <TTGlyph name="Iacute" xMin="82" yMin="0" xMax="785" yMax="1798">
      <component glyphName="I" x="0" y="0" flags="0x204"/>
      <component glyphName="acute" x="-110" y="403" flags="0x4"/>
    </TTGlyph>
    <TTGlyph name="Ibreve" xMin="82" yMin="0" xMax="780" yMax="1753">
      <component glyphName="I" x="0" y="0" flags="0x204"/>
      <component glyphName="breve" x="-110" y="403" flags="0x4"/>
    </TTGlyph>
    <TTGlyph name="Icircumflex" xMin="44" yMin="0" xMax="818" yMax="1800">
      <component glyphName="I" x="0" y="0" flags="0x204"/>
      <component glyphName="circumflex" x="-110" y="403" flags="0x4"/>
    </TTGlyph>
    <TTGlyph name="Idieresis" xMin="82" yMin="0" xMax="780" yMax="1697">
      <component glyphName="I" x="0" y="0" flags="0x204"/>
      <component glyphName="dieresis" x="-110" y="403" flags="0x4"/>
    </TTGlyph>
    <TTGlyph name="Idotaccent" xMin="82" yMin="0" xMax="780" yMax="1708">
      <component glyphName="I" x="0" y="0" flags="0x204"/>
      <component glyphName="dotaccent" x="-110" y="403" flags="0x4"/>
    </TTGlyph>
    <TTGlyph name="Igrave" xMin="76" yMin="0" xMax="780" yMax="1798">
      <component glyphName="I" x="0" y="0" flags="0x204"/>
      <component glyphName="grave" x="-110" y="403" flags="0x4"/>
    </TTGlyph>
    <TTGlyph name="Imacron" xMin="82" yMin="0" xMax="780" yMax="1646">
      <component glyphName="I" x="0" y="0" flags="0x204"/>
      <component glyphName="macron" x="-110" y="403" flags="0x4"/>
    </TTGlyph>
    <TTGlyph name="Iogonek" xMin="82" yMin="-356" xMax="780" yMax="1374">
      <contour>
        <pt x="82" y="1374" on="1"/>
        <pt x="780" y="1374" on="1"/>
        <pt x="780" y="1262" on="1"/>
        <pt x="494" y="1262" on="1"/>
        <pt x="494" y="113" on="1"/>
        <pt x="780" y="113" on="1"/>
        <pt x="780" y="0" on="1"/>
        <pt x="471" y="0" on="1"/>
        <pt x="442" y="-19" on="0"/>
        <pt x="386" y="-63" on="0"/>
        <pt x="342" y="-110" on="0"/>
        <pt x="315" y="-158" on="0"/>
        <pt x="315" y="-182" on="1"/>
        <pt x="315" y="-224" on="0"/>
        <pt x="383" y="-262" on="0"/>
        <pt x="446" y="-262" on="1"/>
        <pt x="488" y="-262" on="0"/>
        <pt x="572" y="-241" on="0"/>
        <pt x="600" y="-227" on="1"/>
        <pt x="637" y="-317" on="1"/>
        <pt x="620" y="-326" on="0"/>
        <pt x="574" y="-340" on="0"/>
        <pt x="520" y="-350" on="0"/>
        <pt x="462" y="-356" on="0"/>
        <pt x="434" y="-356" on="1"/>
        <pt x="323" y="-356" on="0"/>
        <pt x="201" y="-285" on="0"/>
        <pt x="201" y="-205" on="1"/>
        <pt x="201" y="-146" on="0"/>
        <pt x="278" y="-46" on="0"/>
        <pt x="356" y="0" on="1"/>
        <pt x="82" y="0" on="1"/>
        <pt x="82" y="113" on="1"/>
        <pt x="369" y="113" on="1"/>
        <pt x="369" y="1262" on="1"/>
        <pt x="82" y="1262" on="1"/>
      </contour>
    </TTGlyph>
    <TTGlyph name="Itilde" xMin="80" yMin="0" xMax="785" yMax="1738">
      <component glyphName="I" x="0" y="0" flags="0x204"/>
      <component glyphName="tilde" x="-108" y="403" flags="0x4"/>
    </TTGlyph>
    <TTGlyph name="J" xMin="82" yMin="-16" xMax="1440" yMax="1374">
      <contour>
        <pt x="721" y="1374" on="1"/>
        <pt x="1440" y="1374" on="1"/>
        <pt x="1440" y="1262" on="1"/>
        <pt x="1153" y="1262" on="1"/>
        <pt x="1153" y="440" on="1"/>
        <pt x="1153" y="326" on="0"/>
        <pt x="1074" y="155" on="0"/>
        <pt x="932" y="41" on="0"/>
        <pt x="733" y="-16" on="0"/>
        <pt x="612" y="-16" on="1"/>
        <pt x="492" y="-16" on="0"/>
        <pt x="296" y="39" on="0"/>
        <pt x="157" y="150" on="0"/>
        <pt x="82" y="320" on="0"/>
        <pt x="82" y="434" on="1"/>
        <pt x="207" y="434" on="1"/>
        <pt x="212" y="264" on="0"/>
        <pt x="416" y="98" on="0"/>
        <pt x="614" y="98" on="1"/>
        <pt x="708" y="98" on="0"/>
        <pt x="861" y="137" on="0"/>
        <pt x="969" y="222" on="0"/>
        <pt x="1028" y="357" on="0"/>
        <pt x="1028" y="453" on="1"/>
        <pt x="1028" y="1262" on="1"/>
        <pt x="721" y="1262" on="1"/>
      </contour>
    </TTGlyph>
    <TTGlyph name="Jcircumflex" xMin="82" yMin="-16" xMax="1479" yMax="1800">
      <component glyphName="J" x="0" y="0" flags="0x204"/>
      <component glyphName="circumflex" x="551" y="403" flags="0x4"/>
    </TTGlyph>
    <TTGlyph name="K" xMin="82" yMin="0" xMax="1886" yMax="1374">
      <contour>
        <pt x="82" y="1374" on="1"/>
        <pt x="780" y="1374" on="1"/>
        <pt x="780" y="1262" on="1"/>
        <pt x="494" y="1262" on="1"/>
        <pt x="494" y="727" on="1"/>
        <pt x="1311" y="1262" on="1"/>
        <pt x="1151" y="1262" on="1"/>
        <pt x="1151" y="1374" on="1"/>
        <pt x="1829" y="1374" on="1"/>
        <pt x="1829" y="1262" on="1"/>
        <pt x="1503" y="1262" on="1"/>
        <pt x="774" y="784" on="1"/>
        <pt x="782" y="786" on="1"/>
        <pt x="1602" y="113" on="1"/>
        <pt x="1886" y="113" on="1"/>
        <pt x="1886" y="0" on="1"/>
        <pt x="1188" y="0" on="1"/>
        <pt x="1188" y="113" on="1"/>
        <pt x="1423" y="113" on="1"/>
        <pt x="680" y="723" on="1"/>
        <pt x="494" y="602" on="1"/>
        <pt x="494" y="113" on="1"/>
        <pt x="780" y="113" on="1"/>
        <pt x="780" y="0" on="1"/>
        <pt x="82" y="0" on="1"/>
        <pt x="82" y="113" on="1"/>
        <pt x="369" y="113" on="1"/>
        <pt x="369" y="1262" on="1"/>
        <pt x="82" y="1262" on="1"/>
      </contour>
    </TTGlyph>
    <TTGlyph name="Kcommaaccent" xMin="82" yMin="-416" xMax="1886" yMax="1374">
      <component glyphName="K" x="0" y="0" flags="0x204"/>
      <component glyphName="commaaccent" x="416" y="0" flags="0x4"/>
    </TTGlyph>
    <TTGlyph name="L" xMin="82" yMin="0" xMax="1602" yMax="1374">
      <contour>
        <pt x="82" y="1374" on="1"/>
        <pt x="780" y="1374" on="1"/>
        <pt x="780" y="1262" on="1"/>
        <pt x="494" y="1262" on="1"/>
        <pt x="494" y="117" on="1"/>
        <pt x="1489" y="117" on="1"/>
        <pt x="1489" y="432" on="1"/>
        <pt x="1602" y="432" on="1"/>
        <pt x="1602" y="0" on="1"/>
        <pt x="82" y="0" on="1"/>
        <pt x="82" y="113" on="1"/>
        <pt x="369" y="113" on="1"/>
        <pt x="369" y="1262" on="1"/>
        <pt x="82" y="1262" on="1"/>
      </contour>
    </TTGlyph>
    <TTGlyph name="Lacute" xMin="82" yMin="0" xMax="1602" yMax="1798">
      <component glyphName="L" x="0" y="0" flags="0x204"/>
      <component glyphName="acute" x="-110" y="403" flags="0x4"/>
    </TTGlyph>
    <TTGlyph name="Lcaron" xMin="82" yMin="0" xMax="1602" yMax="1374">
      <component glyphName="L" x="0" y="0" flags="0x204"/>
      <component glyphName="uni0315" x="1137" y="20" flags="0x4"/>
    </TTGlyph>
    <TTGlyph name="Lcommaaccent" xMin="82" yMin="-416" xMax="1602" yMax="1374">
      <component glyphName="L" x="0" y="0" flags="0x204"/>
      <component glyphName="commaaccent" x="344" y="0" flags="0x4"/>
    </TTGlyph>
    <TTGlyph name="Ldot" xMin="82" yMin="0" xMax="1602" yMax="1374">
      <component glyphName="L" x="0" y="0" flags="0x204"/>
      <component glyphName="periodcentered" x="989" y="0" flags="0x4"/>
    </TTGlyph>
    <TTGlyph name="Lslash" xMin="78" yMin="0" xMax="1602" yMax="1374">
      <contour>
        <pt x="494" y="575" on="1"/>
        <pt x="494" y="117" on="1"/>
        <pt x="1489" y="117" on="1"/>
        <pt x="1489" y="432" on="1"/>
        <pt x="1602" y="432" on="1"/>
        <pt x="1602" y="0" on="1"/>
        <pt x="82" y="0" on="1"/>
        <pt x="82" y="113" on="1"/>
        <pt x="369" y="113" on="1"/>
        <pt x="369" y="522" on="1"/>
        <pt x="121" y="418" on="1"/>
        <pt x="78" y="520" on="1"/>
        <pt x="369" y="643" on="1"/>
        <pt x="369" y="1262" on="1"/>
        <pt x="82" y="1262" on="1"/>
        <pt x="82" y="1374" on="1"/>
        <pt x="780" y="1374" on="1"/>
        <pt x="780" y="1262" on="1"/>
        <pt x="494" y="1262" on="1"/>
        <pt x="494" y="696" on="1"/>
        <pt x="834" y="842" on="1"/>
        <pt x="877" y="739" on="1"/>
      </contour>
    </TTGlyph>
    <TTGlyph name="M" xMin="82" yMin="0" xMax="2525" yMax="1374">
      <contour>
        <pt x="82" y="1374" on="1"/>
        <pt x="502" y="1374" on="1"/>
        <pt x="1309" y="129" on="1"/>
        <pt x="2103" y="1374" on="1"/>
        <pt x="2525" y="1374" on="1"/>
        <pt x="2525" y="1262" on="1"/>
        <pt x="2238" y="1262" on="1"/>
        <pt x="2238" y="113" on="1"/>
        <pt x="2525" y="113" on="1"/>
        <pt x="2525" y="0" on="1"/>
        <pt x="1827" y="0" on="1"/>
        <pt x="1827" y="113" on="1"/>
        <pt x="2114" y="113" on="1"/>
        <pt x="2114" y="1169" on="1"/>
        <pt x="1360" y="0" on="1"/>
        <pt x="1249" y="0" on="1"/>
        <pt x="494" y="1174" on="1"/>
        <pt x="494" y="113" on="1"/>
        <pt x="780" y="113" on="1"/>
        <pt x="780" y="0" on="1"/>
        <pt x="82" y="0" on="1"/>
        <pt x="82" y="113" on="1"/>
        <pt x="369" y="113" on="1"/>
        <pt x="369" y="1262" on="1"/>
        <pt x="82" y="1262" on="1"/>
      </contour>
    </TTGlyph>
    <TTGlyph name="N" xMin="82" yMin="0" xMax="2109" yMax="1374">
      <contour>
        <pt x="82" y="1374" on="1"/>
        <pt x="506" y="1374" on="1"/>
        <pt x="1698" y="160" on="1"/>
        <pt x="1698" y="1262" on="1"/>
        <pt x="1411" y="1262" on="1"/>
        <pt x="1411" y="1374" on="1"/>
        <pt x="2109" y="1374" on="1"/>
        <pt x="2109" y="1262" on="1"/>
        <pt x="1823" y="1262" on="1"/>
        <pt x="1823" y="0" on="1"/>
        <pt x="1686" y="0" on="1"/>
        <pt x="494" y="1210" on="1"/>
        <pt x="494" y="113" on="1"/>
        <pt x="780" y="113" on="1"/>
        <pt x="780" y="0" on="1"/>
        <pt x="82" y="0" on="1"/>
        <pt x="82" y="113" on="1"/>
        <pt x="369" y="113" on="1"/>
        <pt x="369" y="1262" on="1"/>
        <pt x="82" y="1262" on="1"/>
      </contour>
    </TTGlyph>
    <TTGlyph name="Nacute" xMin="82" yMin="0" xMax="2109" yMax="1798">
      <component glyphName="N" x="0" y="0" flags="0x204"/>
      <component glyphName="acute" x="498" y="403" flags="0x4"/>
    </TTGlyph>
    <TTGlyph name="Ncaron" xMin="82" yMin="0" xMax="2109" yMax="1798">
      <component glyphName="N" x="0" y="0" flags="0x204"/>
      <component glyphName="caron" x="498" y="403" flags="0x4"/>
    </TTGlyph>
    <TTGlyph name="Ncommaaccent" xMin="82" yMin="-416" xMax="2109" yMax="1374">
      <component glyphName="N" x="0" y="0" flags="0x204"/>
      <component glyphName="commaaccent" x="588" y="0" flags="0x4"/>
    </TTGlyph>
    <TTGlyph name="Ntilde" xMin="82" yMin="0" xMax="2109" yMax="1738">
      <component glyphName="N" x="0" y="0" flags="0x204"/>
      <component glyphName="tilde" x="500" y="403" flags="0x4"/>
    </TTGlyph>
    <TTGlyph name="O" xMin="135" yMin="-27" xMax="1880" yMax="1399">
      <contour>
        <pt x="1880" y="686" on="1"/>
        <pt x="1880" y="501" on="0"/>
        <pt x="1746" y="232" on="0"/>
        <pt x="1512" y="57" on="0"/>
        <pt x="1194" y="-27" on="0"/>
        <pt x="1010" y="-27" on="1"/>
        <pt x="825" y="-27" on="0"/>
        <pt x="505" y="57" on="0"/>
        <pt x="269" y="232" on="0"/>
        <pt x="135" y="501" on="0"/>
        <pt x="135" y="686" on="1"/>
        <pt x="135" y="809" on="0"/>
        <pt x="197" y="1010" on="0"/>
        <pt x="309" y="1169" on="0"/>
        <pt x="468" y="1285" on="0"/>
        <pt x="663" y="1362" on="0"/>
        <pt x="887" y="1399" on="0"/>
        <pt x="1010" y="1399" on="1"/>
        <pt x="1194" y="1399" on="0"/>
        <pt x="1512" y="1315" on="0"/>
        <pt x="1746" y="1140" on="0"/>
        <pt x="1880" y="871" on="0"/>
      </contour>
      <contour>
        <pt x="1743" y="686" on="1"/>
        <pt x="1743" y="978" on="0"/>
        <pt x="1375" y="1284" on="0"/>
        <pt x="1010" y="1284" on="1"/>
        <pt x="644" y="1284" on="0"/>
        <pt x="272" y="975" on="0"/>
        <pt x="272" y="686" on="1"/>
        <pt x="272" y="394" on="0"/>
        <pt x="644" y="88" on="0"/>
        <pt x="1010" y="88" on="1"/>
        <pt x="1375" y="88" on="0"/>
        <pt x="1743" y="394" on="0"/>
      </contour>
    </TTGlyph>
    <TTGlyph name="OE" xMin="135" yMin="0" xMax="2587" yMax="1374">
      <contour>
        <pt x="2460" y="963" on="1"/>
        <pt x="2460" y="1257" on="1"/>
        <pt x="1509" y="1257" on="1"/>
        <pt x="1509" y="784" on="1"/>
        <pt x="2232" y="784" on="1"/>
        <pt x="2232" y="668" on="1"/>
        <pt x="1509" y="668" on="1"/>
        <pt x="1509" y="117" on="1"/>
        <pt x="2474" y="117" on="1"/>
        <pt x="2474" y="432" on="1"/>
        <pt x="2587" y="432" on="1"/>
        <pt x="2587" y="0" on="1"/>
        <pt x="1030" y="0" on="1"/>
        <pt x="907" y="0" on="0"/>
        <pt x="678" y="36" on="0"/>
        <pt x="479" y="110" on="0"/>
        <pt x="316" y="222" on="0"/>
        <pt x="199" y="374" on="0"/>
        <pt x="135" y="568" on="0"/>
        <pt x="135" y="686" on="1"/>
        <pt x="135" y="804" on="0"/>
        <pt x="200" y="997" on="0"/>
        <pt x="317" y="1150" on="0"/>
        <pt x="481" y="1263" on="0"/>
        <pt x="680" y="1337" on="0"/>
        <pt x="908" y="1374" on="0"/>
        <pt x="1030" y="1374" on="1"/>
        <pt x="2572" y="1374" on="1"/>
        <pt x="2572" y="963" on="1"/>
      </contour>
      <contour>
        <pt x="272" y="686" on="1"/>
        <pt x="272" y="548" on="0"/>
        <pt x="372" y="335" on="0"/>
        <pt x="565" y="190" on="0"/>
        <pt x="847" y="115" on="0"/>
        <pt x="1030" y="115" on="1"/>
        <pt x="1384" y="115" on="1"/>
        <pt x="1384" y="1257" on="1"/>
        <pt x="1030" y="1257" on="1"/>
        <pt x="847" y="1257" on="0"/>
        <pt x="565" y="1181" on="0"/>
        <pt x="372" y="1036" on="0"/>
        <pt x="272" y="823" on="0"/>
      </contour>
    </TTGlyph>
    <TTGlyph name="Oacute" xMin="135" yMin="-27" xMax="1880" yMax="1798">
      <component glyphName="O" x="0" y="0" flags="0x204"/>
      <component glyphName="acute" x="469" y="403" flags="0x4"/>
    </TTGlyph>
    <TTGlyph name="Obreve" xMin="135" yMin="-27" xMax="1880" yMax="1753">
      <component glyphName="O" x="0" y="0" flags="0x204"/>
      <component glyphName="breve" x="469" y="403" flags="0x4"/>
    </TTGlyph>
    <TTGlyph name="Ocircumflex" xMin="135" yMin="-27" xMax="1880" yMax="1800">
      <component glyphName="O" x="0" y="0" flags="0x204"/>
      <component glyphName="circumflex" x="469" y="403" flags="0x4"/>
    </TTGlyph>
    <TTGlyph name="Odieresis" xMin="135" yMin="-27" xMax="1880" yMax="1697">
      <component glyphName="O" x="0" y="0" flags="0x204"/>
      <component glyphName="dieresis" x="469" y="403" flags="0x4"/>
    </TTGlyph>
    <TTGlyph name="Ograve" xMin="135" yMin="-27" xMax="1880" yMax="1798">
      <component glyphName="O" x="0" y="0" flags="0x204"/>
      <component glyphName="grave" x="469" y="403" flags="0x4"/>
    </TTGlyph>
    <TTGlyph name="Ohungarumlaut" xMin="135" yMin="-27" xMax="1880" yMax="1792">
      <component glyphName="O" x="0" y="0" flags="0x204"/>
      <component glyphName="hungarumlaut" x="469" y="403" flags="0x4"/>
    </TTGlyph>
    <TTGlyph name="Omacron" xMin="135" yMin="-27" xMax="1880" yMax="1646">
      <component glyphName="O" x="0" y="0" flags="0x204"/>
      <component glyphName="macron" x="469" y="403" flags="0x4"/>
    </TTGlyph>
    <TTGlyph name="Oslash" xMin="135" yMin="-182" xMax="1880" yMax="1554">
      <contour>
        <pt x="1880" y="686" on="1"/>
        <pt x="1880" y="501" on="0"/>
        <pt x="1746" y="232" on="0"/>
        <pt x="1512" y="57" on="0"/>
        <pt x="1194" y="-27" on="0"/>
        <pt x="1010" y="-27" on="1"/>
        <pt x="898" y="-27" on="0"/>
        <pt x="696" y="4" on="0"/>
        <pt x="606" y="33" on="1"/>
        <pt x="453" y="-182" on="1"/>
        <pt x="324" y="-182" on="1"/>
        <pt x="506" y="72" on="1"/>
        <pt x="421" y="112" on="0"/>
        <pt x="284" y="229" on="0"/>
        <pt x="187" y="382" on="0"/>
        <pt x="135" y="572" on="0"/>
        <pt x="135" y="686" on="1"/>
        <pt x="135" y="809" on="0"/>
        <pt x="197" y="1010" on="0"/>
        <pt x="309" y="1169" on="0"/>
        <pt x="468" y="1285" on="0"/>
        <pt x="663" y="1362" on="0"/>
        <pt x="887" y="1399" on="0"/>
        <pt x="1010" y="1399" on="1"/>
        <pt x="1233" y="1399" on="0"/>
        <pt x="1413" y="1337" on="1"/>
        <pt x="1569" y="1554" on="1"/>
        <pt x="1696" y="1554" on="1"/>
        <pt x="1511" y="1298" on="1"/>
        <pt x="1596" y="1257" on="0"/>
        <pt x="1732" y="1141" on="0"/>
        <pt x="1828" y="989" on="0"/>
        <pt x="1880" y="800" on="0"/>
      </contour>
      <contour>
        <pt x="272" y="686" on="1"/>
        <pt x="272" y="497" on="0"/>
        <pt x="424" y="239" on="0"/>
        <pt x="575" y="168" on="1"/>
        <pt x="1343" y="1241" on="1"/>
        <pt x="1272" y="1263" on="0"/>
        <pt x="1106" y="1284" on="0"/>
        <pt x="1010" y="1284" on="1"/>
        <pt x="644" y="1284" on="0"/>
        <pt x="272" y="975" on="0"/>
      </contour>
      <contour>
        <pt x="1743" y="686" on="1"/>
        <pt x="1743" y="1060" on="0"/>
        <pt x="1444" y="1202" on="1"/>
        <pt x="676" y="131" on="1"/>
        <pt x="747" y="109" on="0"/>
        <pt x="914" y="88" on="0"/>
        <pt x="1010" y="88" on="1"/>
        <pt x="1375" y="88" on="0"/>
        <pt x="1743" y="394" on="0"/>
      </contour>
    </TTGlyph>
    <TTGlyph name="Oslashacute" xMin="135" yMin="-182" xMax="1880" yMax="1798">
      <component glyphName="Oslash" x="0" y="0" flags="0x204"/>
      <component glyphName="acute" x="469" y="403" flags="0x4"/>
    </TTGlyph>
    <TTGlyph name="Otilde" xMin="135" yMin="-27" xMax="1880" yMax="1738">
      <component glyphName="O" x="0" y="0" flags="0x204"/>
      <component glyphName="tilde" x="471" y="403" flags="0x4"/>
    </TTGlyph>
    <TTGlyph name="P" xMin="82" yMin="0" xMax="1708" yMax="1374">
      <contour>
        <pt x="82" y="1374" on="1"/>
        <pt x="1110" y="1374" on="1"/>
        <pt x="1270" y="1374" on="0"/>
        <pt x="1497" y="1319" on="0"/>
        <pt x="1641" y="1213" on="0"/>
        <pt x="1708" y="1055" on="0"/>
        <pt x="1708" y="952" on="1"/>
        <pt x="1708" y="849" on="0"/>
        <pt x="1641" y="691" on="0"/>
        <pt x="1497" y="583" on="0"/>
        <pt x="1270" y="528" on="0"/>
        <pt x="1110" y="528" on="1"/>
        <pt x="494" y="528" on="1"/>
        <pt x="494" y="113" on="1"/>
        <pt x="780" y="113" on="1"/>
        <pt x="780" y="0" on="1"/>
        <pt x="82" y="0" on="1"/>
        <pt x="82" y="113" on="1"/>
        <pt x="369" y="113" on="1"/>
        <pt x="369" y="1262" on="1"/>
        <pt x="82" y="1262" on="1"/>
      </contour>
      <contour>
        <pt x="1571" y="952" on="1"/>
        <pt x="1571" y="1050" on="0"/>
        <pt x="1509" y="1170" on="0"/>
        <pt x="1377" y="1235" on="0"/>
        <pt x="1172" y="1257" on="0"/>
        <pt x="1030" y="1257" on="1"/>
        <pt x="494" y="1257" on="1"/>
        <pt x="494" y="645" on="1"/>
        <pt x="1030" y="645" on="1"/>
        <pt x="1085" y="645" on="0"/>
        <pt x="1208" y="644" on="0"/>
        <pt x="1329" y="657" on="0"/>
        <pt x="1438" y="690" on="0"/>
        <pt x="1522" y="758" on="0"/>
        <pt x="1571" y="868" on="0"/>
      </contour>
    </TTGlyph>
    <TTGlyph name="Q" xMin="135" yMin="-45" xMax="2003" yMax="1399">
      <contour>
        <pt x="1880" y="686" on="1"/>
        <pt x="1880" y="512" on="0"/>
        <pt x="1762" y="256" on="0"/>
        <pt x="1659" y="168" on="1"/>
        <pt x="1749" y="140" on="0"/>
        <pt x="1922" y="94" on="0"/>
        <pt x="2003" y="80" on="1"/>
        <pt x="1954" y="-45" on="1"/>
        <pt x="1857" y="-20" on="0"/>
        <pt x="1644" y="52" on="0"/>
        <pt x="1542" y="90" on="1"/>
        <pt x="1433" y="30" on="0"/>
        <pt x="1162" y="-27" on="0"/>
        <pt x="1010" y="-27" on="1"/>
        <pt x="825" y="-27" on="0"/>
        <pt x="505" y="57" on="0"/>
        <pt x="269" y="232" on="0"/>
        <pt x="135" y="501" on="0"/>
        <pt x="135" y="686" on="1"/>
        <pt x="135" y="809" on="0"/>
        <pt x="197" y="1010" on="0"/>
        <pt x="309" y="1169" on="0"/>
        <pt x="468" y="1285" on="0"/>
        <pt x="663" y="1362" on="0"/>
        <pt x="887" y="1399" on="0"/>
        <pt x="1010" y="1399" on="1"/>
        <pt x="1194" y="1399" on="0"/>
        <pt x="1512" y="1315" on="0"/>
        <pt x="1746" y="1140" on="0"/>
        <pt x="1880" y="871" on="0"/>
      </contour>
      <contour>
        <pt x="1751" y="686" on="1"/>
        <pt x="1751" y="832" on="0"/>
        <pt x="1656" y="1056" on="0"/>
        <pt x="1470" y="1209" on="0"/>
        <pt x="1193" y="1288" on="0"/>
        <pt x="1010" y="1288" on="1"/>
        <pt x="827" y="1288" on="0"/>
        <pt x="548" y="1208" on="0"/>
        <pt x="360" y="1055" on="0"/>
        <pt x="264" y="830" on="0"/>
        <pt x="264" y="686" on="1"/>
        <pt x="264" y="540" on="0"/>
        <pt x="360" y="316" on="0"/>
        <pt x="548" y="163" on="0"/>
        <pt x="827" y="84" on="0"/>
        <pt x="1010" y="84" on="1"/>
        <pt x="1240" y="84" on="0"/>
        <pt x="1399" y="145" on="1"/>
        <pt x="1338" y="170" on="0"/>
        <pt x="1236" y="213" on="0"/>
        <pt x="1198" y="230" on="1"/>
        <pt x="1154" y="249" on="0"/>
        <pt x="1118" y="266" on="1"/>
        <pt x="1167" y="367" on="1"/>
        <pt x="1248" y="326" on="0"/>
        <pt x="1431" y="248" on="0"/>
        <pt x="1530" y="213" on="1"/>
        <pt x="1639" y="290" on="0"/>
        <pt x="1751" y="527" on="0"/>
      </contour>
    </TTGlyph>
    <TTGlyph name="R" xMin="82" yMin="0" xMax="1972" yMax="1374">
      <contour>
        <pt x="1315" y="113" on="1"/>
        <pt x="1528" y="113" on="1"/>
        <pt x="1169" y="592" on="1"/>
        <pt x="1142" y="590" on="0"/>
        <pt x="1084" y="588" on="0"/>
        <pt x="1053" y="588" on="1"/>
        <pt x="494" y="588" on="1"/>
        <pt x="494" y="113" on="1"/>
        <pt x="780" y="113" on="1"/>
        <pt x="780" y="0" on="1"/>
        <pt x="82" y="0" on="1"/>
        <pt x="82" y="113" on="1"/>
        <pt x="369" y="113" on="1"/>
        <pt x="369" y="1262" on="1"/>
        <pt x="82" y="1262" on="1"/>
        <pt x="82" y="1374" on="1"/>
        <pt x="1053" y="1374" on="1"/>
        <pt x="1210" y="1374" on="0"/>
        <pt x="1434" y="1325" on="0"/>
        <pt x="1576" y="1226" on="0"/>
        <pt x="1642" y="1078" on="0"/>
        <pt x="1642" y="979" on="1"/>
        <pt x="1642" y="825" on="0"/>
        <pt x="1480" y="640" on="0"/>
        <pt x="1300" y="606" on="1"/>
        <pt x="1681" y="113" on="1"/>
        <pt x="1972" y="113" on="1"/>
        <pt x="1972" y="0" on="1"/>
        <pt x="1315" y="0" on="1"/>
      </contour>
      <contour>
        <pt x="1505" y="979" on="1"/>
        <pt x="1505" y="1067" on="0"/>
        <pt x="1446" y="1176" on="0"/>
        <pt x="1309" y="1236" on="0"/>
        <pt x="1085" y="1257" on="0"/>
        <pt x="920" y="1257" on="1"/>
        <pt x="494" y="1257" on="1"/>
        <pt x="494" y="705" on="1"/>
        <pt x="915" y="705" on="1"/>
        <pt x="1080" y="705" on="0"/>
        <pt x="1305" y="724" on="0"/>
        <pt x="1444" y="783" on="0"/>
        <pt x="1505" y="890" on="0"/>
      </contour>
    </TTGlyph>
    <TTGlyph name="Racute" xMin="82" yMin="0" xMax="1972" yMax="1798">
      <component glyphName="R" x="0" y="0" flags="0x204"/>
      <component glyphName="acute" x="346" y="403" flags="0x4"/>
    </TTGlyph>
    <TTGlyph name="Rcaron" xMin="82" yMin="0" xMax="1972" yMax="1798">
      <component glyphName="R" x="0" y="0" flags="0x204"/>
      <component glyphName="caron" x="346" y="403" flags="0x4"/>
    </TTGlyph>
    <TTGlyph name="Rcommaaccent" xMin="82" yMin="-416" xMax="1972" yMax="1374">
      <component glyphName="R" x="0" y="0" flags="0x204"/>
      <component glyphName="commaaccent" x="469" y="0" flags="0x4"/>
    </TTGlyph>
    <TTGlyph name="S" xMin="123" yMin="-27" xMax="1550" yMax="1399">
      <contour>
        <pt x="123" y="0" on="1"/>
        <pt x="123" y="494" on="1"/>
        <pt x="236" y="494" on="1"/>
        <pt x="236" y="352" on="1"/>
        <pt x="236" y="293" on="0"/>
        <pt x="295" y="208" on="0"/>
        <pt x="393" y="149" on="0"/>
        <pt x="520" y="113" on="0"/>
        <pt x="658" y="93" on="0"/>
        <pt x="795" y="86" on="0"/>
        <pt x="854" y="86" on="1"/>
        <pt x="972" y="86" on="0"/>
        <pt x="1176" y="112" on="0"/>
        <pt x="1327" y="172" on="0"/>
        <pt x="1413" y="269" on="0"/>
        <pt x="1413" y="340" on="1"/>
        <pt x="1413" y="402" on="0"/>
        <pt x="1342" y="491" on="0"/>
        <pt x="1219" y="556" on="0"/>
        <pt x="1056" y="601" on="0"/>
        <pt x="872" y="638" on="0"/>
        <pt x="678" y="673" on="0"/>
        <pt x="494" y="716" on="0"/>
        <pt x="331" y="774" on="0"/>
        <pt x="208" y="856" on="0"/>
        <pt x="137" y="969" on="0"/>
        <pt x="137" y="1047" on="1"/>
        <pt x="137" y="1116" on="0"/>
        <pt x="192" y="1223" on="0"/>
        <pt x="287" y="1301" on="0"/>
        <pt x="415" y="1354" on="0"/>
        <pt x="558" y="1385" on="0"/>
        <pt x="711" y="1399" on="0"/>
        <pt x="784" y="1399" on="1"/>
        <pt x="887" y="1399" on="0"/>
        <pt x="1066" y="1373" on="0"/>
        <pt x="1210" y="1332" on="0"/>
        <pt x="1314" y="1282" on="0"/>
        <pt x="1343" y="1257" on="1"/>
        <pt x="1343" y="1374" on="1"/>
        <pt x="1456" y="1374" on="1"/>
        <pt x="1456" y="942" on="1"/>
        <pt x="1343" y="942" on="1"/>
        <pt x="1343" y="1030" on="1"/>
        <pt x="1343" y="1085" on="0"/>
        <pt x="1272" y="1178" on="0"/>
        <pt x="1134" y="1247" on="0"/>
        <pt x="930" y="1286" on="0"/>
        <pt x="797" y="1286" on="1"/>
        <pt x="676" y="1286" on="0"/>
        <pt x="482" y="1259" on="0"/>
        <pt x="345" y="1202" on="0"/>
        <pt x="272" y="1113" on="0"/>
        <pt x="272" y="1051" on="1"/>
        <pt x="272" y="994" on="0"/>
        <pt x="344" y="913" on="0"/>
        <pt x="466" y="853" on="0"/>
        <pt x="630" y="809" on="0"/>
        <pt x="814" y="771" on="0"/>
        <pt x="1008" y="734" on="0"/>
        <pt x="1192" y="687" on="0"/>
        <pt x="1356" y="627" on="0"/>
        <pt x="1478" y="541" on="0"/>
        <pt x="1550" y="426" on="0"/>
        <pt x="1550" y="348" on="1"/>
        <pt x="1550" y="271" on="0"/>
        <pt x="1489" y="156" on="0"/>
        <pt x="1386" y="73" on="0"/>
        <pt x="1247" y="18" on="0"/>
        <pt x="1092" y="-14" on="0"/>
        <pt x="928" y="-27" on="0"/>
        <pt x="850" y="-27" on="1"/>
        <pt x="741" y="-27" on="0"/>
        <pt x="552" y="-6" on="0"/>
        <pt x="396" y="33" on="0"/>
        <pt x="276" y="85" on="0"/>
        <pt x="236" y="117" on="1"/>
        <pt x="236" y="0" on="1"/>
      </contour>
    </TTGlyph>
    <TTGlyph name="Sacute" xMin="123" yMin="-27" xMax="1550" yMax="1798">
      <component glyphName="S" x="0" y="0" flags="0x204"/>
      <component glyphName="acute" x="244" y="403" flags="0x4"/>
    </TTGlyph>
    <TTGlyph name="Scaron" xMin="123" yMin="-27" xMax="1550" yMax="1798">
      <component glyphName="S" x="0" y="0" flags="0x204"/>
      <component glyphName="caron" x="244" y="403" flags="0x4"/>
    </TTGlyph>
    <TTGlyph name="Scedilla" xMin="123" yMin="-401" xMax="1550" yMax="1399">
      <contour>
        <pt x="123" y="0" on="1"/>
        <pt x="123" y="494" on="1"/>
        <pt x="236" y="494" on="1"/>
        <pt x="236" y="352" on="1"/>
        <pt x="236" y="293" on="0"/>
        <pt x="295" y="208" on="0"/>
        <pt x="393" y="149" on="0"/>
        <pt x="520" y="113" on="0"/>
        <pt x="658" y="93" on="0"/>
        <pt x="795" y="86" on="0"/>
        <pt x="854" y="86" on="1"/>
        <pt x="972" y="86" on="0"/>
        <pt x="1176" y="112" on="0"/>
        <pt x="1327" y="172" on="0"/>
        <pt x="1413" y="269" on="0"/>
        <pt x="1413" y="340" on="1"/>
        <pt x="1413" y="402" on="0"/>
        <pt x="1342" y="491" on="0"/>
        <pt x="1219" y="556" on="0"/>
        <pt x="1056" y="601" on="0"/>
        <pt x="872" y="638" on="0"/>
        <pt x="678" y="673" on="0"/>
        <pt x="494" y="716" on="0"/>
        <pt x="331" y="774" on="0"/>
        <pt x="208" y="856" on="0"/>
        <pt x="137" y="969" on="0"/>
        <pt x="137" y="1047" on="1"/>
        <pt x="137" y="1116" on="0"/>
        <pt x="192" y="1223" on="0"/>
        <pt x="287" y="1301" on="0"/>
        <pt x="415" y="1354" on="0"/>
        <pt x="558" y="1385" on="0"/>
        <pt x="711" y="1399" on="0"/>
        <pt x="784" y="1399" on="1"/>
        <pt x="887" y="1399" on="0"/>
        <pt x="1066" y="1373" on="0"/>
        <pt x="1210" y="1332" on="0"/>
        <pt x="1314" y="1282" on="0"/>
        <pt x="1343" y="1257" on="1"/>
        <pt x="1343" y="1374" on="1"/>
        <pt x="1456" y="1374" on="1"/>
        <pt x="1456" y="942" on="1"/>
        <pt x="1343" y="942" on="1"/>
        <pt x="1343" y="1030" on="1"/>
        <pt x="1343" y="1085" on="0"/>
        <pt x="1272" y="1178" on="0"/>
        <pt x="1134" y="1247" on="0"/>
        <pt x="930" y="1286" on="0"/>
        <pt x="797" y="1286" on="1"/>
        <pt x="676" y="1286" on="0"/>
        <pt x="482" y="1259" on="0"/>
        <pt x="345" y="1202" on="0"/>
        <pt x="272" y="1113" on="0"/>
        <pt x="272" y="1051" on="1"/>
        <pt x="272" y="994" on="0"/>
        <pt x="344" y="913" on="0"/>
        <pt x="466" y="853" on="0"/>
        <pt x="630" y="809" on="0"/>
        <pt x="814" y="771" on="0"/>
        <pt x="1008" y="734" on="0"/>
        <pt x="1192" y="687" on="0"/>
        <pt x="1356" y="627" on="0"/>
        <pt x="1478" y="541" on="0"/>
        <pt x="1550" y="426" on="0"/>
        <pt x="1550" y="348" on="1"/>
        <pt x="1550" y="274" on="0"/>
        <pt x="1494" y="162" on="0"/>
        <pt x="1398" y="80" on="0"/>
        <pt x="1268" y="25" on="0"/>
        <pt x="1121" y="-9" on="0"/>
        <pt x="963" y="-25" on="0"/>
        <pt x="887" y="-27" on="1"/>
        <pt x="860" y="-98" on="1"/>
        <pt x="904" y="-98" on="0"/>
        <pt x="981" y="-112" on="0"/>
        <pt x="1038" y="-145" on="0"/>
        <pt x="1071" y="-200" on="0"/>
        <pt x="1071" y="-242" on="1"/>
        <pt x="1071" y="-287" on="0"/>
        <pt x="1034" y="-348" on="0"/>
        <pt x="968" y="-385" on="0"/>
        <pt x="876" y="-401" on="0"/>
        <pt x="821" y="-401" on="1"/>
        <pt x="740" y="-401" on="0"/>
        <pt x="629" y="-369" on="0"/>
        <pt x="592" y="-352" on="1"/>
        <pt x="635" y="-266" on="1"/>
        <pt x="670" y="-288" on="0"/>
        <pt x="753" y="-311" on="0"/>
        <pt x="813" y="-311" on="1"/>
        <pt x="855" y="-311" on="0"/>
        <pt x="913" y="-301" on="0"/>
        <pt x="948" y="-283" on="0"/>
        <pt x="963" y="-257" on="0"/>
        <pt x="963" y="-242" on="1"/>
        <pt x="963" y="-223" on="0"/>
        <pt x="943" y="-197" on="0"/>
        <pt x="909" y="-182" on="0"/>
        <pt x="866" y="-176" on="0"/>
        <pt x="842" y="-176" on="1"/>
        <pt x="816" y="-176" on="0"/>
        <pt x="762" y="-179" on="0"/>
        <pt x="739" y="-182" on="1"/>
        <pt x="797" y="-27" on="1"/>
        <pt x="597" y="-22" on="0"/>
        <pt x="311" y="57" on="0"/>
        <pt x="236" y="117" on="1"/>
        <pt x="236" y="0" on="1"/>
      </contour>
    </TTGlyph>
    <TTGlyph name="Scircumflex" xMin="123" yMin="-27" xMax="1550" yMax="1800">
      <component glyphName="S" x="0" y="0" flags="0x204"/>
      <component glyphName="circumflex" x="244" y="403" flags="0x4"/>
    </TTGlyph>
    <TTGlyph name="T" xMin="80" yMin="0" xMax="1577" yMax="1374">
      <contour>
        <pt x="80" y="881" on="1"/>
        <pt x="80" y="1374" on="1"/>
        <pt x="1577" y="1374" on="1"/>
        <pt x="1577" y="881" on="1"/>
        <pt x="1464" y="881" on="1"/>
        <pt x="1464" y="1260" on="1"/>
        <pt x="891" y="1260" on="1"/>
        <pt x="891" y="113" on="1"/>
        <pt x="1198" y="113" on="1"/>
        <pt x="1198" y="0" on="1"/>
        <pt x="459" y="0" on="1"/>
        <pt x="459" y="113" on="1"/>
        <pt x="766" y="113" on="1"/>
        <pt x="766" y="1260" on="1"/>
        <pt x="193" y="1260" on="1"/>
        <pt x="193" y="881" on="1"/>
      </contour>
    </TTGlyph>
    <TTGlyph name="Tbar" xMin="80" yMin="0" xMax="1577" yMax="1374">
      <contour>
        <pt x="766" y="791" on="1"/>
        <pt x="766" y="1260" on="1"/>
        <pt x="193" y="1260" on="1"/>
        <pt x="193" y="881" on="1"/>
        <pt x="80" y="881" on="1"/>
        <pt x="80" y="1374" on="1"/>
        <pt x="1577" y="1374" on="1"/>
        <pt x="1577" y="881" on="1"/>
        <pt x="1464" y="881" on="1"/>
        <pt x="1464" y="1260" on="1"/>
        <pt x="891" y="1260" on="1"/>
        <pt x="891" y="791" on="1"/>
        <pt x="1354" y="791" on="1"/>
        <pt x="1354" y="686" on="1"/>
        <pt x="891" y="686" on="1"/>
        <pt x="891" y="113" on="1"/>
        <pt x="1198" y="113" on="1"/>
        <pt x="1198" y="0" on="1"/>
        <pt x="459" y="0" on="1"/>
        <pt x="459" y="113" on="1"/>
        <pt x="766" y="113" on="1"/>
        <pt x="766" y="686" on="1"/>
        <pt x="301" y="686" on="1"/>
        <pt x="301" y="791" on="1"/>
      </contour>
    </TTGlyph>
    <TTGlyph name="Tcaron" xMin="80" yMin="0" xMax="1577" yMax="1798">
      <component glyphName="T" x="0" y="0" flags="0x204"/>
      <component glyphName="caron" x="287" y="403" flags="0x4"/>
    </TTGlyph>
    <TTGlyph name="Tcommaaccent" xMin="80" yMin="-416" xMax="1577" yMax="1374">
      <component glyphName="T" x="0" y="0" flags="0x204"/>
      <component glyphName="commaaccent" x="291" y="0" flags="0x4"/>
    </TTGlyph>
    <TTGlyph name="Thorn" xMin="82" yMin="0" xMax="1708" yMax="1374">
      <contour>
        <pt x="82" y="1374" on="1"/>
        <pt x="780" y="1374" on="1"/>
        <pt x="780" y="1262" on="1"/>
        <pt x="494" y="1262" on="1"/>
        <pt x="494" y="1130" on="1"/>
        <pt x="1110" y="1130" on="1"/>
        <pt x="1270" y="1130" on="0"/>
        <pt x="1497" y="1075" on="0"/>
        <pt x="1641" y="969" on="0"/>
        <pt x="1708" y="812" on="0"/>
        <pt x="1708" y="709" on="1"/>
        <pt x="1708" y="606" on="0"/>
        <pt x="1641" y="448" on="0"/>
        <pt x="1497" y="340" on="0"/>
        <pt x="1270" y="285" on="0"/>
        <pt x="1110" y="285" on="1"/>
        <pt x="494" y="285" on="1"/>
        <pt x="494" y="113" on="1"/>
        <pt x="780" y="113" on="1"/>
        <pt x="780" y="0" on="1"/>
        <pt x="82" y="0" on="1"/>
        <pt x="82" y="113" on="1"/>
        <pt x="369" y="113" on="1"/>
        <pt x="369" y="1262" on="1"/>
        <pt x="82" y="1262" on="1"/>
      </contour>
      <contour>
        <pt x="1571" y="709" on="1"/>
        <pt x="1571" y="807" on="0"/>
        <pt x="1509" y="927" on="0"/>
        <pt x="1377" y="992" on="0"/>
        <pt x="1172" y="1014" on="0"/>
        <pt x="1030" y="1014" on="1"/>
        <pt x="494" y="1014" on="1"/>
        <pt x="494" y="401" on="1"/>
        <pt x="1030" y="401" on="1"/>
        <pt x="1085" y="401" on="0"/>
        <pt x="1208" y="400" on="0"/>
        <pt x="1329" y="413" on="0"/>
        <pt x="1438" y="446" on="0"/>
        <pt x="1522" y="515" on="0"/>
        <pt x="1571" y="625" on="0"/>
      </contour>
    </TTGlyph>
    <TTGlyph name="U" xMin="20" yMin="-27" xMax="1980" yMax="1374">
      <contour>
        <pt x="20" y="1374" on="1"/>
        <pt x="719" y="1374" on="1"/>
        <pt x="719" y="1262" on="1"/>
        <pt x="432" y="1262" on="1"/>
        <pt x="432" y="422" on="1"/>
        <pt x="432" y="353" on="0"/>
        <pt x="505" y="230" on="0"/>
        <pt x="649" y="138" on="0"/>
        <pt x="861" y="84" on="0"/>
        <pt x="1001" y="84" on="1"/>
        <pt x="1140" y="84" on="0"/>
        <pt x="1352" y="138" on="0"/>
        <pt x="1496" y="230" on="0"/>
        <pt x="1569" y="353" on="0"/>
        <pt x="1569" y="422" on="1"/>
        <pt x="1569" y="1262" on="1"/>
        <pt x="1282" y="1262" on="1"/>
        <pt x="1282" y="1374" on="1"/>
        <pt x="1980" y="1374" on="1"/>
        <pt x="1980" y="1262" on="1"/>
        <pt x="1694" y="1262" on="1"/>
        <pt x="1694" y="432" on="1"/>
        <pt x="1694" y="329" on="0"/>
        <pt x="1607" y="160" on="0"/>
        <pt x="1434" y="39" on="0"/>
        <pt x="1174" y="-27" on="0"/>
        <pt x="1001" y="-27" on="1"/>
        <pt x="828" y="-27" on="0"/>
        <pt x="568" y="39" on="0"/>
        <pt x="394" y="160" on="0"/>
        <pt x="307" y="329" on="0"/>
        <pt x="307" y="432" on="1"/>
        <pt x="307" y="1262" on="1"/>
        <pt x="20" y="1262" on="1"/>
      </contour>
    </TTGlyph>
    <TTGlyph name="Uacute" xMin="20" yMin="-27" xMax="1980" yMax="1798">
      <component glyphName="U" x="0" y="0" flags="0x204"/>
      <component glyphName="acute" x="459" y="403" flags="0x4"/>
    </TTGlyph>
    <TTGlyph name="Ubreve" xMin="20" yMin="-27" xMax="1980" yMax="1753">
      <component glyphName="U" x="0" y="0" flags="0x204"/>
      <component glyphName="breve" x="459" y="403" flags="0x4"/>
    </TTGlyph>
    <TTGlyph name="Ucircumflex" xMin="20" yMin="-27" xMax="1980" yMax="1800">
      <component glyphName="U" x="0" y="0" flags="0x204"/>
      <component glyphName="circumflex" x="459" y="403" flags="0x4"/>
    </TTGlyph>
    <TTGlyph name="Udieresis" xMin="20" yMin="-27" xMax="1980" yMax="1697">
      <component glyphName="U" x="0" y="0" flags="0x204"/>
      <component glyphName="dieresis" x="459" y="403" flags="0x4"/>
    </TTGlyph>
    <TTGlyph name="Ugrave" xMin="20" yMin="-27" xMax="1980" yMax="1798">
      <component glyphName="U" x="0" y="0" flags="0x204"/>
      <component glyphName="grave" x="459" y="403" flags="0x4"/>
    </TTGlyph>
    <TTGlyph name="Uhungarumlaut" xMin="20" yMin="-27" xMax="1980" yMax="1792">
      <component glyphName="U" x="0" y="0" flags="0x204"/>
      <component glyphName="hungarumlaut" x="459" y="403" flags="0x4"/>
    </TTGlyph>
    <TTGlyph name="Umacron" xMin="20" yMin="-27" xMax="1980" yMax="1646">
      <component glyphName="U" x="0" y="0" flags="0x204"/>
      <component glyphName="macron" x="459" y="403" flags="0x4"/>
    </TTGlyph>
    <TTGlyph name="Uogonek" xMin="20" yMin="-356" xMax="1980" yMax="1374">
      <contour>
        <pt x="20" y="1374" on="1"/>
        <pt x="719" y="1374" on="1"/>
        <pt x="719" y="1262" on="1"/>
        <pt x="432" y="1262" on="1"/>
        <pt x="432" y="422" on="1"/>
        <pt x="432" y="353" on="0"/>
        <pt x="505" y="230" on="0"/>
        <pt x="649" y="138" on="0"/>
        <pt x="861" y="84" on="0"/>
        <pt x="1001" y="84" on="1"/>
        <pt x="1140" y="84" on="0"/>
        <pt x="1352" y="138" on="0"/>
        <pt x="1496" y="230" on="0"/>
        <pt x="1569" y="353" on="0"/>
        <pt x="1569" y="422" on="1"/>
        <pt x="1569" y="1262" on="1"/>
        <pt x="1282" y="1262" on="1"/>
        <pt x="1282" y="1374" on="1"/>
        <pt x="1980" y="1374" on="1"/>
        <pt x="1980" y="1262" on="1"/>
        <pt x="1694" y="1262" on="1"/>
        <pt x="1694" y="432" on="1"/>
        <pt x="1694" y="331" on="0"/>
        <pt x="1612" y="166" on="0"/>
        <pt x="1447" y="46" on="0"/>
        <pt x="1201" y="-23" on="0"/>
        <pt x="1036" y="-27" on="1"/>
        <pt x="1012" y="-45" on="0"/>
        <pt x="970" y="-83" on="0"/>
        <pt x="939" y="-122" on="0"/>
        <pt x="920" y="-162" on="0"/>
        <pt x="920" y="-182" on="1"/>
        <pt x="920" y="-224" on="0"/>
        <pt x="988" y="-262" on="0"/>
        <pt x="1051" y="-262" on="1"/>
        <pt x="1093" y="-262" on="0"/>
        <pt x="1176" y="-241" on="0"/>
        <pt x="1204" y="-227" on="1"/>
        <pt x="1241" y="-317" on="1"/>
        <pt x="1224" y="-326" on="0"/>
        <pt x="1178" y="-340" on="0"/>
        <pt x="1124" y="-350" on="0"/>
        <pt x="1066" y="-356" on="0"/>
        <pt x="1038" y="-356" on="1"/>
        <pt x="927" y="-356" on="0"/>
        <pt x="805" y="-285" on="0"/>
        <pt x="805" y="-205" on="1"/>
        <pt x="805" y="-105" on="0"/>
        <pt x="922" y="-25" on="1"/>
        <pt x="768" y="-17" on="0"/>
        <pt x="538" y="55" on="0"/>
        <pt x="384" y="174" on="0"/>
        <pt x="307" y="335" on="0"/>
        <pt x="307" y="432" on="1"/>
        <pt x="307" y="1262" on="1"/>
        <pt x="20" y="1262" on="1"/>
      </contour>
    </TTGlyph>
    <TTGlyph name="Uring" xMin="20" yMin="-27" xMax="1980" yMax="1853">
      <component glyphName="U" x="0" y="0" flags="0x204"/>
      <component glyphName="ring" x="459" y="403" flags="0x4"/>
    </TTGlyph>
    <TTGlyph name="Utilde" xMin="20" yMin="-27" xMax="1980" yMax="1738">
      <component glyphName="U" x="0" y="0" flags="0x204"/>
      <component glyphName="tilde" x="461" y="403" flags="0x4"/>
    </TTGlyph>
    <TTGlyph name="V" xMin="-41" yMin="0" xMax="1880" yMax="1374">
      <contour>
        <pt x="-41" y="1374" on="1"/>
        <pt x="657" y="1374" on="1"/>
        <pt x="657" y="1262" on="1"/>
        <pt x="350" y="1262" on="1"/>
        <pt x="920" y="86" on="1"/>
        <pt x="1487" y="1262" on="1"/>
        <pt x="1182" y="1262" on="1"/>
        <pt x="1182" y="1374" on="1"/>
        <pt x="1880" y="1374" on="1"/>
        <pt x="1880" y="1262" on="1"/>
        <pt x="1626" y="1262" on="1"/>
        <pt x="1010" y="0" on="1"/>
        <pt x="823" y="0" on="1"/>
        <pt x="211" y="1262" on="1"/>
        <pt x="-41" y="1262" on="1"/>
      </contour>
    </TTGlyph>
    <TTGlyph name="W" xMin="-41" yMin="0" xMax="2798" yMax="1374">
      <contour>
        <pt x="-41" y="1374" on="1"/>
        <pt x="657" y="1374" on="1"/>
        <pt x="657" y="1262" on="1"/>
        <pt x="342" y="1262" on="1"/>
        <pt x="805" y="100" on="1"/>
        <pt x="1294" y="1374" on="1"/>
        <pt x="1462" y="1374" on="1"/>
        <pt x="1952" y="100" on="1"/>
        <pt x="2415" y="1262" on="1"/>
        <pt x="2099" y="1262" on="1"/>
        <pt x="2099" y="1374" on="1"/>
        <pt x="2798" y="1374" on="1"/>
        <pt x="2798" y="1262" on="1"/>
        <pt x="2554" y="1262" on="1"/>
        <pt x="2046" y="0" on="1"/>
        <pt x="1860" y="0" on="1"/>
        <pt x="1378" y="1241" on="1"/>
        <pt x="897" y="0" on="1"/>
        <pt x="711" y="0" on="1"/>
        <pt x="203" y="1262" on="1"/>
        <pt x="-41" y="1262" on="1"/>
      </contour>
    </TTGlyph>
    <TTGlyph name="Wacute" xMin="-41" yMin="0" xMax="2798" yMax="1798">
      <component glyphName="W" x="0" y="0" flags="0x204"/>
      <component glyphName="acute" x="836" y="403" flags="0x4"/>
    </TTGlyph>
    <TTGlyph name="Wcircumflex" xMin="-41" yMin="0" xMax="2798" yMax="1800">
      <component glyphName="W" x="0" y="0" flags="0x204"/>
      <component glyphName="circumflex" x="836" y="403" flags="0x4"/>
    </TTGlyph>
    <TTGlyph name="Wdieresis" xMin="-41" yMin="0" xMax="2798" yMax="1697">
      <component glyphName="W" x="0" y="0" flags="0x204"/>
      <component glyphName="dieresis" x="836" y="403" flags="0x4"/>
    </TTGlyph>
    <TTGlyph name="Wgrave" xMin="-41" yMin="0" xMax="2798" yMax="1798">
      <component glyphName="W" x="0" y="0" flags="0x204"/>
      <component glyphName="grave" x="836" y="403" flags="0x4"/>
    </TTGlyph>
    <TTGlyph name="X" xMin="20" yMin="0" xMax="1829" yMax="1374">
      <contour>
        <pt x="1130" y="1374" on="1"/>
        <pt x="1808" y="1374" on="1"/>
        <pt x="1808" y="1262" on="1"/>
        <pt x="1534" y="1262" on="1"/>
        <pt x="1004" y="705" on="1"/>
        <pt x="1567" y="113" on="1"/>
        <pt x="1829" y="113" on="1"/>
        <pt x="1829" y="0" on="1"/>
        <pt x="1130" y="0" on="1"/>
        <pt x="1130" y="113" on="1"/>
        <pt x="1409" y="113" on="1"/>
        <pt x="924" y="621" on="1"/>
        <pt x="438" y="113" on="1"/>
        <pt x="719" y="113" on="1"/>
        <pt x="719" y="0" on="1"/>
        <pt x="20" y="0" on="1"/>
        <pt x="20" y="113" on="1"/>
        <pt x="281" y="113" on="1"/>
        <pt x="846" y="705" on="1"/>
        <pt x="313" y="1262" on="1"/>
        <pt x="41" y="1262" on="1"/>
        <pt x="41" y="1374" on="1"/>
        <pt x="719" y="1374" on="1"/>
        <pt x="719" y="1262" on="1"/>
        <pt x="471" y="1262" on="1"/>
        <pt x="924" y="786" on="1"/>
        <pt x="1376" y="1262" on="1"/>
        <pt x="1130" y="1262" on="1"/>
      </contour>
    </TTGlyph>
    <TTGlyph name="Y" xMin="0" yMin="0" xMax="1808" yMax="1374">
      <contour>
        <pt x="0" y="1374" on="1"/>
        <pt x="698" y="1374" on="1"/>
        <pt x="698" y="1262" on="1"/>
        <pt x="436" y="1262" on="1"/>
        <pt x="905" y="686" on="1"/>
        <pt x="1370" y="1262" on="1"/>
        <pt x="1110" y="1262" on="1"/>
        <pt x="1110" y="1374" on="1"/>
        <pt x="1808" y="1374" on="1"/>
        <pt x="1808" y="1262" on="1"/>
        <pt x="1520" y="1262" on="1"/>
        <pt x="967" y="582" on="1"/>
        <pt x="967" y="113" on="1"/>
        <pt x="1274" y="113" on="1"/>
        <pt x="1274" y="0" on="1"/>
        <pt x="535" y="0" on="1"/>
        <pt x="535" y="113" on="1"/>
        <pt x="842" y="113" on="1"/>
        <pt x="842" y="582" on="1"/>
        <pt x="289" y="1262" on="1"/>
        <pt x="0" y="1262" on="1"/>
      </contour>
    </TTGlyph>
    <TTGlyph name="Yacute" xMin="0" yMin="0" xMax="1808" yMax="1798">
      <component glyphName="Y" x="0" y="0" flags="0x204"/>
      <component glyphName="acute" x="365" y="403" flags="0x4"/>
    </TTGlyph>
    <TTGlyph name="Ycircumflex" xMin="0" yMin="0" xMax="1808" yMax="1800">
      <component glyphName="Y" x="0" y="0" flags="0x204"/>
      <component glyphName="circumflex" x="365" y="403" flags="0x4"/>
    </TTGlyph>
    <TTGlyph name="Ydieresis" xMin="0" yMin="0" xMax="1808" yMax="1697">
      <component glyphName="Y" x="0" y="0" flags="0x204"/>
      <component glyphName="dieresis" x="365" y="403" flags="0x4"/>
    </TTGlyph>
    <TTGlyph name="Ygrave" xMin="0" yMin="0" xMax="1808" yMax="1798">
      <component glyphName="Y" x="0" y="0" flags="0x204"/>
      <component glyphName="grave" x="365" y="403" flags="0x4"/>
    </TTGlyph>
    <TTGlyph name="Z" xMin="102" yMin="0" xMax="1405" yMax="1374">
      <contour>
        <pt x="154" y="963" on="1"/>
        <pt x="154" y="1374" on="1"/>
        <pt x="1391" y="1374" on="1"/>
        <pt x="1391" y="1307" on="1"/>
        <pt x="276" y="117" on="1"/>
        <pt x="1292" y="117" on="1"/>
        <pt x="1292" y="432" on="1"/>
        <pt x="1405" y="432" on="1"/>
        <pt x="1405" y="0" on="1"/>
        <pt x="102" y="0" on="1"/>
        <pt x="102" y="102" on="1"/>
        <pt x="1186" y="1257" on="1"/>
        <pt x="266" y="1257" on="1"/>
        <pt x="266" y="963" on="1"/>
      </contour>
    </TTGlyph>
    <TTGlyph name="Zacute" xMin="102" yMin="0" xMax="1405" yMax="1798">
      <component glyphName="Z" x="0" y="0" flags="0x204"/>
      <component glyphName="acute" x="207" y="403" flags="0x4"/>
    </TTGlyph>
    <TTGlyph name="Zcaron" xMin="102" yMin="0" xMax="1405" yMax="1798">
      <component glyphName="Z" x="0" y="0" flags="0x204"/>
      <component glyphName="caron" x="207" y="403" flags="0x4"/>
    </TTGlyph>
    <TTGlyph name="Zdotaccent" xMin="102" yMin="0" xMax="1405" yMax="1708">
      <component glyphName="Z" x="0" y="0" flags="0x204"/>
      <component glyphName="dotaccent" x="207" y="403" flags="0x4"/>
    </TTGlyph>
    <TTGlyph name="a" xMin="98" yMin="-27" xMax="1368" yMax="979">
      <contour>
        <pt x="1006" y="111" on="1"/>
        <pt x="960" y="88" on="0"/>
        <pt x="848" y="39" on="0"/>
        <pt x="718" y="-1" on="0"/>
        <pt x="572" y="-27" on="0"/>
        <pt x="492" y="-27" on="1"/>
        <pt x="402" y="-27" on="0"/>
        <pt x="256" y="9" on="0"/>
        <pt x="154" y="80" on="0"/>
        <pt x="98" y="185" on="0"/>
        <pt x="98" y="254" on="1"/>
        <pt x="98" y="361" on="0"/>
        <pt x="236" y="497" on="0"/>
        <pt x="479" y="578" on="0"/>
        <pt x="811" y="616" on="0"/>
        <pt x="1006" y="625" on="1"/>
        <pt x="1006" y="672" on="1"/>
        <pt x="1006" y="725" on="0"/>
        <pt x="948" y="801" on="0"/>
        <pt x="850" y="849" on="0"/>
        <pt x="721" y="872" on="0"/>
        <pt x="649" y="872" on="1"/>
        <pt x="565" y="872" on="0"/>
        <pt x="440" y="851" on="0"/>
        <pt x="354" y="810" on="0"/>
        <pt x="303" y="751" on="0"/>
        <pt x="291" y="713" on="1"/>
        <pt x="164" y="743" on="1"/>
        <pt x="196" y="855" on="0"/>
        <pt x="437" y="979" on="0"/>
        <pt x="645" y="979" on="1"/>
        <pt x="750" y="979" on="0"/>
        <pt x="928" y="943" on="0"/>
        <pt x="1057" y="865" on="0"/>
        <pt x="1130" y="740" on="0"/>
        <pt x="1130" y="651" on="1"/>
        <pt x="1130" y="113" on="1"/>
        <pt x="1368" y="113" on="1"/>
        <pt x="1368" y="0" on="1"/>
        <pt x="1006" y="0" on="1"/>
      </contour>
      <contour>
        <pt x="1006" y="520" on="1"/>
        <pt x="787" y="512" on="0"/>
        <pt x="487" y="471" on="0"/>
        <pt x="302" y="406" on="0"/>
        <pt x="221" y="317" on="0"/>
        <pt x="221" y="260" on="1"/>
        <pt x="221" y="172" on="0"/>
        <pt x="374" y="80" on="0"/>
        <pt x="522" y="80" on="1"/>
        <pt x="585" y="80" on="0"/>
        <pt x="728" y="108" on="0"/>
        <pt x="862" y="151" on="0"/>
        <pt x="974" y="205" on="0"/>
        <pt x="1006" y="231" on="1"/>
      </contour>
    </TTGlyph>
    <TTGlyph name="aacute" xMin="98" yMin="-27" xMax="1368" yMax="1395">
      <component glyphName="a" x="0" y="0" flags="0x204"/>
      <component glyphName="acute" x="113" y="0" flags="0x4"/>
    </TTGlyph>
    <TTGlyph name="abreve" xMin="98" yMin="-27" xMax="1368" yMax="1350">
      <component glyphName="a" x="0" y="0" flags="0x204"/>
      <component glyphName="breve" x="113" y="0" flags="0x4"/>
    </TTGlyph>
    <TTGlyph name="acircumflex" xMin="98" yMin="-27" xMax="1368" yMax="1397">
      <component glyphName="a" x="0" y="0" flags="0x204"/>
      <component glyphName="circumflex" x="113" y="0" flags="0x4"/>
    </TTGlyph>
    <TTGlyph name="acute" xMin="414" yMin="1098" xMax="895" yMax="1395">
      <contour>
        <pt x="895" y="1284" on="1"/>
        <pt x="455" y="1098" on="1"/>
        <pt x="414" y="1182" on="1"/>
        <pt x="842" y="1395" on="1"/>
      </contour>
    </TTGlyph>
    <TTGlyph name="adieresis" xMin="98" yMin="-27" xMax="1368" yMax="1294">
      <component glyphName="a" x="0" y="0" flags="0x204"/>
      <component glyphName="dieresis" x="113" y="0" flags="0x4"/>
    </TTGlyph>
    <TTGlyph name="ae" xMin="98" yMin="-27" xMax="2138" yMax="979">
      <contour>
        <pt x="1577" y="-25" on="1"/>
        <pt x="1418" y="-25" on="0"/>
        <pt x="1176" y="75" on="0"/>
        <pt x="1102" y="166" on="1"/>
        <pt x="1057" y="133" on="0"/>
        <pt x="937" y="64" on="0"/>
        <pt x="788" y="9" on="0"/>
        <pt x="612" y="-27" on="0"/>
        <pt x="512" y="-27" on="1"/>
        <pt x="414" y="-27" on="0"/>
        <pt x="261" y="9" on="0"/>
        <pt x="154" y="80" on="0"/>
        <pt x="98" y="185" on="0"/>
        <pt x="98" y="254" on="1"/>
        <pt x="98" y="361" on="0"/>
        <pt x="236" y="497" on="0"/>
        <pt x="479" y="578" on="0"/>
        <pt x="811" y="616" on="0"/>
        <pt x="1006" y="625" on="1"/>
        <pt x="1006" y="672" on="1"/>
        <pt x="1006" y="725" on="0"/>
        <pt x="948" y="801" on="0"/>
        <pt x="850" y="849" on="0"/>
        <pt x="721" y="872" on="0"/>
        <pt x="649" y="872" on="1"/>
        <pt x="565" y="872" on="0"/>
        <pt x="440" y="851" on="0"/>
        <pt x="354" y="810" on="0"/>
        <pt x="303" y="751" on="0"/>
        <pt x="291" y="713" on="1"/>
        <pt x="164" y="743" on="1"/>
        <pt x="196" y="855" on="0"/>
        <pt x="437" y="979" on="0"/>
        <pt x="645" y="979" on="1"/>
        <pt x="729" y="979" on="0"/>
        <pt x="878" y="956" on="0"/>
        <pt x="997" y="906" on="0"/>
        <pt x="1083" y="827" on="0"/>
        <pt x="1104" y="772" on="1"/>
        <pt x="1181" y="866" on="0"/>
        <pt x="1424" y="973" on="0"/>
        <pt x="1579" y="973" on="1"/>
        <pt x="1710" y="973" on="0"/>
        <pt x="1918" y="899" on="0"/>
        <pt x="2062" y="760" on="0"/>
        <pt x="2138" y="562" on="0"/>
        <pt x="2138" y="438" on="1"/>
        <pt x="2138" y="416" on="1"/>
        <pt x="1130" y="416" on="1"/>
        <pt x="1137" y="340" on="0"/>
        <pt x="1203" y="218" on="0"/>
        <pt x="1316" y="132" on="0"/>
        <pt x="1476" y="86" on="0"/>
        <pt x="1577" y="86" on="1"/>
        <pt x="1675" y="86" on="0"/>
        <pt x="1820" y="118" on="0"/>
        <pt x="1921" y="172" on="0"/>
        <pt x="1984" y="240" on="0"/>
        <pt x="2001" y="276" on="1"/>
        <pt x="2126" y="276" on="1"/>
        <pt x="2067" y="124" on="0"/>
        <pt x="1784" y="-25" on="0"/>
      </contour>
      <contour>
        <pt x="522" y="80" on="1"/>
        <pt x="610" y="80" on="0"/>
        <pt x="770" y="113" on="0"/>
        <pt x="907" y="164" on="0"/>
        <pt x="1014" y="224" on="0"/>
        <pt x="1049" y="250" on="1"/>
        <pt x="1026" y="299" on="0"/>
        <pt x="1001" y="409" on="0"/>
        <pt x="1001" y="471" on="1"/>
        <pt x="1001" y="483" on="0"/>
        <pt x="1002" y="508" on="0"/>
        <pt x="1004" y="520" on="1"/>
        <pt x="786" y="512" on="0"/>
        <pt x="486" y="471" on="0"/>
        <pt x="302" y="406" on="0"/>
        <pt x="221" y="317" on="0"/>
        <pt x="221" y="260" on="1"/>
        <pt x="221" y="172" on="0"/>
        <pt x="374" y="80" on="0"/>
      </contour>
      <contour>
        <pt x="2009" y="524" on="1"/>
        <pt x="2004" y="592" on="0"/>
        <pt x="1953" y="714" on="0"/>
        <pt x="1851" y="807" on="0"/>
        <pt x="1694" y="862" on="0"/>
        <pt x="1583" y="862" on="1"/>
        <pt x="1479" y="862" on="0"/>
        <pt x="1319" y="807" on="0"/>
        <pt x="1205" y="714" on="0"/>
        <pt x="1139" y="592" on="0"/>
        <pt x="1130" y="524" on="1"/>
      </contour>
    </TTGlyph>
    <TTGlyph name="aeacute" xMin="98" yMin="-27" xMax="2138" yMax="1395">
      <component glyphName="ae" x="0" y="0" flags="0x204"/>
      <component glyphName="acute" x="606" y="0" flags="0x4"/>
    </TTGlyph>
    <TTGlyph name="agrave" xMin="98" yMin="-27" xMax="1368" yMax="1395">
      <component glyphName="a" x="0" y="0" flags="0x204"/>
      <component glyphName="grave" x="113" y="0" flags="0x4"/>
    </TTGlyph>
    <TTGlyph name="amacron" xMin="98" yMin="-27" xMax="1368" yMax="1243">
      <component glyphName="a" x="0" y="0" flags="0x204"/>
      <component glyphName="macron" x="113" y="0" flags="0x4"/>
    </TTGlyph>
    <TTGlyph name="ampersand" xMin="158" yMin="-27" xMax="1991" yMax="1399">
      <contour>
        <pt x="1268" y="713" on="1"/>
        <pt x="1946" y="713" on="1"/>
        <pt x="1946" y="600" on="1"/>
        <pt x="1679" y="600" on="1"/>
        <pt x="1659" y="461" on="0"/>
        <pt x="1493" y="233" on="0"/>
        <pt x="1368" y="150" on="1"/>
        <pt x="1433" y="117" on="0"/>
        <pt x="1550" y="86" on="0"/>
        <pt x="1612" y="86" on="1"/>
        <pt x="1679" y="86" on="0"/>
        <pt x="1775" y="118" on="0"/>
        <pt x="1838" y="178" on="0"/>
        <pt x="1871" y="262" on="0"/>
        <pt x="1876" y="313" on="1"/>
        <pt x="1991" y="313" on="1"/>
        <pt x="1975" y="156" on="0"/>
        <pt x="1784" y="-18" on="0"/>
        <pt x="1614" y="-18" on="1"/>
        <pt x="1523" y="-18" on="0"/>
        <pt x="1348" y="33" on="0"/>
        <pt x="1255" y="86" on="1"/>
        <pt x="1146" y="32" on="0"/>
        <pt x="901" y="-27" on="0"/>
        <pt x="774" y="-27" on="1"/>
        <pt x="654" y="-27" on="0"/>
        <pt x="431" y="17" on="0"/>
        <pt x="260" y="108" on="0"/>
        <pt x="158" y="251" on="0"/>
        <pt x="158" y="350" on="1"/>
        <pt x="158" y="413" on="0"/>
        <pt x="217" y="522" on="0"/>
        <pt x="318" y="617" on="0"/>
        <pt x="450" y="701" on="0"/>
        <pt x="524" y="739" on="1"/>
        <pt x="452" y="839" on="0"/>
        <pt x="369" y="1023" on="0"/>
        <pt x="369" y="1096" on="1"/>
        <pt x="369" y="1172" on="0"/>
        <pt x="443" y="1286" on="0"/>
        <pt x="570" y="1362" on="0"/>
        <pt x="741" y="1399" on="0"/>
        <pt x="838" y="1399" on="1"/>
        <pt x="922" y="1399" on="0"/>
        <pt x="1067" y="1364" on="0"/>
        <pt x="1175" y="1301" on="0"/>
        <pt x="1237" y="1210" on="0"/>
        <pt x="1237" y="1155" on="1"/>
        <pt x="1237" y="1105" on="0"/>
        <pt x="1192" y="1017" on="0"/>
        <pt x="1114" y="940" on="0"/>
        <pt x="1008" y="870" on="0"/>
        <pt x="887" y="805" on="0"/>
        <pt x="755" y="744" on="0"/>
        <pt x="690" y="713" on="1"/>
        <pt x="748" y="643" on="0"/>
        <pt x="887" y="503" on="0"/>
        <pt x="1037" y="372" on="0"/>
        <pt x="1191" y="256" on="0"/>
        <pt x="1266" y="209" on="1"/>
        <pt x="1323" y="243" on="0"/>
        <pt x="1421" y="327" on="0"/>
        <pt x="1499" y="425" on="0"/>
        <pt x="1551" y="538" on="0"/>
        <pt x="1561" y="600" on="1"/>
        <pt x="1268" y="600" on="1"/>
      </contour>
      <contour>
        <pt x="797" y="78" on="1"/>
        <pt x="883" y="78" on="0"/>
        <pt x="1064" y="114" on="0"/>
        <pt x="1151" y="152" on="1"/>
        <pt x="1073" y="203" on="0"/>
        <pt x="918" y="323" on="0"/>
        <pt x="773" y="454" on="0"/>
        <pt x="641" y="591" on="0"/>
        <pt x="586" y="659" on="1"/>
        <pt x="522" y="627" on="0"/>
        <pt x="411" y="558" on="0"/>
        <pt x="328" y="483" on="0"/>
        <pt x="281" y="398" on="0"/>
        <pt x="281" y="350" on="1"/>
        <pt x="281" y="299" on="0"/>
        <pt x="340" y="201" on="0"/>
        <pt x="465" y="124" on="0"/>
        <pt x="660" y="78" on="0"/>
      </contour>
      <contour>
        <pt x="492" y="1096" on="1"/>
        <pt x="492" y="1033" on="0"/>
        <pt x="566" y="876" on="0"/>
        <pt x="629" y="791" on="1"/>
        <pt x="719" y="834" on="0"/>
        <pt x="894" y="918" on="0"/>
        <pt x="1030" y="1003" on="0"/>
        <pt x="1114" y="1095" on="0"/>
        <pt x="1114" y="1147" on="1"/>
        <pt x="1114" y="1174" on="0"/>
        <pt x="1088" y="1227" on="0"/>
        <pt x="1025" y="1268" on="0"/>
        <pt x="922" y="1294" on="0"/>
        <pt x="844" y="1294" on="1"/>
        <pt x="768" y="1294" on="0"/>
        <pt x="639" y="1271" on="0"/>
        <pt x="545" y="1223" on="0"/>
        <pt x="492" y="1148" on="0"/>
      </contour>
    </TTGlyph>
    <TTGlyph name="aogonek" xMin="98" yMin="-356" xMax="1389" yMax="979">
      <contour>
        <pt x="1006" y="111" on="1"/>
        <pt x="960" y="88" on="0"/>
        <pt x="848" y="39" on="0"/>
        <pt x="718" y="-1" on="0"/>
        <pt x="572" y="-27" on="0"/>
        <pt x="492" y="-27" on="1"/>
        <pt x="402" y="-27" on="0"/>
        <pt x="256" y="9" on="0"/>
        <pt x="154" y="80" on="0"/>
        <pt x="98" y="185" on="0"/>
        <pt x="98" y="254" on="1"/>
        <pt x="98" y="361" on="0"/>
        <pt x="236" y="497" on="0"/>
        <pt x="479" y="578" on="0"/>
        <pt x="811" y="616" on="0"/>
        <pt x="1006" y="625" on="1"/>
        <pt x="1006" y="672" on="1"/>
        <pt x="1006" y="725" on="0"/>
        <pt x="948" y="801" on="0"/>
        <pt x="850" y="849" on="0"/>
        <pt x="721" y="872" on="0"/>
        <pt x="649" y="872" on="1"/>
        <pt x="565" y="872" on="0"/>
        <pt x="440" y="851" on="0"/>
        <pt x="354" y="810" on="0"/>
        <pt x="303" y="751" on="0"/>
        <pt x="291" y="713" on="1"/>
        <pt x="164" y="743" on="1"/>
        <pt x="196" y="855" on="0"/>
        <pt x="437" y="979" on="0"/>
        <pt x="645" y="979" on="1"/>
        <pt x="750" y="979" on="0"/>
        <pt x="928" y="943" on="0"/>
        <pt x="1057" y="865" on="0"/>
        <pt x="1130" y="740" on="0"/>
        <pt x="1130" y="651" on="1"/>
        <pt x="1130" y="113" on="1"/>
        <pt x="1368" y="113" on="1"/>
        <pt x="1368" y="0" on="1"/>
        <pt x="1290" y="-5" on="0"/>
        <pt x="1176" y="-46" on="0"/>
        <pt x="1102" y="-100" on="0"/>
        <pt x="1067" y="-158" on="0"/>
        <pt x="1067" y="-182" on="1"/>
        <pt x="1067" y="-224" on="0"/>
        <pt x="1135" y="-262" on="0"/>
        <pt x="1198" y="-262" on="1"/>
        <pt x="1240" y="-262" on="0"/>
        <pt x="1324" y="-241" on="0"/>
        <pt x="1352" y="-227" on="1"/>
        <pt x="1389" y="-317" on="1"/>
        <pt x="1354" y="-334" on="0"/>
        <pt x="1243" y="-356" on="0"/>
        <pt x="1186" y="-356" on="1"/>
        <pt x="1074" y="-356" on="0"/>
        <pt x="952" y="-285" on="0"/>
        <pt x="952" y="-205" on="1"/>
        <pt x="952" y="-146" on="0"/>
        <pt x="1035" y="-40" on="0"/>
        <pt x="1124" y="0" on="1"/>
        <pt x="1006" y="0" on="1"/>
      </contour>
      <contour>
        <pt x="1006" y="520" on="1"/>
        <pt x="787" y="512" on="0"/>
        <pt x="487" y="471" on="0"/>
        <pt x="302" y="406" on="0"/>
        <pt x="221" y="317" on="0"/>
        <pt x="221" y="260" on="1"/>
        <pt x="221" y="172" on="0"/>
        <pt x="374" y="80" on="0"/>
        <pt x="522" y="80" on="1"/>
        <pt x="585" y="80" on="0"/>
        <pt x="728" y="108" on="0"/>
        <pt x="862" y="151" on="0"/>
        <pt x="974" y="205" on="0"/>
        <pt x="1006" y="231" on="1"/>
      </contour>
    </TTGlyph>
    <TTGlyph name="approxequal" xMin="156" yMin="428" xMax="1145" yMax="1001">
      <contour>
        <pt x="1145" y="532" on="1"/>
        <pt x="1103" y="489" on="0"/>
        <pt x="985" y="432" on="0"/>
        <pt x="903" y="432" on="1"/>
        <pt x="841" y="432" on="0"/>
        <pt x="713" y="466" on="0"/>
        <pt x="582" y="507" on="0"/>
        <pt x="451" y="541" on="0"/>
        <pt x="387" y="541" on="1"/>
        <pt x="352" y="541" on="0"/>
        <pt x="286" y="521" on="0"/>
        <pt x="226" y="488" on="0"/>
        <pt x="175" y="448" on="0"/>
        <pt x="156" y="428" on="1"/>
        <pt x="156" y="547" on="1"/>
        <pt x="177" y="568" on="0"/>
        <pt x="232" y="606" on="0"/>
        <pt x="293" y="633" on="0"/>
        <pt x="360" y="649" on="0"/>
        <pt x="395" y="649" on="1"/>
        <pt x="456" y="649" on="0"/>
        <pt x="586" y="615" on="0"/>
        <pt x="718" y="573" on="0"/>
        <pt x="849" y="539" on="0"/>
        <pt x="913" y="539" on="1"/>
        <pt x="948" y="539" on="0"/>
        <pt x="1015" y="559" on="0"/>
        <pt x="1075" y="592" on="0"/>
        <pt x="1126" y="632" on="0"/>
        <pt x="1145" y="653" on="1"/>
      </contour>
      <contour>
        <pt x="1145" y="881" on="1"/>
        <pt x="1103" y="839" on="0"/>
        <pt x="985" y="780" on="0"/>
        <pt x="903" y="780" on="1"/>
        <pt x="841" y="780" on="0"/>
        <pt x="713" y="814" on="0"/>
        <pt x="582" y="855" on="0"/>
        <pt x="451" y="889" on="0"/>
        <pt x="387" y="889" on="1"/>
        <pt x="352" y="889" on="0"/>
        <pt x="286" y="869" on="0"/>
        <pt x="226" y="836" on="0"/>
        <pt x="175" y="796" on="0"/>
        <pt x="156" y="776" on="1"/>
        <pt x="156" y="895" on="1"/>
        <pt x="177" y="916" on="0"/>
        <pt x="232" y="954" on="0"/>
        <pt x="293" y="981" on="0"/>
        <pt x="360" y="997" on="0"/>
        <pt x="395" y="997" on="1"/>
        <pt x="456" y="997" on="0"/>
        <pt x="586" y="963" on="0"/>
        <pt x="718" y="921" on="0"/>
        <pt x="849" y="887" on="0"/>
        <pt x="913" y="887" on="1"/>
        <pt x="948" y="887" on="0"/>
        <pt x="1015" y="907" on="0"/>
        <pt x="1075" y="940" on="0"/>
        <pt x="1126" y="980" on="0"/>
        <pt x="1145" y="1001" on="1"/>
      </contour>
    </TTGlyph>
    <TTGlyph name="aring" xMin="98" yMin="-27" xMax="1368" yMax="1450">
      <component glyphName="a" x="0" y="0" flags="0x204"/>
      <component glyphName="ring" x="113" y="0" flags="0x4"/>
    </TTGlyph>
    <TTGlyph name="asciicircum" xMin="61" yMin="784" xMax="881" yMax="1374">
      <contour>
        <pt x="748" y="784" on="1"/>
        <pt x="471" y="1278" on="1"/>
        <pt x="195" y="784" on="1"/>
        <pt x="61" y="784" on="1"/>
        <pt x="403" y="1374" on="1"/>
        <pt x="539" y="1374" on="1"/>
        <pt x="881" y="784" on="1"/>
      </contour>
    </TTGlyph>
    <TTGlyph name="asciitilde" xMin="156" yMin="573" xMax="1145" yMax="799">
      <contour>
        <pt x="1145" y="678" on="1"/>
        <pt x="1103" y="636" on="0"/>
        <pt x="984" y="578" on="0"/>
        <pt x="903" y="578" on="1"/>
        <pt x="841" y="578" on="0"/>
        <pt x="713" y="612" on="0"/>
        <pt x="582" y="652" on="0"/>
        <pt x="451" y="686" on="0"/>
        <pt x="387" y="686" on="1"/>
        <pt x="352" y="686" on="0"/>
        <pt x="286" y="666" on="0"/>
        <pt x="226" y="634" on="0"/>
        <pt x="175" y="593" on="0"/>
        <pt x="156" y="573" on="1"/>
        <pt x="156" y="692" on="1"/>
        <pt x="177" y="714" on="0"/>
        <pt x="231" y="751" on="0"/>
        <pt x="294" y="779" on="0"/>
        <pt x="361" y="795" on="0"/>
        <pt x="395" y="795" on="1"/>
        <pt x="456" y="795" on="0"/>
        <pt x="586" y="760" on="0"/>
        <pt x="718" y="719" on="0"/>
        <pt x="849" y="684" on="0"/>
        <pt x="913" y="684" on="1"/>
        <pt x="948" y="684" on="0"/>
        <pt x="1014" y="704" on="0"/>
        <pt x="1074" y="737" on="0"/>
        <pt x="1125" y="778" on="0"/>
        <pt x="1145" y="799" on="1"/>
        <pt x="1145" y="678" on="1"/>
      </contour>
    </TTGlyph>
    <TTGlyph name="asterisk" xMin="123" yMin="578" xMax="909" yMax="1374">
      <contour>
        <pt x="854" y="719" on="1"/>
        <pt x="559" y="903" on="1"/>
        <pt x="571" y="578" on="1"/>
        <pt x="459" y="578" on="1"/>
        <pt x="473" y="903" on="1"/>
        <pt x="180" y="719" on="1"/>
        <pt x="123" y="813" on="1"/>
        <pt x="432" y="977" on="1"/>
        <pt x="123" y="1141" on="1"/>
        <pt x="180" y="1233" on="1"/>
        <pt x="473" y="1051" on="1"/>
        <pt x="459" y="1374" on="1"/>
        <pt x="571" y="1374" on="1"/>
        <pt x="557" y="1051" on="1"/>
        <pt x="854" y="1233" on="1"/>
        <pt x="909" y="1141" on="1"/>
        <pt x="598" y="977" on="1"/>
        <pt x="909" y="813" on="1"/>
      </contour>
    </TTGlyph>
    <TTGlyph name="at" xMin="156" yMin="-29" xMax="1925" yMax="1415">
      <contour>
        <pt x="1262" y="436" on="1"/>
        <pt x="1241" y="417" on="0"/>
        <pt x="1184" y="377" on="0"/>
        <pt x="1108" y="345" on="0"/>
        <pt x="1012" y="324" on="0"/>
        <pt x="952" y="324" on="1"/>
        <pt x="882" y="324" on="0"/>
        <pt x="759" y="362" on="0"/>
        <pt x="667" y="437" on="0"/>
        <pt x="614" y="547" on="0"/>
        <pt x="614" y="618" on="1"/>
        <pt x="614" y="726" on="0"/>
        <pt x="694" y="888" on="0"/>
        <pt x="825" y="998" on="0"/>
        <pt x="993" y="1053" on="0"/>
        <pt x="1081" y="1053" on="1"/>
        <pt x="1154" y="1053" on="0"/>
        <pt x="1265" y="1020" on="0"/>
        <pt x="1319" y="991" on="1"/>
        <pt x="1329" y="1038" on="1"/>
        <pt x="1448" y="1038" on="1"/>
        <pt x="1372" y="584" on="1"/>
        <pt x="1370" y="582" on="0"/>
        <pt x="1368" y="564" on="0"/>
        <pt x="1365" y="542" on="0"/>
        <pt x="1364" y="523" on="0"/>
        <pt x="1364" y="522" on="1"/>
        <pt x="1364" y="471" on="0"/>
        <pt x="1435" y="424" on="0"/>
        <pt x="1495" y="424" on="1"/>
        <pt x="1559" y="424" on="0"/>
        <pt x="1669" y="481" on="0"/>
        <pt x="1751" y="580" on="0"/>
        <pt x="1798" y="712" on="0"/>
        <pt x="1798" y="788" on="1"/>
        <pt x="1798" y="912" on="0"/>
        <pt x="1698" y="1104" on="0"/>
        <pt x="1515" y="1235" on="0"/>
        <pt x="1257" y="1303" on="0"/>
        <pt x="1100" y="1303" on="1"/>
        <pt x="924" y="1303" on="0"/>
        <pt x="626" y="1202" on="0"/>
        <pt x="409" y="1026" on="0"/>
        <pt x="287" y="788" on="0"/>
        <pt x="287" y="651" on="1"/>
        <pt x="287" y="518" on="0"/>
        <pt x="390" y="307" on="0"/>
        <pt x="583" y="160" on="0"/>
        <pt x="859" y="82" on="0"/>
        <pt x="1032" y="82" on="1"/>
        <pt x="1166" y="82" on="0"/>
        <pt x="1411" y="131" on="0"/>
        <pt x="1530" y="188" on="1"/>
        <pt x="1581" y="88" on="1"/>
        <pt x="1447" y="22" on="0"/>
        <pt x="1174" y="-29" on="0"/>
        <pt x="1024" y="-29" on="1"/>
        <pt x="831" y="-29" on="0"/>
        <pt x="512" y="64" on="0"/>
        <pt x="283" y="239" on="0"/>
        <pt x="156" y="491" on="0"/>
        <pt x="156" y="651" on="1"/>
        <pt x="156" y="757" on="0"/>
        <pt x="224" y="954" on="0"/>
        <pt x="346" y="1123" on="0"/>
        <pt x="519" y="1262" on="0"/>
        <pt x="727" y="1361" on="0"/>
        <pt x="967" y="1415" on="0"/>
        <pt x="1096" y="1415" on="1"/>
        <pt x="1282" y="1415" on="0"/>
        <pt x="1587" y="1326" on="0"/>
        <pt x="1805" y="1163" on="0"/>
        <pt x="1925" y="933" on="0"/>
        <pt x="1925" y="793" on="1"/>
        <pt x="1925" y="701" on="0"/>
        <pt x="1862" y="532" on="0"/>
        <pt x="1745" y="402" on="0"/>
        <pt x="1580" y="324" on="0"/>
        <pt x="1479" y="324" on="1"/>
        <pt x="1447" y="324" on="0"/>
        <pt x="1387" y="334" on="0"/>
        <pt x="1331" y="359" on="0"/>
        <pt x="1282" y="402" on="0"/>
      </contour>
      <contour>
        <pt x="979" y="418" on="1"/>
        <pt x="1013" y="418" on="0"/>
        <pt x="1083" y="431" on="0"/>
        <pt x="1152" y="461" on="0"/>
        <pt x="1216" y="508" on="0"/>
        <pt x="1245" y="543" on="1"/>
        <pt x="1300" y="877" on="1"/>
        <pt x="1250" y="918" on="0"/>
        <pt x="1145" y="958" on="0"/>
        <pt x="1079" y="958" on="1"/>
        <pt x="1014" y="958" on="0"/>
        <pt x="894" y="917" on="0"/>
        <pt x="801" y="835" on="0"/>
        <pt x="745" y="709" on="0"/>
        <pt x="745" y="625" on="1"/>
        <pt x="745" y="568" on="0"/>
        <pt x="780" y="489" on="0"/>
        <pt x="842" y="440" on="0"/>
        <pt x="928" y="418" on="0"/>
      </contour>
    </TTGlyph>
    <TTGlyph name="atilde" xMin="98" yMin="-27" xMax="1368" yMax="1335">
      <component glyphName="a" x="0" y="0" flags="0x204"/>
      <component glyphName="tilde" x="115" y="0" flags="0x4"/>
    </TTGlyph>
    <TTGlyph name="b" xMin="47" yMin="-27" xMax="1419" yMax="1374">
      <contour>
        <pt x="47" y="1374" on="1"/>
        <pt x="397" y="1374" on="1"/>
        <pt x="397" y="813" on="1"/>
        <pt x="444" y="850" on="0"/>
        <pt x="547" y="911" on="0"/>
        <pt x="664" y="955" on="0"/>
        <pt x="797" y="979" on="0"/>
        <pt x="874" y="979" on="1"/>
        <pt x="979" y="979" on="0"/>
        <pt x="1175" y="918" on="0"/>
        <pt x="1327" y="792" on="0"/>
        <pt x="1419" y="600" on="0"/>
        <pt x="1419" y="469" on="1"/>
        <pt x="1419" y="343" on="0"/>
        <pt x="1328" y="156" on="0"/>
        <pt x="1170" y="33" on="0"/>
        <pt x="958" y="-27" on="0"/>
        <pt x="838" y="-27" on="1"/>
        <pt x="777" y="-27" on="0"/>
        <pt x="658" y="-8" on="0"/>
        <pt x="545" y="25" on="0"/>
        <pt x="442" y="70" on="0"/>
        <pt x="397" y="96" on="1"/>
        <pt x="397" y="0" on="1"/>
        <pt x="47" y="0" on="1"/>
        <pt x="47" y="113" on="1"/>
        <pt x="272" y="113" on="1"/>
        <pt x="272" y="1262" on="1"/>
        <pt x="47" y="1262" on="1"/>
      </contour>
      <contour>
        <pt x="397" y="221" on="1"/>
        <pt x="436" y="193" on="0"/>
        <pt x="529" y="142" on="0"/>
        <pt x="639" y="103" on="0"/>
        <pt x="765" y="80" on="0"/>
        <pt x="836" y="80" on="1"/>
        <pt x="939" y="80" on="0"/>
        <pt x="1108" y="132" on="0"/>
        <pt x="1229" y="231" on="0"/>
        <pt x="1296" y="376" on="0"/>
        <pt x="1296" y="469" on="1"/>
        <pt x="1296" y="566" on="0"/>
        <pt x="1238" y="716" on="0"/>
        <pt x="1125" y="819" on="0"/>
        <pt x="957" y="872" on="0"/>
        <pt x="846" y="872" on="1"/>
        <pt x="771" y="872" on="0"/>
        <pt x="640" y="837" on="0"/>
        <pt x="528" y="781" on="0"/>
        <pt x="434" y="713" on="0"/>
        <pt x="397" y="680" on="1"/>
      </contour>
    </TTGlyph>
    <TTGlyph name="backslash" xMin="113" yMin="-41" xMax="911" yMax="1436">
      <contour>
        <pt x="113" y="1436" on="1"/>
        <pt x="233" y="1436" on="1"/>
        <pt x="911" y="-41" on="1"/>
        <pt x="791" y="-41" on="1"/>
      </contour>
    </TTGlyph>
    <TTGlyph name="bar" xMin="205" yMin="-483" xMax="328" yMax="1565">
      <contour>
        <pt x="205" y="-483" on="1"/>
        <pt x="205" y="1565" on="1"/>
        <pt x="328" y="1565" on="1"/>
        <pt x="328" y="-483" on="1"/>
      </contour>
    </TTGlyph>
    <TTGlyph name="braceleft" xMin="61" yMin="-121" xMax="688" yMax="1489">
      <contour>
        <pt x="291" y="354" on="1"/>
        <pt x="291" y="429" on="0"/>
        <pt x="279" y="535" on="0"/>
        <pt x="238" y="603" on="0"/>
        <pt x="163" y="635" on="0"/>
        <pt x="100" y="635" on="1"/>
        <pt x="61" y="635" on="1"/>
        <pt x="61" y="737" on="1"/>
        <pt x="100" y="737" on="1"/>
        <pt x="164" y="737" on="0"/>
        <pt x="240" y="770" on="0"/>
        <pt x="280" y="839" on="0"/>
        <pt x="291" y="946" on="0"/>
        <pt x="291" y="1020" on="1"/>
        <pt x="291" y="1143" on="1"/>
        <pt x="291" y="1236" on="0"/>
        <pt x="325" y="1367" on="0"/>
        <pt x="397" y="1451" on="0"/>
        <pt x="510" y="1489" on="0"/>
        <pt x="588" y="1489" on="1"/>
        <pt x="688" y="1489" on="1"/>
        <pt x="688" y="1382" on="1"/>
        <pt x="602" y="1382" on="1"/>
        <pt x="556" y="1382" on="0"/>
        <pt x="486" y="1373" on="0"/>
        <pt x="440" y="1333" on="0"/>
        <pt x="416" y="1251" on="0"/>
        <pt x="416" y="1178" on="1"/>
        <pt x="416" y="1020" on="1"/>
        <pt x="416" y="964" on="0"/>
        <pt x="402" y="856" on="0"/>
        <pt x="363" y="766" on="0"/>
        <pt x="293" y="700" on="0"/>
        <pt x="236" y="686" on="1"/>
        <pt x="292" y="671" on="0"/>
        <pt x="362" y="606" on="0"/>
        <pt x="402" y="516" on="0"/>
        <pt x="416" y="408" on="0"/>
        <pt x="416" y="352" on="1"/>
        <pt x="416" y="190" on="1"/>
        <pt x="416" y="117" on="0"/>
        <pt x="440" y="35" on="0"/>
        <pt x="486" y="-5" on="0"/>
        <pt x="556" y="-14" on="0"/>
        <pt x="602" y="-14" on="1"/>
        <pt x="688" y="-14" on="1"/>
        <pt x="688" y="-121" on="1"/>
        <pt x="588" y="-121" on="1"/>
        <pt x="510" y="-121" on="0"/>
        <pt x="397" y="-83" on="0"/>
        <pt x="325" y="1" on="0"/>
        <pt x="291" y="132" on="0"/>
        <pt x="291" y="225" on="1"/>
      </contour>
    </TTGlyph>
    <TTGlyph name="braceright" xMin="102" yMin="-121" xMax="729" yMax="1489">
      <contour>
        <pt x="500" y="225" on="1"/>
        <pt x="500" y="132" on="0"/>
        <pt x="466" y="1" on="0"/>
        <pt x="394" y="-83" on="0"/>
        <pt x="281" y="-121" on="0"/>
        <pt x="203" y="-121" on="1"/>
        <pt x="102" y="-121" on="1"/>
        <pt x="102" y="-14" on="1"/>
        <pt x="188" y="-14" on="1"/>
        <pt x="234" y="-14" on="0"/>
        <pt x="304" y="-5" on="0"/>
        <pt x="351" y="35" on="0"/>
        <pt x="375" y="117" on="0"/>
        <pt x="375" y="190" on="1"/>
        <pt x="375" y="352" on="1"/>
        <pt x="375" y="408" on="0"/>
        <pt x="389" y="516" on="0"/>
        <pt x="429" y="606" on="0"/>
        <pt x="499" y="671" on="0"/>
        <pt x="555" y="686" on="1"/>
        <pt x="498" y="700" on="0"/>
        <pt x="427" y="766" on="0"/>
        <pt x="388" y="856" on="0"/>
        <pt x="375" y="964" on="0"/>
        <pt x="375" y="1020" on="1"/>
        <pt x="375" y="1178" on="1"/>
        <pt x="375" y="1251" on="0"/>
        <pt x="351" y="1333" on="0"/>
        <pt x="304" y="1373" on="0"/>
        <pt x="234" y="1382" on="0"/>
        <pt x="188" y="1382" on="1"/>
        <pt x="102" y="1382" on="1"/>
        <pt x="102" y="1489" on="1"/>
        <pt x="203" y="1489" on="1"/>
        <pt x="281" y="1489" on="0"/>
        <pt x="394" y="1451" on="0"/>
        <pt x="466" y="1367" on="0"/>
        <pt x="500" y="1236" on="0"/>
        <pt x="500" y="1143" on="1"/>
        <pt x="500" y="1020" on="1"/>
        <pt x="500" y="946" on="0"/>
        <pt x="511" y="839" on="0"/>
        <pt x="550" y="770" on="0"/>
        <pt x="625" y="737" on="0"/>
        <pt x="690" y="737" on="1"/>
        <pt x="729" y="737" on="1"/>
        <pt x="729" y="635" on="1"/>
        <pt x="690" y="635" on="1"/>
        <pt x="627" y="635" on="0"/>
        <pt x="552" y="603" on="0"/>
        <pt x="512" y="535" on="0"/>
        <pt x="500" y="429" on="0"/>
        <pt x="500" y="354" on="1"/>
      </contour>
    </TTGlyph>
    <TTGlyph name="bracketleft" xMin="258" yMin="-121" xMax="735" yMax="1489">
      <contour>
        <pt x="258" y="-121" on="1"/>
        <pt x="258" y="1489" on="1"/>
        <pt x="735" y="1489" on="1"/>
        <pt x="735" y="1382" on="1"/>
        <pt x="383" y="1382" on="1"/>
        <pt x="383" y="-14" on="1"/>
        <pt x="735" y="-14" on="1"/>
        <pt x="735" y="-121" on="1"/>
      </contour>
    </TTGlyph>
    <TTGlyph name="bracketright" xMin="102" yMin="-121" xMax="580" yMax="1489">
      <contour>
        <pt x="102" y="-121" on="1"/>
        <pt x="102" y="-14" on="1"/>
        <pt x="455" y="-14" on="1"/>
        <pt x="455" y="1382" on="1"/>
        <pt x="102" y="1382" on="1"/>
        <pt x="102" y="1489" on="1"/>
        <pt x="580" y="1489" on="1"/>
        <pt x="580" y="-121" on="1"/>
      </contour>
    </TTGlyph>
    <TTGlyph name="breve" xMin="195" yMin="1112" xMax="887" yMax="1350">
      <contour>
        <pt x="887" y="1350" on="1"/>
        <pt x="878" y="1313" on="0"/>
        <pt x="834" y="1229" on="0"/>
        <pt x="753" y="1159" on="0"/>
        <pt x="630" y="1112" on="0"/>
        <pt x="541" y="1112" on="1"/>
        <pt x="451" y="1112" on="0"/>
        <pt x="327" y="1159" on="0"/>
        <pt x="247" y="1229" on="0"/>
        <pt x="204" y="1313" on="0"/>
        <pt x="195" y="1350" on="1"/>
        <pt x="311" y="1350" on="1"/>
        <pt x="317" y="1332" on="0"/>
        <pt x="346" y="1285" on="0"/>
        <pt x="400" y="1243" on="0"/>
        <pt x="482" y="1214" on="0"/>
        <pt x="541" y="1214" on="1"/>
        <pt x="599" y="1214" on="0"/>
        <pt x="681" y="1243" on="0"/>
        <pt x="736" y="1285" on="0"/>
        <pt x="766" y="1332" on="0"/>
        <pt x="772" y="1350" on="1"/>
      </contour>
    </TTGlyph>
    <TTGlyph name="brokenbar" xMin="205" yMin="-352" xMax="328" yMax="1430">
      <contour>
        <pt x="205" y="672" on="1"/>
        <pt x="205" y="1430" on="1"/>
        <pt x="328" y="1430" on="1"/>
        <pt x="328" y="672" on="1"/>
      </contour>
      <contour>
        <pt x="205" y="-352" on="1"/>
        <pt x="205" y="406" on="1"/>
        <pt x="328" y="406" on="1"/>
        <pt x="328" y="-352" on="1"/>
      </contour>
    </TTGlyph>
    <TTGlyph name="bullet" xMin="164" yMin="510" xMax="557" yMax="903">
      <contour>
        <pt x="164" y="707" on="1"/>
        <pt x="164" y="747" on="0"/>
        <pt x="195" y="819" on="0"/>
        <pt x="248" y="872" on="0"/>
        <pt x="319" y="903" on="0"/>
        <pt x="360" y="903" on="1"/>
        <pt x="401" y="903" on="0"/>
        <pt x="473" y="872" on="0"/>
        <pt x="526" y="819" on="0"/>
        <pt x="557" y="747" on="0"/>
        <pt x="557" y="707" on="1"/>
        <pt x="557" y="666" on="0"/>
        <pt x="526" y="594" on="0"/>
        <pt x="473" y="541" on="0"/>
        <pt x="401" y="510" on="0"/>
        <pt x="360" y="510" on="1"/>
        <pt x="319" y="510" on="0"/>
        <pt x="248" y="541" on="0"/>
        <pt x="195" y="594" on="0"/>
        <pt x="164" y="666" on="0"/>
      </contour>
    </TTGlyph>
    <TTGlyph name="c" xMin="98" yMin="-25" xMax="1237" yMax="979">
      <contour>
        <pt x="1112" y="584" on="1"/>
        <pt x="1112" y="631" on="1"/>
        <pt x="1112" y="692" on="0"/>
        <pt x="1035" y="782" on="0"/>
        <pt x="916" y="840" on="0"/>
        <pt x="773" y="868" on="0"/>
        <pt x="707" y="868" on="1"/>
        <pt x="595" y="868" on="0"/>
        <pt x="417" y="814" on="0"/>
        <pt x="294" y="713" on="0"/>
        <pt x="229" y="568" on="0"/>
        <pt x="229" y="477" on="1"/>
        <pt x="229" y="385" on="0"/>
        <pt x="293" y="240" on="0"/>
        <pt x="414" y="138" on="0"/>
        <pt x="589" y="84" on="0"/>
        <pt x="700" y="84" on="1"/>
        <pt x="794" y="84" on="0"/>
        <pt x="935" y="119" on="0"/>
        <pt x="1033" y="174" on="0"/>
        <pt x="1093" y="242" on="0"/>
        <pt x="1108" y="276" on="1"/>
        <pt x="1237" y="276" on="1"/>
        <pt x="1181" y="128" on="0"/>
        <pt x="905" y="-25" on="0"/>
        <pt x="694" y="-25" on="1"/>
        <pt x="566" y="-25" on="0"/>
        <pt x="347" y="40" on="0"/>
        <pt x="188" y="167" on="0"/>
        <pt x="98" y="354" on="0"/>
        <pt x="98" y="475" on="1"/>
        <pt x="98" y="597" on="0"/>
        <pt x="192" y="785" on="0"/>
        <pt x="355" y="913" on="0"/>
        <pt x="574" y="979" on="0"/>
        <pt x="698" y="979" on="1"/>
        <pt x="771" y="979" on="0"/>
        <pt x="897" y="959" on="0"/>
        <pt x="1002" y="924" on="0"/>
        <pt x="1083" y="880" on="0"/>
        <pt x="1112" y="856" on="1"/>
        <pt x="1112" y="958" on="1"/>
        <pt x="1221" y="958" on="1"/>
        <pt x="1221" y="584" on="1"/>
      </contour>
    </TTGlyph>
    <TTGlyph name="cacute" xMin="98" yMin="-25" xMax="1237" yMax="1395">
      <component glyphName="c" x="0" y="0" flags="0x204"/>
      <component glyphName="acute" x="158" y="0" flags="0x4"/>
    </TTGlyph>
    <TTGlyph name="caron" xMin="154" yMin="1098" xMax="928" yMax="1395">
      <contour>
        <pt x="928" y="1317" on="1"/>
        <pt x="541" y="1098" on="1"/>
        <pt x="154" y="1317" on="1"/>
        <pt x="193" y="1395" on="1"/>
        <pt x="541" y="1235" on="1"/>
        <pt x="889" y="1395" on="1"/>
      </contour>
    </TTGlyph>
    <TTGlyph name="ccaron" xMin="98" yMin="-25" xMax="1237" yMax="1395">
      <component glyphName="c" x="0" y="0" flags="0x204"/>
      <component glyphName="caron" x="158" y="0" flags="0x4"/>
    </TTGlyph>
    <TTGlyph name="ccedilla" xMin="98" yMin="-401" xMax="1237" yMax="979">
      <contour>
        <pt x="1112" y="584" on="1"/>
        <pt x="1112" y="631" on="1"/>
        <pt x="1112" y="692" on="0"/>
        <pt x="1035" y="782" on="0"/>
        <pt x="916" y="840" on="0"/>
        <pt x="773" y="868" on="0"/>
        <pt x="707" y="868" on="1"/>
        <pt x="595" y="868" on="0"/>
        <pt x="417" y="814" on="0"/>
        <pt x="294" y="713" on="0"/>
        <pt x="229" y="568" on="0"/>
        <pt x="229" y="477" on="1"/>
        <pt x="229" y="385" on="0"/>
        <pt x="293" y="240" on="0"/>
        <pt x="414" y="138" on="0"/>
        <pt x="589" y="84" on="0"/>
        <pt x="700" y="84" on="1"/>
        <pt x="794" y="84" on="0"/>
        <pt x="935" y="119" on="0"/>
        <pt x="1033" y="174" on="0"/>
        <pt x="1093" y="242" on="0"/>
        <pt x="1108" y="276" on="1"/>
        <pt x="1237" y="276" on="1"/>
        <pt x="1183" y="133" on="0"/>
        <pt x="920" y="-18" on="0"/>
        <pt x="721" y="-25" on="1"/>
        <pt x="694" y="-98" on="1"/>
        <pt x="738" y="-98" on="0"/>
        <pt x="815" y="-112" on="0"/>
        <pt x="872" y="-145" on="0"/>
        <pt x="905" y="-200" on="0"/>
        <pt x="905" y="-242" on="1"/>
        <pt x="905" y="-287" on="0"/>
        <pt x="868" y="-348" on="0"/>
        <pt x="802" y="-385" on="0"/>
        <pt x="710" y="-401" on="0"/>
        <pt x="655" y="-401" on="1"/>
        <pt x="574" y="-401" on="0"/>
        <pt x="463" y="-369" on="0"/>
        <pt x="426" y="-352" on="1"/>
        <pt x="469" y="-266" on="1"/>
        <pt x="504" y="-288" on="0"/>
        <pt x="587" y="-311" on="0"/>
        <pt x="647" y="-311" on="1"/>
        <pt x="689" y="-311" on="0"/>
        <pt x="747" y="-301" on="0"/>
        <pt x="782" y="-283" on="0"/>
        <pt x="797" y="-257" on="0"/>
        <pt x="797" y="-242" on="1"/>
        <pt x="797" y="-223" on="0"/>
        <pt x="777" y="-197" on="0"/>
        <pt x="743" y="-182" on="0"/>
        <pt x="700" y="-176" on="0"/>
        <pt x="676" y="-176" on="1"/>
        <pt x="650" y="-176" on="0"/>
        <pt x="596" y="-179" on="0"/>
        <pt x="573" y="-182" on="1"/>
        <pt x="633" y="-23" on="1"/>
        <pt x="516" y="-15" on="0"/>
        <pt x="320" y="57" on="0"/>
        <pt x="178" y="182" on="0"/>
        <pt x="98" y="361" on="0"/>
        <pt x="98" y="475" on="1"/>
        <pt x="98" y="597" on="0"/>
        <pt x="192" y="785" on="0"/>
        <pt x="355" y="913" on="0"/>
        <pt x="574" y="979" on="0"/>
        <pt x="698" y="979" on="1"/>
        <pt x="771" y="979" on="0"/>
        <pt x="897" y="959" on="0"/>
        <pt x="1002" y="924" on="0"/>
        <pt x="1083" y="880" on="0"/>
        <pt x="1112" y="856" on="1"/>
        <pt x="1112" y="958" on="1"/>
        <pt x="1221" y="958" on="1"/>
        <pt x="1221" y="584" on="1"/>
      </contour>
    </TTGlyph>
    <TTGlyph name="ccircumflex" xMin="98" yMin="-25" xMax="1237" yMax="1397">
      <component glyphName="c" x="0" y="0" flags="0x204"/>
      <component glyphName="circumflex" x="158" y="0" flags="0x4"/>
    </TTGlyph>
    <TTGlyph name="cdotaccent" xMin="98" yMin="-25" xMax="1237" yMax="1305">
      <component glyphName="c" x="0" y="0" flags="0x204"/>
      <component glyphName="dotaccent" x="158" y="0" flags="0x4"/>
    </TTGlyph>
    <TTGlyph name="cedilla" xMin="293" yMin="-401" xMax="772" yMax="20">
      <contour>
        <pt x="561" y="-98" on="1"/>
        <pt x="605" y="-98" on="0"/>
        <pt x="682" y="-112" on="0"/>
        <pt x="739" y="-145" on="0"/>
        <pt x="772" y="-200" on="0"/>
        <pt x="772" y="-242" on="1"/>
        <pt x="772" y="-287" on="0"/>
        <pt x="735" y="-348" on="0"/>
        <pt x="669" y="-385" on="0"/>
        <pt x="577" y="-401" on="0"/>
        <pt x="522" y="-401" on="1"/>
        <pt x="441" y="-401" on="0"/>
        <pt x="330" y="-369" on="0"/>
        <pt x="293" y="-352" on="1"/>
        <pt x="336" y="-266" on="1"/>
        <pt x="371" y="-288" on="0"/>
        <pt x="454" y="-311" on="0"/>
        <pt x="514" y="-311" on="1"/>
        <pt x="556" y="-311" on="0"/>
        <pt x="614" y="-301" on="0"/>
        <pt x="649" y="-283" on="0"/>
        <pt x="664" y="-257" on="0"/>
        <pt x="664" y="-242" on="1"/>
        <pt x="664" y="-223" on="0"/>
        <pt x="644" y="-197" on="0"/>
        <pt x="610" y="-182" on="0"/>
        <pt x="567" y="-176" on="0"/>
        <pt x="543" y="-176" on="1"/>
        <pt x="517" y="-176" on="0"/>
        <pt x="463" y="-179" on="0"/>
        <pt x="440" y="-182" on="1"/>
        <pt x="516" y="20" on="1"/>
        <pt x="606" y="20" on="1"/>
      </contour>
    </TTGlyph>
    <TTGlyph name="cent" xMin="123" yMin="10" xMax="1241" yMax="1364">
      <contour>
        <pt x="1137" y="795" on="1"/>
        <pt x="1137" y="842" on="1"/>
        <pt x="1137" y="899" on="0"/>
        <pt x="1070" y="985" on="0"/>
        <pt x="965" y="1045" on="0"/>
        <pt x="835" y="1079" on="0"/>
        <pt x="772" y="1083" on="1"/>
        <pt x="772" y="295" on="1"/>
        <pt x="859" y="299" on="0"/>
        <pt x="983" y="339" on="0"/>
        <pt x="1069" y="395" on="0"/>
        <pt x="1125" y="461" on="0"/>
        <pt x="1143" y="492" on="1"/>
        <pt x="1235" y="440" on="1"/>
        <pt x="1202" y="388" on="0"/>
        <pt x="1115" y="302" on="0"/>
        <pt x="1003" y="238" on="0"/>
        <pt x="860" y="199" on="0"/>
        <pt x="772" y="195" on="1"/>
        <pt x="772" y="10" on="1"/>
        <pt x="666" y="10" on="1"/>
        <pt x="666" y="193" on="1"/>
        <pt x="547" y="200" on="0"/>
        <pt x="348" y="270" on="0"/>
        <pt x="204" y="396" on="0"/>
        <pt x="123" y="575" on="0"/>
        <pt x="123" y="690" on="1"/>
        <pt x="123" y="804" on="0"/>
        <pt x="207" y="983" on="0"/>
        <pt x="353" y="1108" on="0"/>
        <pt x="551" y="1180" on="0"/>
        <pt x="666" y="1188" on="1"/>
        <pt x="666" y="1364" on="1"/>
        <pt x="772" y="1364" on="1"/>
        <pt x="772" y="1188" on="1"/>
        <pt x="836" y="1185" on="0"/>
        <pt x="946" y="1162" on="0"/>
        <pt x="1038" y="1129" on="0"/>
        <pt x="1111" y="1088" on="0"/>
        <pt x="1137" y="1067" on="1"/>
        <pt x="1137" y="1169" on="1"/>
        <pt x="1241" y="1169" on="1"/>
        <pt x="1241" y="795" on="1"/>
      </contour>
      <contour>
        <pt x="246" y="690" on="1"/>
        <pt x="246" y="606" on="0"/>
        <pt x="303" y="467" on="0"/>
        <pt x="411" y="365" on="0"/>
        <pt x="567" y="304" on="0"/>
        <pt x="666" y="297" on="1"/>
        <pt x="666" y="1081" on="1"/>
        <pt x="568" y="1073" on="0"/>
        <pt x="413" y="1012" on="0"/>
        <pt x="304" y="911" on="0"/>
        <pt x="246" y="774" on="0"/>
      </contour>
    </TTGlyph>
    <TTGlyph name="circumflex" xMin="154" yMin="1100" xMax="928" yMax="1397">
      <contour>
        <pt x="889" y="1100" on="1"/>
        <pt x="541" y="1260" on="1"/>
        <pt x="193" y="1100" on="1"/>
        <pt x="154" y="1178" on="1"/>
        <pt x="541" y="1397" on="1"/>
        <pt x="928" y="1178" on="1"/>
      </contour>
    </TTGlyph>
    <TTGlyph name="colon" xMin="143" yMin="-10" xMax="379" yMax="815">
      <contour>
        <pt x="143" y="106" on="1"/>
        <pt x="143" y="131" on="0"/>
        <pt x="161" y="174" on="0"/>
        <pt x="193" y="206" on="0"/>
        <pt x="236" y="225" on="0"/>
        <pt x="260" y="225" on="1"/>
        <pt x="285" y="225" on="0"/>
        <pt x="328" y="206" on="0"/>
        <pt x="360" y="174" on="0"/>
        <pt x="379" y="131" on="0"/>
        <pt x="379" y="106" on="1"/>
        <pt x="379" y="82" on="0"/>
        <pt x="360" y="39" on="0"/>
        <pt x="328" y="8" on="0"/>
        <pt x="285" y="-10" on="0"/>
        <pt x="260" y="-10" on="1"/>
        <pt x="236" y="-10" on="0"/>
        <pt x="193" y="8" on="0"/>
        <pt x="161" y="39" on="0"/>
        <pt x="143" y="82" on="0"/>
      </contour>
      <contour>
        <pt x="143" y="696" on="1"/>
        <pt x="143" y="721" on="0"/>
        <pt x="161" y="764" on="0"/>
        <pt x="193" y="796" on="0"/>
        <pt x="236" y="815" on="0"/>
        <pt x="260" y="815" on="1"/>
        <pt x="285" y="815" on="0"/>
        <pt x="328" y="796" on="0"/>
        <pt x="360" y="764" on="0"/>
        <pt x="379" y="721" on="0"/>
        <pt x="379" y="696" on="1"/>
        <pt x="379" y="672" on="0"/>
        <pt x="360" y="629" on="0"/>
        <pt x="328" y="598" on="0"/>
        <pt x="285" y="580" on="0"/>
        <pt x="260" y="580" on="1"/>
        <pt x="236" y="580" on="0"/>
        <pt x="193" y="598" on="0"/>
        <pt x="161" y="629" on="0"/>
        <pt x="143" y="672" on="0"/>
      </contour>
    </TTGlyph>
    <TTGlyph name="comma" xMin="123" yMin="-207" xMax="360" yMax="225">
      <contour>
        <pt x="123" y="109" on="1"/>
        <pt x="123" y="133" on="0"/>
        <pt x="140" y="175" on="0"/>
        <pt x="172" y="206" on="0"/>
        <pt x="214" y="225" on="0"/>
        <pt x="240" y="225" on="1"/>
        <pt x="266" y="225" on="0"/>
        <pt x="310" y="206" on="0"/>
        <pt x="342" y="172" on="0"/>
        <pt x="360" y="124" on="0"/>
        <pt x="360" y="96" on="1"/>
        <pt x="360" y="51" on="0"/>
        <pt x="336" y="-34" on="0"/>
        <pt x="294" y="-111" on="0"/>
        <pt x="237" y="-179" on="0"/>
        <pt x="205" y="-207" on="1"/>
        <pt x="152" y="-156" on="1"/>
        <pt x="189" y="-118" on="0"/>
        <pt x="237" y="-43" on="0"/>
        <pt x="248" y="0" on="1"/>
        <pt x="216" y="0" on="0"/>
        <pt x="169" y="19" on="0"/>
        <pt x="138" y="50" on="0"/>
        <pt x="123" y="89" on="0"/>
      </contour>
    </TTGlyph>
    <TTGlyph name="commaaccent" xMin="446" yMin="-416" xMax="629" yMax="-143">
      <contour>
        <pt x="547" y="-416" on="1"/>
        <pt x="446" y="-416" on="1"/>
        <pt x="485" y="-143" on="1"/>
        <pt x="629" y="-143" on="1"/>
      </contour>
    </TTGlyph>
    <TTGlyph name="copyright" xMin="102" yMin="0" xMax="1477" yMax="1374">
      <contour>
        <pt x="1477" y="686" on="1"/>
        <pt x="1477" y="591" on="0"/>
        <pt x="1428" y="416" on="0"/>
        <pt x="1338" y="263" on="0"/>
        <pt x="1213" y="138" on="0"/>
        <pt x="1059" y="49" on="0"/>
        <pt x="883" y="0" on="0"/>
        <pt x="788" y="0" on="1"/>
        <pt x="694" y="0" on="0"/>
        <pt x="518" y="49" on="0"/>
        <pt x="366" y="138" on="0"/>
        <pt x="241" y="263" on="0"/>
        <pt x="151" y="416" on="0"/>
        <pt x="102" y="591" on="0"/>
        <pt x="102" y="686" on="1"/>
        <pt x="102" y="781" on="0"/>
        <pt x="151" y="957" on="0"/>
        <pt x="241" y="1110" on="0"/>
        <pt x="366" y="1236" on="0"/>
        <pt x="518" y="1325" on="0"/>
        <pt x="693" y="1374" on="0"/>
        <pt x="788" y="1374" on="1"/>
        <pt x="883" y="1374" on="0"/>
        <pt x="1059" y="1325" on="0"/>
        <pt x="1213" y="1236" on="0"/>
        <pt x="1338" y="1110" on="0"/>
        <pt x="1428" y="957" on="0"/>
        <pt x="1477" y="781" on="0"/>
      </contour>
      <contour>
        <pt x="197" y="686" on="1"/>
        <pt x="197" y="563" on="0"/>
        <pt x="290" y="347" on="0"/>
        <pt x="450" y="187" on="0"/>
        <pt x="665" y="94" on="0"/>
        <pt x="788" y="94" on="1"/>
        <pt x="912" y="94" on="0"/>
        <pt x="1129" y="187" on="0"/>
        <pt x="1291" y="347" on="0"/>
        <pt x="1384" y="563" on="0"/>
        <pt x="1384" y="686" on="1"/>
        <pt x="1384" y="810" on="0"/>
        <pt x="1291" y="1027" on="0"/>
        <pt x="1129" y="1189" on="0"/>
        <pt x="912" y="1282" on="0"/>
        <pt x="788" y="1282" on="1"/>
        <pt x="665" y="1282" on="0"/>
        <pt x="450" y="1189" on="0"/>
        <pt x="290" y="1027" on="0"/>
        <pt x="197" y="810" on="0"/>
      </contour>
      <contour>
        <pt x="780" y="272" on="1"/>
        <pt x="708" y="272" on="0"/>
        <pt x="567" y="321" on="0"/>
        <pt x="456" y="423" on="0"/>
        <pt x="387" y="580" on="0"/>
        <pt x="387" y="688" on="1"/>
        <pt x="387" y="791" on="0"/>
        <pt x="455" y="946" on="0"/>
        <pt x="566" y="1050" on="0"/>
        <pt x="708" y="1102" on="0"/>
        <pt x="782" y="1102" on="1"/>
        <pt x="857" y="1102" on="0"/>
        <pt x="975" y="1062" on="0"/>
        <pt x="1012" y="1034" on="1"/>
        <pt x="1012" y="1087" on="1"/>
        <pt x="1110" y="1087" on="1"/>
        <pt x="1110" y="797" on="1"/>
        <pt x="1012" y="797" on="1"/>
        <pt x="1012" y="850" on="1"/>
        <pt x="1012" y="884" on="0"/>
        <pt x="977" y="944" on="0"/>
        <pt x="918" y="989" on="0"/>
        <pt x="838" y="1014" on="0"/>
        <pt x="793" y="1014" on="1"/>
        <pt x="721" y="1014" on="0"/>
        <pt x="612" y="966" on="0"/>
        <pt x="539" y="880" on="0"/>
        <pt x="502" y="760" on="0"/>
        <pt x="502" y="688" on="1"/>
        <pt x="502" y="616" on="0"/>
        <pt x="539" y="496" on="0"/>
        <pt x="612" y="410" on="0"/>
        <pt x="721" y="362" on="0"/>
        <pt x="793" y="362" on="1"/>
        <pt x="847" y="362" on="0"/>
        <pt x="926" y="391" on="0"/>
        <pt x="981" y="436" on="0"/>
        <pt x="1016" y="490" on="0"/>
        <pt x="1026" y="514" on="1"/>
        <pt x="1126" y="514" on="1"/>
        <pt x="1110" y="460" on="0"/>
        <pt x="1050" y="371" on="0"/>
        <pt x="964" y="307" on="0"/>
        <pt x="850" y="272" on="0"/>
      </contour>
    </TTGlyph>
    <TTGlyph name="currency" xMin="121" yMin="229" xMax="1026" yMax="1137">
      <contour>
        <pt x="870" y="903" on="1"/>
        <pt x="906" y="854" on="0"/>
        <pt x="942" y="741" on="0"/>
        <pt x="942" y="682" on="1"/>
        <pt x="942" y="623" on="0"/>
        <pt x="908" y="511" on="0"/>
        <pt x="870" y="463" on="1"/>
        <pt x="1026" y="307" on="1"/>
        <pt x="950" y="229" on="1"/>
        <pt x="793" y="387" on="1"/>
        <pt x="743" y="352" on="0"/>
        <pt x="630" y="313" on="0"/>
        <pt x="573" y="313" on="1"/>
        <pt x="515" y="313" on="0"/>
        <pt x="402" y="350" on="0"/>
        <pt x="354" y="387" on="1"/>
        <pt x="197" y="229" on="1"/>
        <pt x="121" y="307" on="1"/>
        <pt x="279" y="465" on="1"/>
        <pt x="243" y="513" on="0"/>
        <pt x="205" y="625" on="0"/>
        <pt x="205" y="682" on="1"/>
        <pt x="205" y="742" on="0"/>
        <pt x="241" y="852" on="0"/>
        <pt x="279" y="901" on="1"/>
        <pt x="121" y="1061" on="1"/>
        <pt x="197" y="1137" on="1"/>
        <pt x="354" y="979" on="1"/>
        <pt x="405" y="1016" on="0"/>
        <pt x="518" y="1051" on="0"/>
        <pt x="578" y="1051" on="1"/>
        <pt x="635" y="1051" on="0"/>
        <pt x="745" y="1016" on="0"/>
        <pt x="793" y="981" on="1"/>
        <pt x="950" y="1137" on="1"/>
        <pt x="1026" y="1061" on="1"/>
      </contour>
      <contour>
        <pt x="385" y="494" on="1"/>
        <pt x="423" y="455" on="0"/>
        <pt x="521" y="418" on="0"/>
        <pt x="573" y="418" on="1"/>
        <pt x="623" y="418" on="0"/>
        <pt x="720" y="453" on="0"/>
        <pt x="796" y="520" on="0"/>
        <pt x="842" y="618" on="0"/>
        <pt x="842" y="682" on="1"/>
        <pt x="842" y="736" on="0"/>
        <pt x="799" y="834" on="0"/>
        <pt x="725" y="907" on="0"/>
        <pt x="628" y="950" on="0"/>
        <pt x="573" y="950" on="1"/>
        <pt x="516" y="950" on="0"/>
        <pt x="419" y="905" on="0"/>
        <pt x="348" y="831" on="0"/>
        <pt x="307" y="734" on="0"/>
        <pt x="307" y="682" on="1"/>
        <pt x="307" y="629" on="0"/>
        <pt x="345" y="532" on="0"/>
      </contour>
    </TTGlyph>
    <TTGlyph name="d" xMin="98" yMin="-27" xMax="1470" yMax="1374">
      <contour>
        <pt x="1470" y="0" on="1"/>
        <pt x="1120" y="0" on="1"/>
        <pt x="1120" y="139" on="1"/>
        <pt x="1073" y="102" on="0"/>
        <pt x="971" y="41" on="0"/>
        <pt x="854" y="-3" on="0"/>
        <pt x="721" y="-27" on="0"/>
        <pt x="643" y="-27" on="1"/>
        <pt x="539" y="-27" on="0"/>
        <pt x="342" y="34" on="0"/>
        <pt x="190" y="160" on="0"/>
        <pt x="98" y="352" on="0"/>
        <pt x="98" y="483" on="1"/>
        <pt x="98" y="609" on="0"/>
        <pt x="189" y="795" on="0"/>
        <pt x="347" y="918" on="0"/>
        <pt x="559" y="979" on="0"/>
        <pt x="680" y="979" on="1"/>
        <pt x="741" y="979" on="0"/>
        <pt x="859" y="960" on="0"/>
        <pt x="971" y="926" on="0"/>
        <pt x="1075" y="881" on="0"/>
        <pt x="1120" y="856" on="1"/>
        <pt x="1120" y="1262" on="1"/>
        <pt x="893" y="1262" on="1"/>
        <pt x="893" y="1374" on="1"/>
        <pt x="1245" y="1374" on="1"/>
        <pt x="1245" y="113" on="1"/>
        <pt x="1470" y="113" on="1"/>
      </contour>
      <contour>
        <pt x="672" y="80" on="1"/>
        <pt x="746" y="80" on="0"/>
        <pt x="877" y="115" on="0"/>
        <pt x="990" y="171" on="0"/>
        <pt x="1083" y="239" on="0"/>
        <pt x="1120" y="272" on="1"/>
        <pt x="1120" y="729" on="1"/>
        <pt x="1082" y="757" on="0"/>
        <pt x="988" y="808" on="0"/>
        <pt x="877" y="848" on="0"/>
        <pt x="752" y="872" on="0"/>
        <pt x="682" y="872" on="1"/>
        <pt x="579" y="872" on="0"/>
        <pt x="409" y="820" on="0"/>
        <pt x="288" y="721" on="0"/>
        <pt x="221" y="576" on="0"/>
        <pt x="221" y="483" on="1"/>
        <pt x="221" y="289" on="0"/>
        <pt x="451" y="80" on="0"/>
      </contour>
    </TTGlyph>
    <TTGlyph name="dagger" xMin="184" yMin="-23" xMax="840" yMax="1374">
      <contour>
        <pt x="184" y="1006" on="1"/>
        <pt x="451" y="1006" on="1"/>
        <pt x="451" y="1374" on="1"/>
        <pt x="573" y="1374" on="1"/>
        <pt x="573" y="1006" on="1"/>
        <pt x="840" y="1006" on="1"/>
        <pt x="840" y="891" on="1"/>
        <pt x="573" y="891" on="1"/>
        <pt x="573" y="-23" on="1"/>
        <pt x="451" y="-23" on="1"/>
        <pt x="451" y="891" on="1"/>
        <pt x="184" y="891" on="1"/>
      </contour>
    </TTGlyph>
    <TTGlyph name="daggerdbl" xMin="184" yMin="-23" xMax="840" yMax="1374">
      <contour>
        <pt x="184" y="1006" on="1"/>
        <pt x="451" y="1006" on="1"/>
        <pt x="451" y="1374" on="1"/>
        <pt x="573" y="1374" on="1"/>
        <pt x="573" y="1006" on="1"/>
        <pt x="840" y="1006" on="1"/>
        <pt x="840" y="891" on="1"/>
        <pt x="573" y="891" on="1"/>
        <pt x="573" y="575" on="1"/>
        <pt x="840" y="575" on="1"/>
        <pt x="840" y="461" on="1"/>
        <pt x="573" y="461" on="1"/>
        <pt x="573" y="-23" on="1"/>
        <pt x="451" y="-23" on="1"/>
        <pt x="451" y="461" on="1"/>
        <pt x="184" y="461" on="1"/>
        <pt x="184" y="575" on="1"/>
        <pt x="451" y="575" on="1"/>
        <pt x="451" y="891" on="1"/>
        <pt x="184" y="891" on="1"/>
      </contour>
    </TTGlyph>
    <TTGlyph name="dcaron" xMin="98" yMin="-27" xMax="1577" yMax="1374">
      <component glyphName="d" x="0" y="0" flags="0x4"/>
      <component glyphName="uni0315" x="1395" y="20" flags="0x4"/>
    </TTGlyph>
    <TTGlyph name="dcroat" xMin="98" yMin="-27" xMax="1470" yMax="1374">
      <contour>
        <pt x="1245" y="1047" on="1"/>
        <pt x="1245" y="113" on="1"/>
        <pt x="1470" y="113" on="1"/>
        <pt x="1470" y="0" on="1"/>
        <pt x="1120" y="0" on="1"/>
        <pt x="1120" y="139" on="1"/>
        <pt x="1073" y="102" on="0"/>
        <pt x="971" y="41" on="0"/>
        <pt x="854" y="-3" on="0"/>
        <pt x="721" y="-27" on="0"/>
        <pt x="643" y="-27" on="1"/>
        <pt x="539" y="-27" on="0"/>
        <pt x="342" y="34" on="0"/>
        <pt x="190" y="160" on="0"/>
        <pt x="98" y="352" on="0"/>
        <pt x="98" y="483" on="1"/>
        <pt x="98" y="609" on="0"/>
        <pt x="189" y="795" on="0"/>
        <pt x="347" y="918" on="0"/>
        <pt x="559" y="979" on="0"/>
        <pt x="680" y="979" on="1"/>
        <pt x="741" y="979" on="0"/>
        <pt x="859" y="960" on="0"/>
        <pt x="971" y="926" on="0"/>
        <pt x="1075" y="881" on="0"/>
        <pt x="1120" y="856" on="1"/>
        <pt x="1120" y="1047" on="1"/>
        <pt x="766" y="1047" on="1"/>
        <pt x="766" y="1155" on="1"/>
        <pt x="1120" y="1155" on="1"/>
        <pt x="1120" y="1262" on="1"/>
        <pt x="893" y="1262" on="1"/>
        <pt x="893" y="1374" on="1"/>
        <pt x="1245" y="1374" on="1"/>
        <pt x="1245" y="1155" on="1"/>
        <pt x="1462" y="1155" on="1"/>
        <pt x="1462" y="1047" on="1"/>
      </contour>
      <contour>
        <pt x="672" y="80" on="1"/>
        <pt x="746" y="80" on="0"/>
        <pt x="877" y="115" on="0"/>
        <pt x="990" y="171" on="0"/>
        <pt x="1083" y="239" on="0"/>
        <pt x="1120" y="272" on="1"/>
        <pt x="1120" y="729" on="1"/>
        <pt x="1082" y="757" on="0"/>
        <pt x="988" y="808" on="0"/>
        <pt x="877" y="848" on="0"/>
        <pt x="752" y="872" on="0"/>
        <pt x="682" y="872" on="1"/>
        <pt x="579" y="872" on="0"/>
        <pt x="409" y="820" on="0"/>
        <pt x="288" y="721" on="0"/>
        <pt x="221" y="576" on="0"/>
        <pt x="221" y="483" on="1"/>
        <pt x="221" y="289" on="0"/>
        <pt x="451" y="80" on="0"/>
      </contour>
    </TTGlyph>
    <TTGlyph name="degree" xMin="133" yMin="877" xMax="631" yMax="1374">
      <contour>
        <pt x="133" y="1124" on="1"/>
        <pt x="133" y="1176" on="0"/>
        <pt x="172" y="1267" on="0"/>
        <pt x="239" y="1335" on="0"/>
        <pt x="330" y="1374" on="0"/>
        <pt x="381" y="1374" on="1"/>
        <pt x="432" y="1374" on="0"/>
        <pt x="523" y="1335" on="0"/>
        <pt x="591" y="1267" on="0"/>
        <pt x="631" y="1176" on="0"/>
        <pt x="631" y="1124" on="1"/>
        <pt x="631" y="1073" on="0"/>
        <pt x="591" y="983" on="0"/>
        <pt x="523" y="916" on="0"/>
        <pt x="432" y="877" on="0"/>
        <pt x="381" y="877" on="1"/>
        <pt x="330" y="877" on="0"/>
        <pt x="239" y="916" on="0"/>
        <pt x="172" y="983" on="0"/>
        <pt x="133" y="1073" on="0"/>
      </contour>
      <contour>
        <pt x="231" y="1124" on="1"/>
        <pt x="231" y="1092" on="0"/>
        <pt x="254" y="1038" on="0"/>
        <pt x="295" y="998" on="0"/>
        <pt x="349" y="975" on="0"/>
        <pt x="381" y="975" on="1"/>
        <pt x="412" y="975" on="0"/>
        <pt x="468" y="998" on="0"/>
        <pt x="508" y="1038" on="0"/>
        <pt x="532" y="1092" on="0"/>
        <pt x="532" y="1124" on="1"/>
        <pt x="532" y="1155" on="0"/>
        <pt x="508" y="1211" on="0"/>
        <pt x="468" y="1252" on="0"/>
        <pt x="412" y="1276" on="0"/>
        <pt x="381" y="1276" on="1"/>
        <pt x="349" y="1276" on="0"/>
        <pt x="295" y="1252" on="0"/>
        <pt x="254" y="1211" on="0"/>
        <pt x="231" y="1155" on="0"/>
      </contour>
    </TTGlyph>
    <TTGlyph name="dieresis" xMin="254" yMin="1116" xMax="827" yMax="1294">
      <contour>
        <pt x="254" y="1204" on="1"/>
        <pt x="254" y="1241" on="0"/>
        <pt x="303" y="1294" on="0"/>
        <pt x="340" y="1294" on="1"/>
        <pt x="377" y="1294" on="0"/>
        <pt x="430" y="1241" on="0"/>
        <pt x="430" y="1204" on="1"/>
        <pt x="430" y="1167" on="0"/>
        <pt x="377" y="1116" on="0"/>
        <pt x="340" y="1116" on="1"/>
        <pt x="303" y="1116" on="0"/>
        <pt x="254" y="1167" on="0"/>
      </contour>
      <contour>
        <pt x="651" y="1204" on="1"/>
        <pt x="651" y="1222" on="0"/>
        <pt x="664" y="1255" on="0"/>
        <pt x="688" y="1280" on="0"/>
        <pt x="720" y="1294" on="0"/>
        <pt x="739" y="1294" on="1"/>
        <pt x="776" y="1294" on="0"/>
        <pt x="827" y="1241" on="0"/>
        <pt x="827" y="1204" on="1"/>
        <pt x="827" y="1167" on="0"/>
        <pt x="776" y="1116" on="0"/>
        <pt x="739" y="1116" on="1"/>
        <pt x="701" y="1116" on="0"/>
        <pt x="651" y="1167" on="0"/>
      </contour>
    </TTGlyph>
    <TTGlyph name="divide" xMin="176" yMin="291" xMax="1133" yMax="1079">
      <contour>
        <pt x="176" y="631" on="1"/>
        <pt x="176" y="739" on="1"/>
        <pt x="1133" y="739" on="1"/>
        <pt x="1133" y="631" on="1"/>
      </contour>
      <contour>
        <pt x="569" y="993" on="1"/>
        <pt x="569" y="1030" on="0"/>
        <pt x="615" y="1079" on="0"/>
        <pt x="649" y="1079" on="1"/>
        <pt x="686" y="1079" on="0"/>
        <pt x="735" y="1030" on="0"/>
        <pt x="735" y="993" on="1"/>
        <pt x="735" y="959" on="0"/>
        <pt x="686" y="913" on="0"/>
        <pt x="649" y="913" on="1"/>
        <pt x="615" y="913" on="0"/>
        <pt x="569" y="959" on="0"/>
      </contour>
      <contour>
        <pt x="569" y="371" on="1"/>
        <pt x="569" y="408" on="0"/>
        <pt x="615" y="457" on="0"/>
        <pt x="649" y="457" on="1"/>
        <pt x="686" y="457" on="0"/>
        <pt x="735" y="408" on="0"/>
        <pt x="735" y="371" on="1"/>
        <pt x="735" y="337" on="0"/>
        <pt x="686" y="291" on="0"/>
        <pt x="649" y="291" on="1"/>
        <pt x="615" y="291" on="0"/>
        <pt x="569" y="337" on="0"/>
      </contour>
    </TTGlyph>
    <TTGlyph name="dollar" xMin="102" yMin="-109" xMax="1477" yMax="1483">
      <contour>
        <pt x="102" y="33" on="1"/>
        <pt x="102" y="526" on="1"/>
        <pt x="215" y="526" on="1"/>
        <pt x="215" y="385" on="1"/>
        <pt x="215" y="333" on="0"/>
        <pt x="260" y="253" on="0"/>
        <pt x="337" y="194" on="0"/>
        <pt x="439" y="153" on="0"/>
        <pt x="553" y="127" on="0"/>
        <pt x="673" y="113" on="0"/>
        <pt x="729" y="111" on="1"/>
        <pt x="729" y="664" on="1"/>
        <pt x="653" y="678" on="0"/>
        <pt x="505" y="710" on="0"/>
        <pt x="372" y="752" on="0"/>
        <pt x="259" y="806" on="0"/>
        <pt x="176" y="879" on="0"/>
        <pt x="129" y="973" on="0"/>
        <pt x="129" y="1034" on="1"/>
        <pt x="129" y="1099" on="0"/>
        <pt x="179" y="1200" on="0"/>
        <pt x="266" y="1274" on="0"/>
        <pt x="382" y="1325" on="0"/>
        <pt x="516" y="1356" on="0"/>
        <pt x="659" y="1369" on="0"/>
        <pt x="729" y="1370" on="1"/>
        <pt x="729" y="1483" on="1"/>
        <pt x="836" y="1483" on="1"/>
        <pt x="836" y="1366" on="1"/>
        <pt x="917" y="1361" on="0"/>
        <pt x="1056" y="1333" on="0"/>
        <pt x="1170" y="1295" on="0"/>
        <pt x="1254" y="1250" on="0"/>
        <pt x="1280" y="1229" on="1"/>
        <pt x="1280" y="1346" on="1"/>
        <pt x="1393" y="1346" on="1"/>
        <pt x="1393" y="913" on="1"/>
        <pt x="1280" y="913" on="1"/>
        <pt x="1280" y="1001" on="1"/>
        <pt x="1280" y="1051" on="0"/>
        <pt x="1222" y="1141" on="0"/>
        <pt x="1110" y="1212" on="0"/>
        <pt x="944" y="1259" on="0"/>
        <pt x="836" y="1266" on="1"/>
        <pt x="836" y="754" on="1"/>
        <pt x="915" y="738" on="0"/>
        <pt x="1071" y="702" on="0"/>
        <pt x="1213" y="657" on="0"/>
        <pt x="1336" y="600" on="0"/>
        <pt x="1426" y="523" on="0"/>
        <pt x="1477" y="425" on="0"/>
        <pt x="1477" y="362" on="1"/>
        <pt x="1477" y="291" on="0"/>
        <pt x="1423" y="184" on="0"/>
        <pt x="1329" y="105" on="0"/>
        <pt x="1204" y="53" on="0"/>
        <pt x="1062" y="21" on="0"/>
        <pt x="909" y="7" on="0"/>
        <pt x="836" y="6" on="1"/>
        <pt x="836" y="-109" on="1"/>
        <pt x="729" y="-109" on="1"/>
        <pt x="729" y="8" on="1"/>
        <pt x="547" y="15" on="0"/>
        <pt x="284" y="93" on="0"/>
        <pt x="215" y="150" on="1"/>
        <pt x="215" y="33" on="1"/>
      </contour>
      <contour>
        <pt x="1350" y="360" on="1"/>
        <pt x="1350" y="426" on="0"/>
        <pt x="1265" y="517" on="0"/>
        <pt x="1123" y="580" on="0"/>
        <pt x="937" y="624" on="0"/>
        <pt x="836" y="643" on="1"/>
        <pt x="836" y="109" on="1"/>
        <pt x="949" y="110" on="0"/>
        <pt x="1138" y="140" on="0"/>
        <pt x="1274" y="201" on="0"/>
        <pt x="1350" y="295" on="0"/>
      </contour>
      <contour>
        <pt x="252" y="1032" on="1"/>
        <pt x="252" y="975" on="0"/>
        <pt x="329" y="894" on="0"/>
        <pt x="460" y="835" on="0"/>
        <pt x="633" y="793" on="0"/>
        <pt x="729" y="774" on="1"/>
        <pt x="729" y="1268" on="1"/>
        <pt x="500" y="1265" on="0"/>
        <pt x="252" y="1149" on="0"/>
      </contour>
    </TTGlyph>
    <TTGlyph name="dotaccent" xMin="449" yMin="1116" xMax="637" yMax="1305">
      <contour>
        <pt x="449" y="1208" on="1"/>
        <pt x="449" y="1228" on="0"/>
        <pt x="463" y="1264" on="0"/>
        <pt x="488" y="1290" on="0"/>
        <pt x="521" y="1305" on="0"/>
        <pt x="541" y="1305" on="1"/>
        <pt x="581" y="1305" on="0"/>
        <pt x="637" y="1249" on="0"/>
        <pt x="637" y="1208" on="1"/>
        <pt x="637" y="1189" on="0"/>
        <pt x="622" y="1155" on="0"/>
        <pt x="596" y="1130" on="0"/>
        <pt x="561" y="1116" on="0"/>
        <pt x="541" y="1116" on="1"/>
        <pt x="521" y="1116" on="0"/>
        <pt x="488" y="1130" on="0"/>
        <pt x="463" y="1155" on="0"/>
        <pt x="449" y="1189" on="0"/>
      </contour>
    </TTGlyph>
    <TTGlyph name="dotlessi" xMin="47" yMin="0" xMax="623" yMax="952">
      <contour>
        <pt x="47" y="952" on="1"/>
        <pt x="397" y="952" on="1"/>
        <pt x="397" y="113" on="1"/>
        <pt x="623" y="113" on="1"/>
        <pt x="623" y="0" on="1"/>
        <pt x="47" y="0" on="1"/>
        <pt x="47" y="113" on="1"/>
        <pt x="272" y="113" on="1"/>
        <pt x="272" y="840" on="1"/>
        <pt x="47" y="840" on="1"/>
      </contour>
    </TTGlyph>
    <TTGlyph name="dotlessj" xMin="-76" yMin="-414" xMax="453" yMax="952">
      <contour>
        <pt x="102" y="952" on="1"/>
        <pt x="453" y="952" on="1"/>
        <pt x="453" y="-94" on="1"/>
        <pt x="453" y="-255" on="0"/>
        <pt x="297" y="-414" on="0"/>
        <pt x="147" y="-414" on="1"/>
        <pt x="108" y="-414" on="0"/>
        <pt x="37" y="-400" on="0"/>
        <pt x="-21" y="-379" on="0"/>
        <pt x="-64" y="-355" on="0"/>
        <pt x="-76" y="-346" on="1"/>
        <pt x="-25" y="-244" on="1"/>
        <pt x="-16" y="-252" on="0"/>
        <pt x="17" y="-273" on="0"/>
        <pt x="61" y="-291" on="0"/>
        <pt x="115" y="-303" on="0"/>
        <pt x="147" y="-303" on="1"/>
        <pt x="192" y="-303" on="0"/>
        <pt x="260" y="-282" on="0"/>
        <pt x="305" y="-232" on="0"/>
        <pt x="328" y="-153" on="0"/>
        <pt x="328" y="-94" on="1"/>
        <pt x="328" y="840" on="1"/>
        <pt x="102" y="840" on="1"/>
      </contour>
    </TTGlyph>
    <TTGlyph name="e" xMin="98" yMin="-25" xMax="1235" yMax="973">
      <contour>
        <pt x="1106" y="524" on="1"/>
        <pt x="1101" y="592" on="0"/>
        <pt x="1049" y="714" on="0"/>
        <pt x="945" y="807" on="0"/>
        <pt x="787" y="862" on="0"/>
        <pt x="676" y="862" on="1"/>
        <pt x="572" y="862" on="0"/>
        <pt x="412" y="807" on="0"/>
        <pt x="300" y="714" on="0"/>
        <pt x="236" y="592" on="0"/>
        <pt x="227" y="524" on="1"/>
      </contour>
      <contour>
        <pt x="674" y="-25" on="1"/>
        <pt x="543" y="-25" on="0"/>
        <pt x="330" y="44" on="0"/>
        <pt x="180" y="173" on="0"/>
        <pt x="98" y="357" on="0"/>
        <pt x="98" y="471" on="1"/>
        <pt x="98" y="582" on="0"/>
        <pt x="184" y="767" on="0"/>
        <pt x="338" y="900" on="0"/>
        <pt x="550" y="973" on="0"/>
        <pt x="676" y="973" on="1"/>
        <pt x="807" y="973" on="0"/>
        <pt x="1015" y="899" on="0"/>
        <pt x="1159" y="760" on="0"/>
        <pt x="1235" y="562" on="0"/>
        <pt x="1235" y="438" on="1"/>
        <pt x="1235" y="416" on="1"/>
        <pt x="227" y="416" on="1"/>
        <pt x="234" y="340" on="0"/>
        <pt x="299" y="218" on="0"/>
        <pt x="413" y="132" on="0"/>
        <pt x="572" y="86" on="0"/>
        <pt x="674" y="86" on="1"/>
        <pt x="772" y="86" on="0"/>
        <pt x="917" y="118" on="0"/>
        <pt x="1018" y="172" on="0"/>
        <pt x="1081" y="240" on="0"/>
        <pt x="1098" y="276" on="1"/>
        <pt x="1223" y="276" on="1"/>
        <pt x="1164" y="124" on="0"/>
        <pt x="881" y="-25" on="0"/>
      </contour>
    </TTGlyph>
    <TTGlyph name="eacute" xMin="98" yMin="-25" xMax="1235" yMax="1395">
      <component glyphName="e" x="0" y="0" flags="0x204"/>
      <component glyphName="acute" x="135" y="0" flags="0x4"/>
    </TTGlyph>
    <TTGlyph name="ebreve" xMin="98" yMin="-25" xMax="1235" yMax="1350">
      <component glyphName="e" x="0" y="0" flags="0x204"/>
      <component glyphName="breve" x="135" y="0" flags="0x4"/>
    </TTGlyph>
    <TTGlyph name="ecaron" xMin="98" yMin="-25" xMax="1235" yMax="1395">
      <component glyphName="e" x="0" y="0" flags="0x204"/>
      <component glyphName="caron" x="135" y="0" flags="0x4"/>
    </TTGlyph>
    <TTGlyph name="ecircumflex" xMin="98" yMin="-25" xMax="1235" yMax="1397">
      <component glyphName="e" x="0" y="0" flags="0x204"/>
      <component glyphName="circumflex" x="135" y="0" flags="0x4"/>
    </TTGlyph>
    <TTGlyph name="edieresis" xMin="98" yMin="-25" xMax="1235" yMax="1294">
      <component glyphName="e" x="0" y="0" flags="0x204"/>
      <component glyphName="dieresis" x="135" y="0" flags="0x4"/>
    </TTGlyph>
    <TTGlyph name="edotaccent" xMin="98" yMin="-25" xMax="1235" yMax="1305">
      <component glyphName="e" x="0" y="0" flags="0x204"/>
      <component glyphName="dotaccent" x="135" y="0" flags="0x4"/>
    </TTGlyph>
    <TTGlyph name="egrave" xMin="98" yMin="-25" xMax="1235" yMax="1395">
      <component glyphName="e" x="0" y="0" flags="0x204"/>
      <component glyphName="grave" x="135" y="0" flags="0x4"/>
    </TTGlyph>
    <TTGlyph name="eight" xMin="111" yMin="-27" xMax="1516" yMax="1399">
      <contour>
        <pt x="1106" y="750" on="1"/>
        <pt x="1310" y="719" on="0"/>
        <pt x="1516" y="524" on="0"/>
        <pt x="1516" y="375" on="1"/>
        <pt x="1516" y="283" on="0"/>
        <pt x="1423" y="135" on="0"/>
        <pt x="1244" y="30" on="0"/>
        <pt x="981" y="-27" on="0"/>
        <pt x="811" y="-27" on="1"/>
        <pt x="641" y="-27" on="0"/>
        <pt x="380" y="30" on="0"/>
        <pt x="202" y="135" on="0"/>
        <pt x="111" y="283" on="0"/>
        <pt x="111" y="375" on="1"/>
        <pt x="111" y="449" on="0"/>
        <pt x="162" y="575" on="0"/>
        <pt x="263" y="672" on="0"/>
        <pt x="415" y="739" on="0"/>
        <pt x="516" y="754" on="1"/>
        <pt x="430" y="775" on="0"/>
        <pt x="315" y="834" on="0"/>
        <pt x="246" y="907" on="0"/>
        <pt x="217" y="994" on="0"/>
        <pt x="217" y="1044" on="1"/>
        <pt x="217" y="1129" on="0"/>
        <pt x="302" y="1262" on="0"/>
        <pt x="458" y="1352" on="0"/>
        <pt x="677" y="1399" on="0"/>
        <pt x="811" y="1399" on="1"/>
        <pt x="862" y="1399" on="0"/>
        <pt x="991" y="1389" on="0"/>
        <pt x="1124" y="1360" on="0"/>
        <pt x="1251" y="1311" on="0"/>
        <pt x="1351" y="1232" on="0"/>
        <pt x="1411" y="1120" on="0"/>
        <pt x="1411" y="1044" on="1"/>
        <pt x="1411" y="994" on="0"/>
        <pt x="1380" y="906" on="0"/>
        <pt x="1309" y="831" on="0"/>
        <pt x="1192" y="771" on="0"/>
      </contour>
      <contour>
        <pt x="1288" y="1044" on="1"/>
        <pt x="1288" y="1093" on="0"/>
        <pt x="1236" y="1183" on="0"/>
        <pt x="1122" y="1252" on="0"/>
        <pt x="941" y="1292" on="0"/>
        <pt x="811" y="1292" on="1"/>
        <pt x="680" y="1292" on="0"/>
        <pt x="501" y="1252" on="0"/>
        <pt x="389" y="1183" on="0"/>
        <pt x="340" y="1093" on="0"/>
        <pt x="340" y="1044" on="1"/>
        <pt x="340" y="995" on="0"/>
        <pt x="396" y="905" on="0"/>
        <pt x="512" y="837" on="0"/>
        <pt x="689" y="797" on="0"/>
        <pt x="811" y="797" on="1"/>
        <pt x="932" y="797" on="0"/>
        <pt x="1112" y="837" on="0"/>
        <pt x="1230" y="905" on="0"/>
        <pt x="1288" y="995" on="0"/>
      </contour>
      <contour>
        <pt x="811" y="696" on="1"/>
        <pt x="677" y="696" on="0"/>
        <pt x="465" y="654" on="0"/>
        <pt x="317" y="575" on="0"/>
        <pt x="238" y="461" on="0"/>
        <pt x="238" y="389" on="1"/>
        <pt x="238" y="317" on="0"/>
        <pt x="311" y="202" on="0"/>
        <pt x="455" y="123" on="0"/>
        <pt x="670" y="80" on="0"/>
        <pt x="811" y="80" on="1"/>
        <pt x="952" y="80" on="0"/>
        <pt x="1168" y="123" on="0"/>
        <pt x="1314" y="202" on="0"/>
        <pt x="1389" y="317" on="0"/>
        <pt x="1389" y="389" on="1"/>
        <pt x="1389" y="461" on="0"/>
        <pt x="1308" y="575" on="0"/>
        <pt x="1158" y="654" on="0"/>
        <pt x="944" y="696" on="0"/>
      </contour>
    </TTGlyph>
    <TTGlyph name="ellipsis" xMin="123" yMin="-10" xMax="1321" yMax="225">
      <contour>
        <pt x="123" y="106" on="1"/>
        <pt x="123" y="131" on="0"/>
        <pt x="141" y="174" on="0"/>
        <pt x="172" y="206" on="0"/>
        <pt x="215" y="225" on="0"/>
        <pt x="240" y="225" on="1"/>
        <pt x="264" y="225" on="0"/>
        <pt x="307" y="206" on="0"/>
        <pt x="339" y="174" on="0"/>
        <pt x="358" y="131" on="0"/>
        <pt x="358" y="106" on="1"/>
        <pt x="358" y="82" on="0"/>
        <pt x="339" y="39" on="0"/>
        <pt x="307" y="8" on="0"/>
        <pt x="264" y="-10" on="0"/>
        <pt x="240" y="-10" on="1"/>
        <pt x="215" y="-10" on="0"/>
        <pt x="172" y="8" on="0"/>
        <pt x="141" y="39" on="0"/>
        <pt x="123" y="82" on="0"/>
      </contour>
      <contour>
        <pt x="604" y="106" on="1"/>
        <pt x="604" y="131" on="0"/>
        <pt x="622" y="174" on="0"/>
        <pt x="653" y="206" on="0"/>
        <pt x="696" y="225" on="0"/>
        <pt x="721" y="225" on="1"/>
        <pt x="745" y="225" on="0"/>
        <pt x="789" y="206" on="0"/>
        <pt x="821" y="174" on="0"/>
        <pt x="840" y="131" on="0"/>
        <pt x="840" y="106" on="1"/>
        <pt x="840" y="82" on="0"/>
        <pt x="821" y="39" on="0"/>
        <pt x="789" y="8" on="0"/>
        <pt x="745" y="-10" on="0"/>
        <pt x="721" y="-10" on="1"/>
        <pt x="696" y="-10" on="0"/>
        <pt x="653" y="8" on="0"/>
        <pt x="622" y="39" on="0"/>
        <pt x="604" y="82" on="0"/>
      </contour>
      <contour>
        <pt x="1085" y="106" on="1"/>
        <pt x="1085" y="131" on="0"/>
        <pt x="1103" y="174" on="0"/>
        <pt x="1135" y="206" on="0"/>
        <pt x="1178" y="225" on="0"/>
        <pt x="1202" y="225" on="1"/>
        <pt x="1227" y="225" on="0"/>
        <pt x="1270" y="206" on="0"/>
        <pt x="1302" y="174" on="0"/>
        <pt x="1321" y="131" on="0"/>
        <pt x="1321" y="106" on="1"/>
        <pt x="1321" y="82" on="0"/>
        <pt x="1302" y="39" on="0"/>
        <pt x="1270" y="8" on="0"/>
        <pt x="1227" y="-10" on="0"/>
        <pt x="1202" y="-10" on="1"/>
        <pt x="1178" y="-10" on="0"/>
        <pt x="1135" y="8" on="0"/>
        <pt x="1103" y="39" on="0"/>
        <pt x="1085" y="82" on="0"/>
      </contour>
    </TTGlyph>
    <TTGlyph name="emacron" xMin="98" yMin="-25" xMax="1235" yMax="1243">
      <component glyphName="e" x="0" y="0" flags="0x204"/>
      <component glyphName="macron" x="135" y="0" flags="0x4"/>
    </TTGlyph>
    <TTGlyph name="emdash" xMin="0" yMin="430" xMax="2048" yMax="541">
      <contour>
        <pt x="0" y="430" on="1"/>
        <pt x="0" y="541" on="1"/>
        <pt x="2048" y="541" on="1"/>
        <pt x="2048" y="430" on="1"/>
      </contour>
    </TTGlyph>
    <TTGlyph name="endash" xMin="41" yMin="430" xMax="819" yMax="541">
      <contour>
        <pt x="41" y="430" on="1"/>
        <pt x="41" y="541" on="1"/>
        <pt x="819" y="541" on="1"/>
        <pt x="819" y="430" on="1"/>
      </contour>
    </TTGlyph>
    <TTGlyph name="eng" xMin="47" yMin="-393" xMax="1290" yMax="985">
      <contour>
        <pt x="813" y="-223" on="1"/>
        <pt x="822" y="-232" on="0"/>
        <pt x="855" y="-253" on="0"/>
        <pt x="899" y="-271" on="0"/>
        <pt x="953" y="-283" on="0"/>
        <pt x="985" y="-283" on="1"/>
        <pt x="1030" y="-283" on="0"/>
        <pt x="1098" y="-261" on="0"/>
        <pt x="1143" y="-212" on="0"/>
        <pt x="1165" y="-132" on="0"/>
        <pt x="1165" y="-74" on="1"/>
        <pt x="1165" y="616" on="1"/>
        <pt x="1165" y="692" on="0"/>
        <pt x="1126" y="791" on="0"/>
        <pt x="1054" y="849" on="0"/>
        <pt x="951" y="872" on="0"/>
        <pt x="887" y="872" on="1"/>
        <pt x="812" y="872" on="0"/>
        <pt x="668" y="832" on="0"/>
        <pt x="541" y="772" on="0"/>
        <pt x="434" y="699" on="0"/>
        <pt x="397" y="666" on="1"/>
        <pt x="397" y="113" on="1"/>
        <pt x="623" y="113" on="1"/>
        <pt x="623" y="0" on="1"/>
        <pt x="47" y="0" on="1"/>
        <pt x="47" y="113" on="1"/>
        <pt x="272" y="113" on="1"/>
        <pt x="272" y="840" on="1"/>
        <pt x="47" y="840" on="1"/>
        <pt x="47" y="952" on="1"/>
        <pt x="397" y="952" on="1"/>
        <pt x="397" y="772" on="1"/>
        <pt x="444" y="817" on="0"/>
        <pt x="560" y="894" on="0"/>
        <pt x="694" y="952" on="0"/>
        <pt x="842" y="985" on="0"/>
        <pt x="920" y="985" on="1"/>
        <pt x="1013" y="985" on="0"/>
        <pt x="1152" y="938" on="0"/>
        <pt x="1244" y="852" on="0"/>
        <pt x="1290" y="729" on="0"/>
        <pt x="1290" y="653" on="1"/>
        <pt x="1290" y="-74" on="1"/>
        <pt x="1290" y="-235" on="0"/>
        <pt x="1135" y="-393" on="0"/>
        <pt x="985" y="-393" on="1"/>
        <pt x="946" y="-393" on="0"/>
        <pt x="875" y="-379" on="0"/>
        <pt x="817" y="-358" on="0"/>
        <pt x="774" y="-335" on="0"/>
        <pt x="762" y="-326" on="1"/>
        <pt x="813" y="-223" on="1"/>
      </contour>
    </TTGlyph>
    <TTGlyph name="eogonek" xMin="98" yMin="-356" xMax="1235" yMax="973">
      <contour>
        <pt x="674" y="-25" on="1"/>
        <pt x="543" y="-25" on="0"/>
        <pt x="330" y="44" on="0"/>
        <pt x="180" y="173" on="0"/>
        <pt x="98" y="357" on="0"/>
        <pt x="98" y="471" on="1"/>
        <pt x="98" y="582" on="0"/>
        <pt x="184" y="767" on="0"/>
        <pt x="338" y="900" on="0"/>
        <pt x="550" y="973" on="0"/>
        <pt x="676" y="973" on="1"/>
        <pt x="807" y="973" on="0"/>
        <pt x="1015" y="899" on="0"/>
        <pt x="1159" y="760" on="0"/>
        <pt x="1235" y="562" on="0"/>
        <pt x="1235" y="438" on="1"/>
        <pt x="1235" y="416" on="1"/>
        <pt x="227" y="416" on="1"/>
        <pt x="234" y="340" on="0"/>
        <pt x="299" y="218" on="0"/>
        <pt x="413" y="132" on="0"/>
        <pt x="572" y="86" on="0"/>
        <pt x="674" y="86" on="1"/>
        <pt x="772" y="86" on="0"/>
        <pt x="917" y="118" on="0"/>
        <pt x="1018" y="172" on="0"/>
        <pt x="1081" y="240" on="0"/>
        <pt x="1098" y="276" on="1"/>
        <pt x="1223" y="276" on="1"/>
        <pt x="1188" y="183" on="0"/>
        <pt x="1061" y="65" on="0"/>
        <pt x="975" y="25" on="1"/>
        <pt x="948" y="13" on="0"/>
        <pt x="877" y="-35" on="0"/>
        <pt x="814" y="-93" on="0"/>
        <pt x="770" y="-155" on="0"/>
        <pt x="770" y="-182" on="1"/>
        <pt x="770" y="-224" on="0"/>
        <pt x="838" y="-262" on="0"/>
        <pt x="901" y="-262" on="1"/>
        <pt x="943" y="-262" on="0"/>
        <pt x="1027" y="-241" on="0"/>
        <pt x="1055" y="-227" on="1"/>
        <pt x="1092" y="-317" on="1"/>
        <pt x="1075" y="-326" on="0"/>
        <pt x="1029" y="-340" on="0"/>
        <pt x="975" y="-350" on="0"/>
        <pt x="917" y="-356" on="0"/>
        <pt x="889" y="-356" on="1"/>
        <pt x="777" y="-356" on="0"/>
        <pt x="655" y="-285" on="0"/>
        <pt x="655" y="-205" on="1"/>
        <pt x="655" y="-101" on="0"/>
        <pt x="782" y="-18" on="1"/>
        <pt x="756" y="-22" on="0"/>
        <pt x="702" y="-25" on="0"/>
      </contour>
      <contour>
        <pt x="1106" y="524" on="1"/>
        <pt x="1101" y="592" on="0"/>
        <pt x="1049" y="714" on="0"/>
        <pt x="945" y="807" on="0"/>
        <pt x="787" y="862" on="0"/>
        <pt x="676" y="862" on="1"/>
        <pt x="572" y="862" on="0"/>
        <pt x="412" y="807" on="0"/>
        <pt x="300" y="714" on="0"/>
        <pt x="236" y="592" on="0"/>
        <pt x="227" y="524" on="1"/>
      </contour>
    </TTGlyph>
    <TTGlyph name="equal" xMin="172" yMin="438" xMax="1128" yMax="930">
      <contour>
        <pt x="172" y="821" on="1"/>
        <pt x="172" y="930" on="1"/>
        <pt x="1128" y="930" on="1"/>
        <pt x="1128" y="821" on="1"/>
      </contour>
      <contour>
        <pt x="172" y="438" on="1"/>
        <pt x="172" y="549" on="1"/>
        <pt x="1128" y="549" on="1"/>
        <pt x="1128" y="438" on="1"/>
      </contour>
    </TTGlyph>
    <TTGlyph name="eth" xMin="98" yMin="-27" xMax="1321" yMax="1407">
      <contour>
        <pt x="971" y="1208" on="1"/>
        <pt x="1141" y="1078" on="0"/>
        <pt x="1321" y="722" on="0"/>
        <pt x="1321" y="496" on="1"/>
        <pt x="1321" y="358" on="0"/>
        <pt x="1227" y="160" on="0"/>
        <pt x="1063" y="33" on="0"/>
        <pt x="841" y="-27" on="0"/>
        <pt x="713" y="-27" on="1"/>
        <pt x="582" y="-27" on="0"/>
        <pt x="358" y="27" on="0"/>
        <pt x="192" y="144" on="0"/>
        <pt x="98" y="328" on="0"/>
        <pt x="98" y="459" on="1"/>
        <pt x="98" y="589" on="0"/>
        <pt x="201" y="776" on="0"/>
        <pt x="376" y="896" on="0"/>
        <pt x="606" y="952" on="0"/>
        <pt x="733" y="952" on="1"/>
        <pt x="798" y="952" on="0"/>
        <pt x="905" y="941" on="0"/>
        <pt x="995" y="923" on="0"/>
        <pt x="1071" y="898" on="0"/>
        <pt x="1106" y="883" on="1"/>
        <pt x="1059" y="971" on="0"/>
        <pt x="925" y="1109" on="0"/>
        <pt x="842" y="1163" on="1"/>
        <pt x="504" y="1049" on="1"/>
        <pt x="469" y="1147" on="1"/>
        <pt x="723" y="1233" on="1"/>
        <pt x="677" y="1256" on="0"/>
        <pt x="579" y="1294" on="0"/>
        <pt x="528" y="1311" on="1"/>
        <pt x="569" y="1407" on="1"/>
        <pt x="651" y="1382" on="0"/>
        <pt x="798" y="1318" on="0"/>
        <pt x="864" y="1280" on="1"/>
        <pt x="1188" y="1391" on="1"/>
        <pt x="1225" y="1294" on="1"/>
      </contour>
      <contour>
        <pt x="1198" y="496" on="1"/>
        <pt x="1198" y="564" on="0"/>
        <pt x="1181" y="684" on="0"/>
        <pt x="1165" y="739" on="1"/>
        <pt x="1135" y="760" on="0"/>
        <pt x="1054" y="799" on="0"/>
        <pt x="949" y="828" on="0"/>
        <pt x="819" y="846" on="0"/>
        <pt x="739" y="846" on="1"/>
        <pt x="602" y="846" on="0"/>
        <pt x="406" y="797" on="0"/>
        <pt x="280" y="700" on="0"/>
        <pt x="221" y="555" on="0"/>
        <pt x="221" y="459" on="1"/>
        <pt x="221" y="266" on="0"/>
        <pt x="466" y="80" on="0"/>
        <pt x="715" y="80" on="1"/>
        <pt x="956" y="80" on="0"/>
        <pt x="1198" y="287" on="0"/>
      </contour>
    </TTGlyph>
    <TTGlyph name="exclam" xMin="164" yMin="-10" xMax="399" yMax="1399">
      <contour>
        <pt x="322" y="328" on="1"/>
        <pt x="238" y="328" on="1"/>
        <pt x="203" y="1157" on="1"/>
        <pt x="203" y="1323" on="1"/>
        <pt x="203" y="1352" on="0"/>
        <pt x="237" y="1399" on="0"/>
        <pt x="279" y="1399" on="1"/>
        <pt x="321" y="1399" on="0"/>
        <pt x="356" y="1352" on="0"/>
        <pt x="356" y="1323" on="1"/>
        <pt x="356" y="1157" on="1"/>
      </contour>
      <contour>
        <pt x="164" y="106" on="1"/>
        <pt x="164" y="131" on="0"/>
        <pt x="182" y="174" on="0"/>
        <pt x="213" y="206" on="0"/>
        <pt x="256" y="225" on="0"/>
        <pt x="281" y="225" on="1"/>
        <pt x="305" y="225" on="0"/>
        <pt x="348" y="206" on="0"/>
        <pt x="380" y="174" on="0"/>
        <pt x="399" y="131" on="0"/>
        <pt x="399" y="106" on="1"/>
        <pt x="399" y="82" on="0"/>
        <pt x="380" y="39" on="0"/>
        <pt x="348" y="8" on="0"/>
        <pt x="305" y="-10" on="0"/>
        <pt x="281" y="-10" on="1"/>
        <pt x="256" y="-10" on="0"/>
        <pt x="213" y="8" on="0"/>
        <pt x="182" y="39" on="0"/>
        <pt x="164" y="82" on="0"/>
      </contour>
    </TTGlyph>
    <TTGlyph name="exclamdown" xMin="164" yMin="-358" xMax="399" yMax="1051">
      <contour>
        <pt x="242" y="713" on="1"/>
        <pt x="326" y="713" on="1"/>
        <pt x="360" y="-117" on="1"/>
        <pt x="360" y="-283" on="1"/>
        <pt x="360" y="-312" on="0"/>
        <pt x="326" y="-358" on="0"/>
        <pt x="285" y="-358" on="1"/>
        <pt x="243" y="-358" on="0"/>
        <pt x="207" y="-312" on="0"/>
        <pt x="207" y="-283" on="1"/>
        <pt x="207" y="-117" on="1"/>
      </contour>
      <contour>
        <pt x="399" y="934" on="1"/>
        <pt x="399" y="909" on="0"/>
        <pt x="381" y="866" on="0"/>
        <pt x="350" y="834" on="0"/>
        <pt x="307" y="815" on="0"/>
        <pt x="283" y="815" on="1"/>
        <pt x="258" y="815" on="0"/>
        <pt x="215" y="834" on="0"/>
        <pt x="183" y="866" on="0"/>
        <pt x="164" y="909" on="0"/>
        <pt x="164" y="934" on="1"/>
        <pt x="164" y="958" on="0"/>
        <pt x="183" y="1001" on="0"/>
        <pt x="215" y="1033" on="0"/>
        <pt x="258" y="1051" on="0"/>
        <pt x="283" y="1051" on="1"/>
        <pt x="307" y="1051" on="0"/>
        <pt x="350" y="1033" on="0"/>
        <pt x="381" y="1001" on="0"/>
        <pt x="399" y="958" on="0"/>
      </contour>
    </TTGlyph>
    <TTGlyph name="f" xMin="47" yMin="0" xMax="1100" yMax="1395">
      <contour>
        <pt x="47" y="952" on="1"/>
        <pt x="272" y="952" on="1"/>
        <pt x="272" y="1032" on="1"/>
        <pt x="272" y="1120" on="0"/>
        <pt x="339" y="1256" on="0"/>
        <pt x="460" y="1348" on="0"/>
        <pt x="629" y="1395" on="0"/>
        <pt x="731" y="1395" on="1"/>
        <pt x="795" y="1395" on="0"/>
        <pt x="901" y="1382" on="0"/>
        <pt x="990" y="1360" on="0"/>
        <pt x="1066" y="1332" on="0"/>
        <pt x="1100" y="1317" on="1"/>
        <pt x="1051" y="1208" on="1"/>
        <pt x="1017" y="1226" on="0"/>
        <pt x="958" y="1254" on="0"/>
        <pt x="885" y="1275" on="0"/>
        <pt x="786" y="1286" on="0"/>
        <pt x="713" y="1286" on="1"/>
        <pt x="648" y="1286" on="0"/>
        <pt x="533" y="1255" on="0"/>
        <pt x="447" y="1192" on="0"/>
        <pt x="397" y="1098" on="0"/>
        <pt x="397" y="1036" on="1"/>
        <pt x="397" y="952" on="1"/>
        <pt x="823" y="952" on="1"/>
        <pt x="823" y="840" on="1"/>
        <pt x="397" y="840" on="1"/>
        <pt x="397" y="113" on="1"/>
        <pt x="700" y="113" on="1"/>
        <pt x="700" y="0" on="1"/>
        <pt x="47" y="0" on="1"/>
        <pt x="47" y="113" on="1"/>
        <pt x="272" y="113" on="1"/>
        <pt x="272" y="840" on="1"/>
        <pt x="47" y="840" on="1"/>
      </contour>
    </TTGlyph>
    <TTGlyph name="fi" xMin="47" yMin="0" xMax="1438" yMax="1395">
      <contour>
        <pt x="862" y="113" on="1"/>
        <pt x="1087" y="113" on="1"/>
        <pt x="1087" y="840" on="1"/>
        <pt x="397" y="840" on="1"/>
        <pt x="397" y="113" on="1"/>
        <pt x="700" y="113" on="1"/>
        <pt x="700" y="0" on="1"/>
        <pt x="47" y="0" on="1"/>
        <pt x="47" y="113" on="1"/>
        <pt x="272" y="113" on="1"/>
        <pt x="272" y="840" on="1"/>
        <pt x="47" y="840" on="1"/>
        <pt x="47" y="952" on="1"/>
        <pt x="272" y="952" on="1"/>
        <pt x="272" y="1032" on="1"/>
        <pt x="272" y="1120" on="0"/>
        <pt x="339" y="1256" on="0"/>
        <pt x="460" y="1348" on="0"/>
        <pt x="629" y="1395" on="0"/>
        <pt x="731" y="1395" on="1"/>
        <pt x="795" y="1395" on="0"/>
        <pt x="901" y="1382" on="0"/>
        <pt x="990" y="1360" on="0"/>
        <pt x="1066" y="1332" on="0"/>
        <pt x="1100" y="1317" on="1"/>
        <pt x="1051" y="1208" on="1"/>
        <pt x="1017" y="1226" on="0"/>
        <pt x="958" y="1254" on="0"/>
        <pt x="885" y="1275" on="0"/>
        <pt x="786" y="1286" on="0"/>
        <pt x="713" y="1286" on="1"/>
        <pt x="648" y="1286" on="0"/>
        <pt x="533" y="1255" on="0"/>
        <pt x="447" y="1192" on="0"/>
        <pt x="397" y="1098" on="0"/>
        <pt x="397" y="1036" on="1"/>
        <pt x="397" y="952" on="1"/>
        <pt x="1212" y="952" on="1"/>
        <pt x="1212" y="113" on="1"/>
        <pt x="1438" y="113" on="1"/>
        <pt x="1438" y="0" on="1"/>
        <pt x="862" y="0" on="1"/>
      </contour>
    </TTGlyph>
    <TTGlyph name="five" xMin="102" yMin="-29" xMax="1423" yMax="1374">
      <contour>
        <pt x="291" y="811" on="1"/>
        <pt x="326" y="830" on="0"/>
        <pt x="426" y="861" on="0"/>
        <pt x="544" y="883" on="0"/>
        <pt x="675" y="895" on="0"/>
        <pt x="743" y="895" on="1"/>
        <pt x="924" y="895" on="0"/>
        <pt x="1181" y="825" on="0"/>
        <pt x="1346" y="700" on="0"/>
        <pt x="1423" y="528" on="0"/>
        <pt x="1423" y="426" on="1"/>
        <pt x="1423" y="332" on="0"/>
        <pt x="1349" y="167" on="0"/>
        <pt x="1190" y="44" on="0"/>
        <pt x="943" y="-27" on="0"/>
        <pt x="770" y="-27" on="1"/>
        <pt x="642" y="-29" on="0"/>
        <pt x="402" y="21" on="0"/>
        <pt x="215" y="130" on="0"/>
        <pt x="102" y="304" on="0"/>
        <pt x="102" y="426" on="1"/>
        <pt x="229" y="426" on="1"/>
        <pt x="229" y="339" on="0"/>
        <pt x="310" y="209" on="0"/>
        <pt x="455" y="123" on="0"/>
        <pt x="655" y="80" on="0"/>
        <pt x="774" y="80" on="1"/>
        <pt x="905" y="80" on="0"/>
        <pt x="1101" y="131" on="0"/>
        <pt x="1231" y="223" on="0"/>
        <pt x="1296" y="350" on="0"/>
        <pt x="1296" y="426" on="1"/>
        <pt x="1296" y="601" on="0"/>
        <pt x="1028" y="788" on="0"/>
        <pt x="754" y="788" on="1"/>
        <pt x="586" y="788" on="0"/>
        <pt x="345" y="735" on="0"/>
        <pt x="264" y="670" on="1"/>
        <pt x="162" y="670" on="1"/>
        <pt x="225" y="1374" on="1"/>
        <pt x="1311" y="1374" on="1"/>
        <pt x="1311" y="1260" on="1"/>
        <pt x="332" y="1260" on="1"/>
      </contour>
    </TTGlyph>
    <TTGlyph name="fl" xMin="47" yMin="0" xMax="1444" yMax="1395">
      <contour>
        <pt x="1165" y="311" on="1"/>
        <pt x="1165" y="251" on="0"/>
        <pt x="1185" y="176" on="0"/>
        <pt x="1229" y="135" on="0"/>
        <pt x="1298" y="121" on="0"/>
        <pt x="1346" y="121" on="1"/>
        <pt x="1444" y="121" on="1"/>
        <pt x="1444" y="0" on="1"/>
        <pt x="1348" y="0" on="1"/>
        <pt x="1268" y="0" on="0"/>
        <pt x="1152" y="29" on="0"/>
        <pt x="1076" y="101" on="0"/>
        <pt x="1040" y="222" on="0"/>
        <pt x="1040" y="315" on="1"/>
        <pt x="1040" y="1253" on="1"/>
        <pt x="1008" y="1265" on="0"/>
        <pt x="931" y="1278" on="0"/>
        <pt x="852" y="1284" on="0"/>
        <pt x="780" y="1286" on="0"/>
        <pt x="754" y="1286" on="1"/>
        <pt x="689" y="1286" on="0"/>
        <pt x="561" y="1255" on="0"/>
        <pt x="460" y="1192" on="0"/>
        <pt x="397" y="1098" on="0"/>
        <pt x="397" y="1036" on="1"/>
        <pt x="397" y="952" on="1"/>
        <pt x="823" y="952" on="1"/>
        <pt x="823" y="840" on="1"/>
        <pt x="397" y="840" on="1"/>
        <pt x="397" y="113" on="1"/>
        <pt x="700" y="113" on="1"/>
        <pt x="700" y="0" on="1"/>
        <pt x="47" y="0" on="1"/>
        <pt x="47" y="113" on="1"/>
        <pt x="272" y="113" on="1"/>
        <pt x="272" y="840" on="1"/>
        <pt x="47" y="840" on="1"/>
        <pt x="47" y="952" on="1"/>
        <pt x="272" y="952" on="1"/>
        <pt x="272" y="1032" on="1"/>
        <pt x="272" y="1120" on="0"/>
        <pt x="352" y="1256" on="0"/>
        <pt x="488" y="1348" on="0"/>
        <pt x="670" y="1395" on="0"/>
        <pt x="772" y="1395" on="1"/>
        <pt x="820" y="1395" on="0"/>
        <pt x="895" y="1392" on="0"/>
        <pt x="956" y="1386" on="0"/>
        <pt x="1011" y="1378" on="0"/>
        <pt x="1040" y="1374" on="1"/>
        <pt x="1165" y="1374" on="1"/>
      </contour>
    </TTGlyph>
    <TTGlyph name="florin" xMin="59" yMin="-70" xMax="1647" yMax="1399">
      <contour>
        <pt x="348" y="39" on="1"/>
        <pt x="434" y="39" on="0"/>
        <pt x="554" y="82" on="0"/>
        <pt x="640" y="166" on="0"/>
        <pt x="698" y="290" on="0"/>
        <pt x="723" y="371" on="1"/>
        <pt x="862" y="831" on="1"/>
        <pt x="555" y="831" on="1"/>
        <pt x="555" y="938" on="1"/>
        <pt x="893" y="938" on="1"/>
        <pt x="924" y="1049" on="1"/>
        <pt x="974" y="1222" on="0"/>
        <pt x="1186" y="1399" on="0"/>
        <pt x="1356" y="1399" on="1"/>
        <pt x="1405" y="1399" on="0"/>
        <pt x="1493" y="1382" on="0"/>
        <pt x="1567" y="1356" on="0"/>
        <pt x="1626" y="1326" on="0"/>
        <pt x="1647" y="1313" on="1"/>
        <pt x="1579" y="1214" on="1"/>
        <pt x="1561" y="1226" on="0"/>
        <pt x="1517" y="1253" on="0"/>
        <pt x="1462" y="1276" on="0"/>
        <pt x="1396" y="1290" on="0"/>
        <pt x="1358" y="1290" on="1"/>
        <pt x="1292" y="1290" on="0"/>
        <pt x="1189" y="1250" on="0"/>
        <pt x="1112" y="1178" on="0"/>
        <pt x="1061" y="1081" on="0"/>
        <pt x="1047" y="1024" on="1"/>
        <pt x="1024" y="938" on="1"/>
        <pt x="1346" y="938" on="1"/>
        <pt x="1346" y="831" on="1"/>
        <pt x="993" y="831" on="1"/>
        <pt x="854" y="373" on="1"/>
        <pt x="825" y="277" on="0"/>
        <pt x="753" y="115" on="0"/>
        <pt x="639" y="-4" on="0"/>
        <pt x="472" y="-70" on="0"/>
        <pt x="350" y="-70" on="1"/>
        <pt x="301" y="-70" on="0"/>
        <pt x="213" y="-53" on="0"/>
        <pt x="139" y="-27" on="0"/>
        <pt x="80" y="3" on="0"/>
        <pt x="59" y="16" on="1"/>
        <pt x="127" y="115" on="1"/>
        <pt x="145" y="103" on="0"/>
        <pt x="189" y="76" on="0"/>
        <pt x="244" y="53" on="0"/>
        <pt x="310" y="39" on="0"/>
      </contour>
    </TTGlyph>
    <TTGlyph name="four" xMin="61" yMin="0" xMax="1513" yMax="1374">
      <contour>
        <pt x="717" y="113" on="1"/>
        <pt x="1038" y="113" on="1"/>
        <pt x="1038" y="352" on="1"/>
        <pt x="61" y="352" on="1"/>
        <pt x="61" y="463" on="1"/>
        <pt x="950" y="1374" on="1"/>
        <pt x="1161" y="1374" on="1"/>
        <pt x="1161" y="467" on="1"/>
        <pt x="1513" y="467" on="1"/>
        <pt x="1513" y="352" on="1"/>
        <pt x="1161" y="352" on="1"/>
        <pt x="1161" y="113" on="1"/>
        <pt x="1454" y="113" on="1"/>
        <pt x="1454" y="0" on="1"/>
        <pt x="717" y="0" on="1"/>
      </contour>
      <contour>
        <pt x="1038" y="1300" on="1"/>
        <pt x="225" y="467" on="1"/>
        <pt x="1038" y="467" on="1"/>
      </contour>
    </TTGlyph>
    <TTGlyph name="fraction" xMin="-406" yMin="0" xMax="811" yMax="1374">
      <contour>
        <pt x="-276" y="0" on="1"/>
        <pt x="-406" y="0" on="1"/>
        <pt x="684" y="1374" on="1"/>
        <pt x="811" y="1374" on="1"/>
      </contour>
    </TTGlyph>
    <TTGlyph name="g" xMin="98" yMin="-414" xMax="1470" yMax="979">
      <contour>
        <pt x="641" y="-414" on="1"/>
        <pt x="498" y="-414" on="0"/>
        <pt x="257" y="-358" on="0"/>
        <pt x="166" y="-313" on="1"/>
        <pt x="223" y="-203" on="1"/>
        <pt x="241" y="-214" on="0"/>
        <pt x="305" y="-247" on="0"/>
        <pt x="405" y="-280" on="0"/>
        <pt x="546" y="-303" on="0"/>
        <pt x="641" y="-303" on="1"/>
        <pt x="743" y="-303" on="0"/>
        <pt x="893" y="-273" on="0"/>
        <pt x="1000" y="-220" on="0"/>
        <pt x="1067" y="-149" on="0"/>
        <pt x="1106" y="-67" on="0"/>
        <pt x="1120" y="23" on="0"/>
        <pt x="1120" y="68" on="1"/>
        <pt x="1120" y="139" on="1"/>
        <pt x="1073" y="102" on="0"/>
        <pt x="971" y="41" on="0"/>
        <pt x="854" y="-3" on="0"/>
        <pt x="721" y="-27" on="0"/>
        <pt x="643" y="-27" on="1"/>
        <pt x="539" y="-27" on="0"/>
        <pt x="342" y="34" on="0"/>
        <pt x="190" y="160" on="0"/>
        <pt x="98" y="352" on="0"/>
        <pt x="98" y="483" on="1"/>
        <pt x="98" y="609" on="0"/>
        <pt x="189" y="795" on="0"/>
        <pt x="347" y="918" on="0"/>
        <pt x="559" y="979" on="0"/>
        <pt x="680" y="979" on="1"/>
        <pt x="741" y="979" on="0"/>
        <pt x="859" y="960" on="0"/>
        <pt x="971" y="926" on="0"/>
        <pt x="1075" y="881" on="0"/>
        <pt x="1120" y="856" on="1"/>
        <pt x="1120" y="952" on="1"/>
        <pt x="1470" y="952" on="1"/>
        <pt x="1470" y="840" on="1"/>
        <pt x="1245" y="840" on="1"/>
        <pt x="1245" y="72" on="1"/>
        <pt x="1245" y="-36" on="0"/>
        <pt x="1175" y="-214" on="0"/>
        <pt x="1028" y="-343" on="0"/>
        <pt x="799" y="-414" on="0"/>
      </contour>
      <contour>
        <pt x="672" y="80" on="1"/>
        <pt x="746" y="80" on="0"/>
        <pt x="877" y="115" on="0"/>
        <pt x="990" y="171" on="0"/>
        <pt x="1083" y="239" on="0"/>
        <pt x="1120" y="272" on="1"/>
        <pt x="1120" y="729" on="1"/>
        <pt x="1082" y="757" on="0"/>
        <pt x="988" y="808" on="0"/>
        <pt x="877" y="848" on="0"/>
        <pt x="752" y="872" on="0"/>
        <pt x="682" y="872" on="1"/>
        <pt x="579" y="872" on="0"/>
        <pt x="409" y="820" on="0"/>
        <pt x="288" y="721" on="0"/>
        <pt x="221" y="576" on="0"/>
        <pt x="221" y="483" on="1"/>
        <pt x="221" y="289" on="0"/>
        <pt x="451" y="80" on="0"/>
      </contour>
    </TTGlyph>
    <TTGlyph name="gbreve" xMin="98" yMin="-414" xMax="1470" yMax="1350">
      <component glyphName="g" x="0" y="0" flags="0x204"/>
      <component glyphName="breve" x="139" y="0" flags="0x4"/>
    </TTGlyph>
    <TTGlyph name="gcircumflex" xMin="98" yMin="-414" xMax="1470" yMax="1397">
      <component glyphName="g" x="0" y="0" flags="0x204"/>
      <component glyphName="circumflex" x="139" y="0" flags="0x4"/>
    </TTGlyph>
    <TTGlyph name="gcommaaccent" xMin="98" yMin="-414" xMax="1470" yMax="1405">
      <contour>
        <pt x="641" y="-414" on="1"/>
        <pt x="498" y="-414" on="0"/>
        <pt x="257" y="-358" on="0"/>
        <pt x="166" y="-313" on="1"/>
        <pt x="223" y="-203" on="1"/>
        <pt x="241" y="-214" on="0"/>
        <pt x="305" y="-247" on="0"/>
        <pt x="405" y="-280" on="0"/>
        <pt x="546" y="-303" on="0"/>
        <pt x="641" y="-303" on="1"/>
        <pt x="790" y="-303" on="0"/>
        <pt x="977" y="-240" on="0"/>
        <pt x="1082" y="-139" on="0"/>
        <pt x="1120" y="-12" on="0"/>
        <pt x="1120" y="53" on="1"/>
        <pt x="1120" y="139" on="1"/>
        <pt x="1073" y="102" on="0"/>
        <pt x="971" y="41" on="0"/>
        <pt x="854" y="-3" on="0"/>
        <pt x="721" y="-27" on="0"/>
        <pt x="643" y="-27" on="1"/>
        <pt x="539" y="-27" on="0"/>
        <pt x="342" y="34" on="0"/>
        <pt x="190" y="160" on="0"/>
        <pt x="98" y="352" on="0"/>
        <pt x="98" y="483" on="1"/>
        <pt x="98" y="609" on="0"/>
        <pt x="189" y="795" on="0"/>
        <pt x="347" y="918" on="0"/>
        <pt x="559" y="979" on="0"/>
        <pt x="680" y="979" on="1"/>
        <pt x="741" y="979" on="0"/>
        <pt x="859" y="960" on="0"/>
        <pt x="971" y="926" on="0"/>
        <pt x="1075" y="881" on="0"/>
        <pt x="1120" y="856" on="1"/>
        <pt x="1120" y="952" on="1"/>
        <pt x="1470" y="952" on="1"/>
        <pt x="1470" y="840" on="1"/>
        <pt x="1245" y="840" on="1"/>
        <pt x="1245" y="51" on="1"/>
        <pt x="1245" y="-50" on="0"/>
        <pt x="1175" y="-220" on="0"/>
        <pt x="1028" y="-344" on="0"/>
        <pt x="799" y="-414" on="0"/>
      </contour>
      <contour>
        <pt x="672" y="80" on="1"/>
        <pt x="746" y="80" on="0"/>
        <pt x="877" y="115" on="0"/>
        <pt x="990" y="171" on="0"/>
        <pt x="1083" y="239" on="0"/>
        <pt x="1120" y="272" on="1"/>
        <pt x="1120" y="729" on="1"/>
        <pt x="1082" y="757" on="0"/>
        <pt x="988" y="808" on="0"/>
        <pt x="877" y="848" on="0"/>
        <pt x="752" y="872" on="0"/>
        <pt x="682" y="872" on="1"/>
        <pt x="579" y="872" on="0"/>
        <pt x="409" y="820" on="0"/>
        <pt x="288" y="721" on="0"/>
        <pt x="221" y="576" on="0"/>
        <pt x="221" y="483" on="1"/>
        <pt x="221" y="289" on="0"/>
        <pt x="451" y="80" on="0"/>
      </contour>
      <contour>
        <pt x="786" y="1184" on="1"/>
        <pt x="786" y="1146" on="0"/>
        <pt x="735" y="1098" on="0"/>
        <pt x="696" y="1098" on="1"/>
        <pt x="651" y="1098" on="0"/>
        <pt x="598" y="1155" on="0"/>
        <pt x="598" y="1200" on="1"/>
        <pt x="598" y="1268" on="0"/>
        <pt x="651" y="1362" on="0"/>
        <pt x="700" y="1405" on="1"/>
        <pt x="752" y="1372" on="1"/>
        <pt x="738" y="1358" on="0"/>
        <pt x="719" y="1338" on="0"/>
        <pt x="706" y="1316" on="0"/>
        <pt x="696" y="1289" on="0"/>
        <pt x="690" y="1268" on="1"/>
        <pt x="717" y="1268" on="0"/>
        <pt x="754" y="1254" on="0"/>
        <pt x="776" y="1230" on="0"/>
        <pt x="786" y="1200" on="0"/>
      </contour>
    </TTGlyph>
    <TTGlyph name="gdotaccent" xMin="98" yMin="-414" xMax="1470" yMax="1305">
      <component glyphName="g" x="0" y="0" flags="0x204"/>
      <component glyphName="dotaccent" x="139" y="0" flags="0x4"/>
    </TTGlyph>
    <TTGlyph name="germandbls" xMin="47" yMin="-27" xMax="1452" yMax="1395">
      <contour>
        <pt x="47" y="113" on="1"/>
        <pt x="272" y="113" on="1"/>
        <pt x="272" y="1008" on="1"/>
        <pt x="272" y="1096" on="0"/>
        <pt x="338" y="1239" on="0"/>
        <pt x="473" y="1340" on="0"/>
        <pt x="680" y="1395" on="0"/>
        <pt x="821" y="1395" on="1"/>
        <pt x="939" y="1395" on="0"/>
        <pt x="1129" y="1354" on="0"/>
        <pt x="1262" y="1273" on="0"/>
        <pt x="1333" y="1153" on="0"/>
        <pt x="1333" y="1073" on="1"/>
        <pt x="1333" y="1022" on="0"/>
        <pt x="1311" y="933" on="0"/>
        <pt x="1259" y="861" on="0"/>
        <pt x="1169" y="808" on="0"/>
        <pt x="1102" y="795" on="1"/>
        <pt x="1273" y="772" on="0"/>
        <pt x="1452" y="574" on="0"/>
        <pt x="1452" y="397" on="1"/>
        <pt x="1452" y="292" on="0"/>
        <pt x="1385" y="133" on="0"/>
        <pt x="1255" y="27" on="0"/>
        <pt x="1064" y="-27" on="0"/>
        <pt x="940" y="-27" on="1"/>
        <pt x="837" y="-27" on="0"/>
        <pt x="643" y="19" on="0"/>
        <pt x="553" y="57" on="1"/>
        <pt x="594" y="164" on="1"/>
        <pt x="622" y="152" on="0"/>
        <pt x="691" y="123" on="0"/>
        <pt x="775" y="98" on="0"/>
        <pt x="875" y="80" on="0"/>
        <pt x="934" y="80" on="1"/>
        <pt x="1026" y="80" on="0"/>
        <pt x="1172" y="116" on="0"/>
        <pt x="1273" y="192" on="0"/>
        <pt x="1327" y="313" on="0"/>
        <pt x="1327" y="397" on="1"/>
        <pt x="1327" y="486" on="0"/>
        <pt x="1282" y="612" on="0"/>
        <pt x="1169" y="691" on="0"/>
        <pt x="977" y="727" on="0"/>
        <pt x="831" y="727" on="1"/>
        <pt x="639" y="727" on="1"/>
        <pt x="639" y="834" on="1"/>
        <pt x="825" y="834" on="1"/>
        <pt x="949" y="834" on="0"/>
        <pt x="1101" y="868" on="0"/>
        <pt x="1183" y="929" on="0"/>
        <pt x="1210" y="1012" on="0"/>
        <pt x="1210" y="1061" on="1"/>
        <pt x="1210" y="1110" on="0"/>
        <pt x="1173" y="1193" on="0"/>
        <pt x="1082" y="1253" on="0"/>
        <pt x="930" y="1286" on="0"/>
        <pt x="815" y="1286" on="1"/>
        <pt x="704" y="1286" on="0"/>
        <pt x="545" y="1250" on="0"/>
        <pt x="444" y="1179" on="0"/>
        <pt x="397" y="1074" on="0"/>
        <pt x="397" y="1006" on="1"/>
        <pt x="397" y="0" on="1"/>
        <pt x="47" y="0" on="1"/>
      </contour>
    </TTGlyph>
    <TTGlyph name="grave" xMin="186" yMin="1098" xMax="670" yMax="1395">
      <contour>
        <pt x="240" y="1395" on="1"/>
        <pt x="670" y="1182" on="1"/>
        <pt x="627" y="1098" on="1"/>
        <pt x="186" y="1284" on="1"/>
      </contour>
    </TTGlyph>
    <TTGlyph name="greater" xMin="170" yMin="199" xMax="1145" yMax="1171">
      <contour>
        <pt x="1145" y="637" on="1"/>
        <pt x="170" y="199" on="1"/>
        <pt x="170" y="313" on="1"/>
        <pt x="999" y="684" on="1"/>
        <pt x="170" y="1057" on="1"/>
        <pt x="170" y="1171" on="1"/>
        <pt x="1145" y="731" on="1"/>
      </contour>
    </TTGlyph>
    <TTGlyph name="greaterequal" xMin="170" yMin="98" xMax="1145" yMax="1171">
      <contour>
        <pt x="172" y="98" on="1"/>
        <pt x="172" y="207" on="1"/>
        <pt x="1128" y="207" on="1"/>
        <pt x="1128" y="98" on="1"/>
      </contour>
      <contour>
        <pt x="170" y="281" on="1"/>
        <pt x="170" y="395" on="1"/>
        <pt x="999" y="725" on="1"/>
        <pt x="170" y="1057" on="1"/>
        <pt x="170" y="1171" on="1"/>
        <pt x="1145" y="772" on="1"/>
        <pt x="1145" y="678" on="1"/>
      </contour>
    </TTGlyph>
    <TTGlyph name="guillemotleft" xMin="82" yMin="109" xMax="821" yMax="870">
      <contour>
        <pt x="82" y="444" on="1"/>
        <pt x="82" y="535" on="1"/>
        <pt x="367" y="870" on="1"/>
        <pt x="453" y="797" on="1"/>
        <pt x="197" y="489" on="1"/>
        <pt x="453" y="182" on="1"/>
        <pt x="367" y="109" on="1"/>
      </contour>
      <contour>
        <pt x="451" y="444" on="1"/>
        <pt x="451" y="535" on="1"/>
        <pt x="735" y="870" on="1"/>
        <pt x="821" y="797" on="1"/>
        <pt x="565" y="489" on="1"/>
        <pt x="821" y="182" on="1"/>
        <pt x="735" y="109" on="1"/>
      </contour>
    </TTGlyph>
    <TTGlyph name="guillemotright" xMin="82" yMin="109" xMax="821" yMax="870">
      <contour>
        <pt x="537" y="109" on="1"/>
        <pt x="451" y="182" on="1"/>
        <pt x="707" y="489" on="1"/>
        <pt x="451" y="797" on="1"/>
        <pt x="537" y="870" on="1"/>
        <pt x="821" y="535" on="1"/>
        <pt x="821" y="444" on="1"/>
      </contour>
      <contour>
        <pt x="168" y="109" on="1"/>
        <pt x="82" y="182" on="1"/>
        <pt x="338" y="489" on="1"/>
        <pt x="82" y="797" on="1"/>
        <pt x="168" y="870" on="1"/>
        <pt x="453" y="535" on="1"/>
        <pt x="453" y="444" on="1"/>
      </contour>
    </TTGlyph>
    <TTGlyph name="guilsinglleft" xMin="82" yMin="109" xMax="453" yMax="870">
      <contour>
        <pt x="82" y="444" on="1"/>
        <pt x="82" y="535" on="1"/>
        <pt x="367" y="870" on="1"/>
        <pt x="453" y="797" on="1"/>
        <pt x="197" y="489" on="1"/>
        <pt x="453" y="182" on="1"/>
        <pt x="367" y="109" on="1"/>
      </contour>
    </TTGlyph>
    <TTGlyph name="guilsinglright" xMin="82" yMin="109" xMax="453" yMax="870">
      <contour>
        <pt x="168" y="109" on="1"/>
        <pt x="82" y="182" on="1"/>
        <pt x="338" y="489" on="1"/>
        <pt x="82" y="797" on="1"/>
        <pt x="168" y="870" on="1"/>
        <pt x="453" y="535" on="1"/>
        <pt x="453" y="444" on="1"/>
      </contour>
    </TTGlyph>
    <TTGlyph name="h" xMin="47" yMin="0" xMax="1516" yMax="1374">
      <contour>
        <pt x="47" y="1374" on="1"/>
        <pt x="397" y="1374" on="1"/>
        <pt x="397" y="772" on="1"/>
        <pt x="444" y="817" on="0"/>
        <pt x="560" y="894" on="0"/>
        <pt x="694" y="952" on="0"/>
        <pt x="842" y="985" on="0"/>
        <pt x="920" y="985" on="1"/>
        <pt x="1013" y="985" on="0"/>
        <pt x="1152" y="938" on="0"/>
        <pt x="1244" y="852" on="0"/>
        <pt x="1290" y="729" on="0"/>
        <pt x="1290" y="653" on="1"/>
        <pt x="1290" y="113" on="1"/>
        <pt x="1516" y="113" on="1"/>
        <pt x="1516" y="0" on="1"/>
        <pt x="940" y="0" on="1"/>
        <pt x="940" y="113" on="1"/>
        <pt x="1165" y="113" on="1"/>
        <pt x="1165" y="616" on="1"/>
        <pt x="1165" y="692" on="0"/>
        <pt x="1126" y="791" on="0"/>
        <pt x="1054" y="849" on="0"/>
        <pt x="951" y="872" on="0"/>
        <pt x="887" y="872" on="1"/>
        <pt x="812" y="872" on="0"/>
        <pt x="668" y="832" on="0"/>
        <pt x="541" y="772" on="0"/>
        <pt x="434" y="699" on="0"/>
        <pt x="397" y="666" on="1"/>
        <pt x="397" y="113" on="1"/>
        <pt x="623" y="113" on="1"/>
        <pt x="623" y="0" on="1"/>
        <pt x="47" y="0" on="1"/>
        <pt x="47" y="113" on="1"/>
        <pt x="272" y="113" on="1"/>
        <pt x="272" y="1262" on="1"/>
        <pt x="47" y="1262" on="1"/>
      </contour>
    </TTGlyph>
    <TTGlyph name="hbar" xMin="47" yMin="0" xMax="1516" yMax="1374">
      <contour>
        <pt x="397" y="1047" on="1"/>
        <pt x="397" y="772" on="1"/>
        <pt x="444" y="817" on="0"/>
        <pt x="560" y="894" on="0"/>
        <pt x="694" y="952" on="0"/>
        <pt x="842" y="985" on="0"/>
        <pt x="920" y="985" on="1"/>
        <pt x="1013" y="985" on="0"/>
        <pt x="1152" y="938" on="0"/>
        <pt x="1244" y="852" on="0"/>
        <pt x="1290" y="729" on="0"/>
        <pt x="1290" y="653" on="1"/>
        <pt x="1290" y="113" on="1"/>
        <pt x="1516" y="113" on="1"/>
        <pt x="1516" y="0" on="1"/>
        <pt x="940" y="0" on="1"/>
        <pt x="940" y="113" on="1"/>
        <pt x="1165" y="113" on="1"/>
        <pt x="1165" y="616" on="1"/>
        <pt x="1165" y="692" on="0"/>
        <pt x="1126" y="791" on="0"/>
        <pt x="1054" y="849" on="0"/>
        <pt x="951" y="872" on="0"/>
        <pt x="887" y="872" on="1"/>
        <pt x="812" y="872" on="0"/>
        <pt x="668" y="832" on="0"/>
        <pt x="541" y="772" on="0"/>
        <pt x="434" y="699" on="0"/>
        <pt x="397" y="666" on="1"/>
        <pt x="397" y="113" on="1"/>
        <pt x="623" y="113" on="1"/>
        <pt x="623" y="0" on="1"/>
        <pt x="47" y="0" on="1"/>
        <pt x="47" y="113" on="1"/>
        <pt x="272" y="113" on="1"/>
        <pt x="272" y="1047" on="1"/>
        <pt x="61" y="1047" on="1"/>
        <pt x="61" y="1155" on="1"/>
        <pt x="272" y="1155" on="1"/>
        <pt x="272" y="1262" on="1"/>
        <pt x="47" y="1262" on="1"/>
        <pt x="47" y="1374" on="1"/>
        <pt x="397" y="1374" on="1"/>
        <pt x="397" y="1155" on="1"/>
        <pt x="758" y="1155" on="1"/>
        <pt x="758" y="1047" on="1"/>
      </contour>
    </TTGlyph>
    <TTGlyph name="hcircumflex" xMin="-87" yMin="0" xMax="1516" yMax="1800">
      <component glyphName="h" x="0" y="0" flags="0x204"/>
      <component glyphName="circumflex" x="-241" y="403" flags="0x4"/>
    </TTGlyph>
    <TTGlyph name="hungarumlaut" xMin="236" yMin="1098" xMax="1034" yMax="1389">
      <contour>
        <pt x="639" y="1284" on="1"/>
        <pt x="281" y="1098" on="1"/>
        <pt x="236" y="1176" on="1"/>
        <pt x="582" y="1389" on="1"/>
      </contour>
      <contour>
        <pt x="1034" y="1284" on="1"/>
        <pt x="676" y="1098" on="1"/>
        <pt x="631" y="1176" on="1"/>
        <pt x="977" y="1389" on="1"/>
      </contour>
    </TTGlyph>
    <TTGlyph name="hyphen" xMin="164" yMin="424" xMax="942" yMax="547">
      <contour>
        <pt x="164" y="424" on="1"/>
        <pt x="164" y="547" on="1"/>
        <pt x="942" y="547" on="1"/>
        <pt x="942" y="424" on="1"/>
      </contour>
    </TTGlyph>
    <TTGlyph name="i" xMin="47" yMin="0" xMax="623" yMax="1331">
      <contour>
        <pt x="47" y="952" on="1"/>
        <pt x="397" y="952" on="1"/>
        <pt x="397" y="113" on="1"/>
        <pt x="623" y="113" on="1"/>
        <pt x="623" y="0" on="1"/>
        <pt x="47" y="0" on="1"/>
        <pt x="47" y="113" on="1"/>
        <pt x="272" y="113" on="1"/>
        <pt x="272" y="840" on="1"/>
        <pt x="47" y="840" on="1"/>
      </contour>
      <contour>
        <pt x="209" y="1219" on="1"/>
        <pt x="209" y="1242" on="0"/>
        <pt x="226" y="1283" on="0"/>
        <pt x="256" y="1313" on="0"/>
        <pt x="296" y="1331" on="0"/>
        <pt x="319" y="1331" on="1"/>
        <pt x="342" y="1331" on="0"/>
        <pt x="383" y="1313" on="0"/>
        <pt x="414" y="1283" on="0"/>
        <pt x="432" y="1242" on="0"/>
        <pt x="432" y="1219" on="1"/>
        <pt x="432" y="1196" on="0"/>
        <pt x="414" y="1155" on="0"/>
        <pt x="383" y="1125" on="0"/>
        <pt x="342" y="1108" on="0"/>
        <pt x="319" y="1108" on="1"/>
        <pt x="296" y="1108" on="0"/>
        <pt x="256" y="1125" on="0"/>
        <pt x="226" y="1155" on="0"/>
        <pt x="209" y="1196" on="0"/>
      </contour>
    </TTGlyph>
</ttFont>
